SplineFontDB: 3.0
FontName: SignikaNegative-Light
FullName: Signika Negative Light
FamilyName: Signika Negative
Weight: Light
Copyright: Copyright (c) 2011 by Anna Giedrys (http://ancymonic.com), with Reserved Font Names "Signika".
Version: 001.001
ItalicAngle: 0
UnderlinePosition: -100
UnderlineWidth: 50
Ascent: 800
Descent: 200
sfntRevision: 0x00010042
LayerCount: 2
Layer: 0 1 "Back"  1
Layer: 1 1 "Fore"  0
NeedsXUIDChange: 1
XUID: [1021 288 713564382 2768778]
FSType: 0
OS2Version: 2
OS2_WeightWidthSlopeOnly: 0
OS2_UseTypoMetrics: 1
CreationTime: 1323970529
ModificationTime: 1323999475
PfmFamily: 17
TTFWeight: 300
TTFWidth: 5
LineGap: 0
VLineGap: 0
Panose: 2 1 0 3 2 6 0 0 0 4
OS2TypoAscent: 140
OS2TypoAOffset: 1
OS2TypoDescent: -92
OS2TypoDOffset: 1
OS2TypoLinegap: 0
OS2WinAscent: 60
OS2WinAOffset: 1
OS2WinDescent: 48
OS2WinDOffset: 1
HheadAscent: 60
HheadAOffset: 1
HheadDescent: -48
HheadDOffset: 1
OS2SubXSize: 700
OS2SubYSize: 650
OS2SubXOff: 0
OS2SubYOff: 140
OS2SupXSize: 700
OS2SupYSize: 650
OS2SupXOff: 0
OS2SupYOff: 477
OS2StrikeYSize: 50
OS2StrikeYPos: 250
OS2CodePages: 00000093.00000000
OS2UnicodeRanges: a00000ef.40000043.00000000.00000000
Lookup: 258 0 0 "'kern' Horizontal Kerning in Latin lookup 0"  {"'kern' Horizontal Kerning in Latin lookup 0 subtable"  } ['kern' ('DFLT' <'dflt' > 'latn' <'dflt' > ) ]
MarkAttachClasses: 1
DEI: 91125
LangName: 1033 "" "" "" "AnnaGiedrys: Signika Light: 2011" "SignikaNegative-Light" "Version 1.001" "" "Signika is a trademark of Anna Giedrys." "Anna Giedrys" "Anna Giedrys" "" "www.ancymonic.com" "www.ancymonic.com" "This Font Software is licensed under the SIL Open Font License, Version 1.1. This license is available with a FAQ at: http://scripts.sil.org/OFL" "http://scripts.sil.org/OFL" 
Encoding: UnicodeBmp
UnicodeInterp: none
NameList: Adobe Glyph List
DisplaySize: -36
AntiAlias: 1
FitToEm: 1
WinInfo: 50 25 10
BeginPrivate: 6
BlueValues 57 [-224 -209 -12 9 487 502 542 554 648 660 683 698 729 744]

StartChar: a
Encoding: 97 97 5
Width: 503
Flags: HMW
HStem: -12 59<177 227.5 177 229.5> 240 53<203 256 183 257.5> 441 59<231.5 287.5>
VStem: 52 70<112.5 170.5 112.5 188> 352 65<133 232 232 232 283 334>
LayerCount: 2
Fore
SplineSet
445 28 m 1,0,1
 435 3 435 3 413 -7 c 1,2,3
 365 12 365 12 355 65 c 1,4,5
 278 -12 278 -12 196 -12 c 0,6,7
 128 -12 128 -12 90 31.5 c 128,-1,8
 52 75 52 75 52 133 c 0,9,10
 52 213 52 213 102 253 c 128,-1,11
 152 293 152 293 239 293 c 0,12,13
 298 293 298 293 352 283 c 1,14,-1
 352 336 l 2,15,16
 352 441 352 441 259 441 c 0,17,18
 188 441 188 441 95 399 c 1,19,20
 85 407 85 407 77.5 423 c 128,-1,21
 70 439 70 439 70 453 c 1,22,23
 175 500 175 500 264 500 c 0,24,25
 417 500 417 500 417 334 c 2,26,-1
 417 128 l 2,27,28
 417 55 417 55 445 28 c 1,0,1
143.5 72.5 m 128,-1,30
 165 47 165 47 203 47 c 128,-1,31
 241 47 241 47 281 69 c 128,-1,32
 321 91 321 91 352 133 c 1,33,-1
 352 232 l 1,34,35
 296 240 296 240 240.5 240 c 128,-1,36
 185 240 185 240 153.5 213 c 128,-1,37
 122 186 122 186 122 142 c 128,-1,29
 122 98 122 98 143.5 72.5 c 128,-1,30
EndSplineSet
EndChar

StartChar: b
Encoding: 98 98 6
Width: 523
Flags: HMW
HStem: -7 53<241.5 299 241.5 314> 438 60<270 320.5>
VStem: 90 67<65 364 434 688> 402 68<180.5 317.5>
LayerCount: 2
Fore
SplineSet
426 430.5 m 128,-1,1
 470 363 470 363 470 243 c 128,-1,2
 470 123 470 123 409 58 c 128,-1,3
 348 -7 348 -7 263 -7 c 128,-1,4
 178 -7 178 -7 90 25 c 1,5,-1
 90 729 l 1,6,-1
 96 735 l 1,7,-1
 121 735 l 2,8,9
 143 735 143 735 150 724 c 128,-1,10
 157 713 157 713 157 688 c 2,11,-1
 157 434 l 1,12,13
 221 498 221 498 301.5 498 c 128,-1,0
 382 498 382 498 426 430.5 c 128,-1,1
370.5 391.5 m 128,-1,15
 339 438 339 438 297 438 c 128,-1,16
 255 438 255 438 218.5 417.5 c 128,-1,17
 182 397 182 397 157 364 c 1,18,-1
 157 65 l 1,19,20
 204 46 204 46 263 46 c 128,-1,21
 322 46 322 46 362 98.5 c 128,-1,22
 402 151 402 151 402 248 c 128,-1,14
 402 345 402 345 370.5 391.5 c 128,-1,15
EndSplineSet
EndChar

StartChar: c
Encoding: 99 99 7
Width: 469
Flags: HMW
HStem: -12 60<215 281 215 282> 447 55<214 294.5>
VStem: 53 72<179 308 176.5 331>
LayerCount: 2
Fore
SplineSet
359 320 m 1,0,1
 359.380952381 325.904761905 359.380952381 325.904761905 359.380952381 341.023809524 c 128,-1,2
 359.380952381 356.142857143 359.380952381 356.142857143 351.69047619 380.571428571 c 128,-1,3
 344 405 344 405 318 426 c 128,-1,4
 292 447 292 447 251 447 c 0,5,6
 194 447 194 447 159.5 393 c 128,-1,7
 125 339 125 339 125 242.5 c 128,-1,8
 125 146 125 146 159 97 c 128,-1,9
 193 48 193 48 252 48 c 128,-1,10
 311 48 311 48 385 104 c 1,11,12
 413 86 413 86 419 60 c 1,13,14
 342 -12 342 -12 245 -12 c 128,-1,15
 148 -12 148 -12 100.5 62 c 128,-1,16
 53 136 53 136 53 252 c 128,-1,17
 53 368 53 368 111 435 c 128,-1,18
 169 502 169 502 253 502 c 0,19,20
 298 502 298 502 333.5 487 c 128,-1,21
 369 472 369 472 387.5 449.5 c 0,22,23
 425 403.891891892 425 403.891891892 425 360.445945946 c 128,-1,24
 425 317 425 317 388 317 c 0,25,26
 376 317 376 317 359 320 c 1,0,1
EndSplineSet
EndChar

StartChar: d
Encoding: 100 100 8
Width: 524
Flags: HMW
HStem: -12 60<203 251.5> 438 60<213.5 261 195 267>
VStem: 52 69<170.5 310 170.5 330.5> 366 66<128 138 138 392 392 392 456 688>
LayerCount: 2
Fore
SplineSet
95.5 56 m 128,-1,1
 52 124 52 124 52 245 c 128,-1,2
 52 366 52 366 108.5 432 c 128,-1,3
 165 498 165 498 232.5 498 c 128,-1,4
 300 498 300 498 366 456 c 1,5,-1
 366 729 l 1,6,-1
 372 735 l 1,7,-1
 396 735 l 2,8,9
 418 735 418 735 425 724 c 128,-1,10
 432 713 432 713 432 688 c 2,11,-1
 432 138 l 2,12,13
 432 55 432 55 460 28 c 1,14,15
 450 4 450 4 428 -7 c 1,16,17
 383 11 383 11 371 61 c 1,18,19
 309 -12 309 -12 224 -12 c 128,-1,0
 139 -12 139 -12 95.5 56 c 128,-1,1
232 48 m 0,20,21
 268 48 268 48 304.5 69.5 c 128,-1,22
 341 91 341 91 366 128 c 1,23,-1
 366 392 l 1,24,25
 301 438 301 438 247 438 c 128,-1,26
 193 438 193 438 157 388 c 128,-1,27
 121 338 121 338 121 240.5 c 128,-1,28
 121 143 121 143 152.5 95.5 c 128,-1,29
 184 48 184 48 232 48 c 0,20,21
EndSplineSet
EndChar

StartChar: e
Encoding: 101 101 9
Width: 503
Flags: HMW
HStem: -12 61<210.5 283> 224 54<126 374 126 440 126 374> 449 53<213 296>
VStem: 53 73<224 224 224 278 224 320> 374 70<278 292 292 334.5>
LayerCount: 2
Fore
SplineSet
440 224 m 1,0,-1
 126 224 l 1,1,2
 131 49 131 49 258 49 c 0,3,4
 328 49 328 49 404 92 c 1,5,6
 426 73 426 73 430 44 c 1,7,8
 350 -12 350 -12 249 -12 c 0,9,10
 178 -12 178 -12 133 25 c 128,-1,11
 88 62 88 62 70.5 117.5 c 128,-1,12
 53 173 53 173 53 246 c 0,13,14
 53 359 53 359 106.5 430.5 c 128,-1,15
 160 502 160 502 252 502 c 128,-1,16
 344 502 344 502 394 441.5 c 128,-1,17
 444 381 444 381 444 288 c 0,18,19
 444 256 444 256 440 224 c 1,0,-1
344 405 m 128,-1,21
 314 449 314 449 254.5 449 c 128,-1,22
 195 449 195 449 162 402.5 c 128,-1,23
 129 356 129 356 126 278 c 1,24,-1
 374 278 l 1,25,-1
 374 292 l 2,26,20
 374 361 374 361 344 405 c 128,-1,21
EndSplineSet
EndChar

StartChar: f
Encoding: 102 102 10
Width: 317
Flags: HMW
HStem: 438 52 687 52<217.5 256.5>
VStem: 109 67<0 439 0 439>
LayerCount: 2
Fore
SplineSet
109 0 m 1,0,-1
 109 439 l 1,1,-1
 23 438 l 1,2,3
 20 452 20 452 20 464 c 128,-1,4
 20 476 20 476 23 491 c 1,5,-1
 106 489 l 1,6,7
 99 582 99 582 99 595 c 0,8,9
 99 658 99 658 136 698.5 c 128,-1,10
 173 739 173 739 235.5 739 c 0,11,12
 298 739 298 739 351 718 c 1,13,14
 351 690 351 690 334 671 c 1,15,16
 281 687 281 687 243 687 c 0,17,18
 205 687 205 687 184 662.5 c 128,-1,19
 163 638 163 638 163 594 c 0,20,21
 163 550 163 550 171 489 c 1,22,-1
 319 491 l 1,23,24
 322 476 322 476 322 464 c 128,-1,25
 322 452 322 452 319 438 c 1,26,-1
 176 439 l 1,27,-1
 176 0 l 1,28,29
 161 -3 161 -3 142.5 -3 c 0,30,31
 124 -3 124 -3 109 0 c 1,0,-1
EndSplineSet
EndChar

StartChar: g
Encoding: 103 103 11
Width: 523
Flags: HMW
HStem: -220 56<213 274> -8 60<201 254> 442 60<213.5 268> 477 20G
VStem: 52 69<175.5 314.5 175.5 334.5> 369 64<0 34 34 60 60 60 130 352>
LayerCount: 2
Fore
SplineSet
96 59.5 m 128,-1,1
 52 127 52 127 52 248.5 c 128,-1,2
 52 370 52 370 108.5 436 c 128,-1,3
 165 502 165 502 241.5 502 c 128,-1,4
 318 502 318 502 379 448 c 1,5,6
 394 484 394 484 429 497 c 1,7,8
 451 486 451 486 461 462 c 1,9,10
 433 434 433 434 433 352 c 2,11,-1
 433 34 l 2,12,13
 433 -103 433 -103 388 -158 c 1,14,15
 339 -220 339 -220 246 -220 c 128,-1,16
 153 -220 153 -220 74 -186 c 1,17,18
 76 -154 76 -154 94 -132 c 1,19,20
 160 -164 160 -164 217.5 -164 c 128,-1,21
 275 -164 275 -164 303.5 -151 c 128,-1,22
 332 -138 332 -138 345.5 -113.5 c 0,23,24
 369 -70.8518518519 369 -70.8518518519 369 0 c 2,25,-1
 369 60 l 1,26,27
 303 -8 303 -8 221.5 -8 c 128,-1,0
 140 -8 140 -8 96 59.5 c 128,-1,1
369 130 m 1,28,-1
 369 391 l 1,29,30
 309 442 309 442 251 442 c 128,-1,31
 193 442 193 442 157 392.5 c 128,-1,32
 121 343 121 343 121 245 c 128,-1,33
 121 147 121 147 151.5 99.5 c 128,-1,34
 182 52 182 52 226 52 c 128,-1,35
 270 52 270 52 307 74 c 128,-1,36
 344 96 344 96 369 130 c 1,28,-1
EndSplineSet
EndChar

StartChar: h
Encoding: 104 104 12
Width: 544
Flags: HMW
HStem: 436 62<300.5 346>
VStem: 90 67<0 356 425 688> 392 68<76.5 92 92 320 320 343>
LayerCount: 2
Fore
SplineSet
460 343 m 2,0,-1
 460 92 l 2,1,2
 460 36 460 36 470 9 c 1,3,4
 455 -6 455 -6 427 -6 c 0,5,6
 392 -6 392 -6 392 39 c 2,7,-1
 392 320 l 2,8,9
 392 383 392 383 376 409.5 c 128,-1,10
 360 436 360 436 318 436 c 0,11,12
 276 436 276 436 231 413.5 c 128,-1,13
 186 391 186 391 157 356 c 1,14,-1
 157 0 l 1,15,16
 143.5 -3 143.5 -3 123.75 -3 c 0,17,18
 104 -3 104 -3 90 0 c 1,19,-1
 90 729 l 1,20,-1
 96 735 l 1,21,-1
 121 735 l 2,22,23
 143 735 143 735 150 724 c 128,-1,24
 157 713 157 713 157 688 c 2,25,-1
 157 425 l 1,26,27
 190 458 190 458 237.5 478 c 128,-1,28
 285 498 285 498 332 498 c 0,29,30
 399 498 399 498 429.5 455 c 128,-1,31
 460 412 460 412 460 343 c 2,0,-1
EndSplineSet
EndChar

StartChar: i
Encoding: 105 105 13
Width: 253
Flags: HMW
HStem: 438 55<47 103 47 103> 588 71<74 74 158 158>
VStem: 67 91 97 68<0 390 390 408.5>
LayerCount: 2
Fore
SplineSet
165 425 m 2,0,-1
 165 0 l 1,1,2
 152 -3 152 -3 131 -3 c 128,-1,3
 110 -3 110 -3 97 0 c 1,4,-1
 97 390 l 2,5,6
 97 418 97 418 88 428 c 128,-1,7
 79 438 79 438 56 438 c 2,8,-1
 47 438 l 1,9,10
 44 451 44 451 44 462.5 c 128,-1,11
 44 474 44 474 47 489 c 1,12,13
 76 493 76 493 95 493 c 2,14,-1
 103 493 l 2,15,16
 132 493 132 493 148.5 475 c 128,-1,17
 165 457 165 457 165 425 c 2,0,-1
74 588 m 1,18,19
 67 602 67 602 67 624.5 c 128,-1,20
 67 647 67 647 74 659 c 1,21,22
 87 669 87 669 116.5 669 c 128,-1,23
 146 669 146 669 158 659 c 1,24,25
 165 647 165 647 165 624.5 c 128,-1,26
 165 602 165 602 158 588 c 1,27,28
 148 578 148 578 117.5 578 c 128,-1,29
 87 578 87 578 74 588 c 1,18,19
EndSplineSet
EndChar

StartChar: j
Encoding: 106 106 14
Width: 260
Flags: HMW
HStem: -219 21G 438 55<45 112> 588 71<81 81 165 165>
VStem: 74 91 104 68<-49 12 12 390 390 408.5>
LayerCount: 2
Fore
SplineSet
172 425 m 2,0,-1
 172 12 l 2,1,2
 172 -92.8807287754 172 -92.8807287754 163.32231405 -124.442524418 c 0,3,4
 144.889473416 -191.485000085 144.889473416 -191.485000085 58 -219 c 1,5,6
 42 -202 42 -202 36 -176 c 1,7,8
 76 -154 76 -154 90 -128 c 128,-1,9
 104 -102 104 -102 104 -52 c 2,10,-1
 104 390 l 2,11,12
 104 418 104 418 95 428 c 128,-1,13
 86 438 86 438 63 438 c 2,14,-1
 45 438 l 1,15,16
 42 451 42 451 42 462.5 c 128,-1,17
 42 474 42 474 45 489 c 1,18,19
 74 493 74 493 104 493 c 2,20,-1
 112 493 l 2,21,22
 140 493 140 493 156 474.5 c 128,-1,23
 172 456 172 456 172 425 c 2,0,-1
81 588 m 1,24,25
 74 602 74 602 74 624.5 c 128,-1,26
 74 647 74 647 81 659 c 1,27,28
 94 669 94 669 123.5 669 c 128,-1,29
 153 669 153 669 165 659 c 1,30,31
 172 647 172 647 172 624.5 c 128,-1,32
 172 602 172 602 165 588 c 1,33,34
 155 578 155 578 124.5 578 c 128,-1,35
 94 578 94 578 81 588 c 1,24,25
EndSplineSet
EndChar

StartChar: k
Encoding: 107 107 15
Width: 487
Flags: HMW
HStem: 225 57<206.5 207.5 203 242> 484 9
VStem: 90 67<0 222 0 279 279 688>
LayerCount: 2
Fore
SplineSet
376 178 m 2,0,-1
 416 88 l 2,1,2
 442 29 442 29 464 15 c 1,3,4
 449 -6 449 -6 423 -6 c 0,5,6
 397 -6 397 -6 386.5 6 c 128,-1,7
 376 18 376 18 364 45 c 2,8,-1
 316 150 l 2,9,10
 296 195 296 195 276 210 c 128,-1,11
 256 225 256 225 224 225 c 0,12,13
 192 225 192 225 157 222 c 1,14,-1
 157 0 l 1,15,16
 143.5 -3 143.5 -3 123.75 -3 c 0,17,18
 104 -3 104 -3 90 0 c 1,19,-1
 90 729 l 1,20,-1
 96 735 l 1,21,-1
 121 735 l 2,22,23
 143 735 143 735 150 724 c 128,-1,24
 157 713 157 713 157 688 c 2,25,-1
 157 279 l 1,26,-1
 203 282 l 2,27,28
 216 282 216 282 224 295 c 2,29,-1
 335 458 l 2,30,31
 348 477 348 477 358.5 485 c 128,-1,32
 369 493 369 493 389.5 493 c 0,33,34
 410 493 410 493 423 492 c 1,35,-1
 429 484 l 1,36,-1
 298 295 l 2,37,38
 285 277 285 277 276 270 c 1,39,40
 311 263 311 263 333.5 242 c 128,-1,41
 356 221 356 221 376 178 c 2,0,-1
EndSplineSet
EndChar

StartChar: l
Encoding: 108 108 16
Width: 280
Flags: HMW
HStem: -4 57<146 235>
VStem: 88 67<81 95 95 688>
LayerCount: 2
Fore
SplineSet
192 53 m 2,0,-1
 235 53 l 1,1,2
 241 38 241 38 241 22 c 0,3,4
 241 6 241 6 240 2 c 1,5,6
 202 -4 202 -4 167.5 -4 c 0,7,8
 133 -4 133 -4 110.5 17 c 128,-1,9
 88 38 88 38 88 75 c 2,10,-1
 88 729 l 1,11,-1
 94 735 l 1,12,-1
 119 735 l 2,13,14
 141 735 141 735 148 724 c 128,-1,15
 155 713 155 713 155 688 c 2,16,-1
 155 95 l 2,17,18
 155 53 155 53 192 53 c 2,0,-1
EndSplineSet
EndChar

StartChar: m
Encoding: 109 109 17
Width: 790
Flags: HMW
HStem: 437 62<279.5 320 551 594>
VStem: 90 68<0 356 426 446> 364 67<0 321 321 345 345 356 0 362> 638 67<76.5 92 92 322 322 345>
LayerCount: 2
Fore
SplineSet
364 321 m 2,0,1
 364 383 364 383 348.5 410 c 128,-1,2
 333 437 333 437 297 437 c 128,-1,3
 261 437 261 437 223.5 415 c 128,-1,4
 186 393 186 393 158 356 c 1,5,-1
 158 0 l 1,6,7
 144.5 -3 144.5 -3 124.25 -3 c 128,-1,8
 104 -3 104 -3 90 0 c 1,9,-1
 90 486 l 1,10,-1
 96 493 l 1,11,-1
 122 493 l 2,12,13
 144 493 144 493 151 482 c 128,-1,14
 158 471 158 471 158 446 c 2,15,-1
 158 426 l 1,16,17
 221 499 221 499 304 499 c 128,-1,18
 387 499 387 499 418 422 c 1,19,20
 498 499 498 499 580 499 c 0,21,22
 642 499 642 499 673.5 455.5 c 128,-1,23
 705 412 705 412 705 345 c 2,24,-1
 705 92 l 2,25,26
 705 36 705 36 716 9 c 1,27,28
 699 -6 699 -6 673 -6 c 0,29,30
 638 -6 638 -6 638 39 c 2,31,-1
 638 322 l 2,32,33
 638 384 638 384 622.5 410.5 c 128,-1,34
 607 437 607 437 571 437 c 128,-1,35
 535 437 535 437 497.5 416 c 128,-1,36
 460 395 460 395 431 356 c 1,37,-1
 431 0 l 1,38,39
 417.5 -3 417.5 -3 396.75 -3 c 128,-1,40
 376 -3 376 -3 364 0 c 1,41,-1
 364 321 l 2,0,1
EndSplineSet
EndChar

StartChar: n
Encoding: 110 110 18
Width: 545
Flags: HMW
HStem: 437 62<301.5 347> 473 20G<96 122 122 137.5>
VStem: 90 68<0 357 426 446> 393 68<76.5 92 92 321 321 344>
LayerCount: 2
Fore
SplineSet
461 344 m 2,0,-1
 461 92 l 2,1,2
 461 33 461 33 471 9 c 1,3,4
 456 -6 456 -6 428 -6 c 0,5,6
 393 -6 393 -6 393 39 c 2,7,-1
 393 321 l 2,8,9
 393 384 393 384 377 410.5 c 128,-1,10
 361 437 361 437 319 437 c 0,11,12
 277 437 277 437 232 414.5 c 128,-1,13
 187 392 187 392 158 357 c 1,14,-1
 158 0 l 1,15,16
 144.5 -3 144.5 -3 124.25 -3 c 0,17,18
 104 -3 104 -3 90 0 c 1,19,-1
 90 487 l 1,20,-1
 96 493 l 1,21,-1
 122 493 l 2,22,23
 144 493 144 493 151 482 c 128,-1,24
 158 471 158 471 158 446 c 2,25,-1
 158 426 l 1,26,27
 191 459 191 459 238.5 479 c 128,-1,28
 286 499 286 499 333 499 c 0,29,30
 400 499 400 499 430.5 456 c 128,-1,31
 461 413 461 413 461 344 c 2,0,-1
EndSplineSet
EndChar

StartChar: o
Encoding: 111 111 19
Width: 519
Flags: HMW
HStem: -12 54<231 287.5> 449 53<231 287.5 231 311>
VStem: 53 71<205 284.5> 395 71<205 284.5 205 294.5>
LayerCount: 2
Fore
SplineSet
466 245 m 128,-1,1
 466 112 466 112 396 41 c 0,2,3
 343 -12 343 -12 259.5 -12 c 128,-1,4
 176 -12 176 -12 123 41 c 0,5,6
 53 112 53 112 53 245 c 128,-1,7
 53 378 53 378 123 449 c 0,8,9
 176 502 176 502 259.5 502 c 128,-1,10
 343 502 343 502 396 449 c 0,11,0
 466 378 466 378 466 245 c 128,-1,1
156.5 389.5 m 128,-1,13
 124 330 124 330 124 244.5 c 128,-1,14
 124 159 124 159 156.5 100.5 c 128,-1,15
 189 42 189 42 260 42 c 0,16,17
 308 42 308 42 339.5 73 c 0,18,19
 395 127.619047619 395 127.619047619 395 245 c 0,20,21
 395 330 395 330 362.5 389.5 c 128,-1,22
 330 449 330 449 259.5 449 c 128,-1,12
 189 449 189 449 156.5 389.5 c 128,-1,13
EndSplineSet
EndChar

StartChar: p
Encoding: 112 112 20
Width: 525
Flags: HMW
HStem: -215 21G<96 121 96 96> -209 21G<90 90> -8 60<263 311.5 257.5 329.5> 442 60<274 321.5> 473 20G<96 121 121 137>
VStem: 90 67<-183 -168 -168 35 99 359 432 446> 404 68<180 319.5>
LayerCount: 2
Fore
SplineSet
428.5 433.5 m 128,-1,1
 472 365 472 365 472 244.5 c 128,-1,2
 472 124 472 124 416 58 c 128,-1,3
 360 -8 360 -8 291 -8 c 128,-1,4
 222 -8 222 -8 157 35 c 1,5,-1
 157 -168 l 2,6,7
 157 -193 157 -193 150 -204 c 128,-1,8
 143 -215 143 -215 121 -215 c 2,9,-1
 96 -215 l 1,10,-1
 90 -209 l 1,11,-1
 90 487 l 1,12,-1
 96 493 l 1,13,-1
 121 493 l 2,14,15
 143 493 143 493 150 482 c 128,-1,16
 157 471 157 471 157 446 c 2,17,-1
 157 432 l 1,18,19
 218 502 218 502 301.5 502 c 128,-1,0
 385 502 385 502 428.5 433.5 c 128,-1,1
372 394.5 m 128,-1,21
 340 442 340 442 298.5 442 c 128,-1,22
 257 442 257 442 219 419.5 c 128,-1,23
 181 397 181 397 157 359 c 1,24,-1
 157 99 l 1,25,26
 224 52 224 52 278 52 c 128,-1,27
 332 52 332 52 368 102 c 128,-1,28
 404 152 404 152 404 249.5 c 128,-1,20
 404 347 404 347 372 394.5 c 128,-1,21
EndSplineSet
EndChar

StartChar: q
Encoding: 113 113 21
Width: 523
Flags: HMW
HStem: -215 21G<387 403 403 427> -209 21G<433 433> -8 60<202 253> 442 60<214.5 268> 477 20G
VStem: 52 69<175.5 314.5 175.5 334.5> 367 66<-168 56 56 56 127 352 -209 377 -209 393 -209 393>
LayerCount: 2
Fore
SplineSet
367 -168 m 2,0,-1
 367 56 l 1,1,2
 303 -8 303 -8 221.5 -8 c 128,-1,3
 140 -8 140 -8 96 59.5 c 128,-1,4
 52 127 52 127 52 248.5 c 128,-1,5
 52 370 52 370 108.5 436 c 128,-1,6
 165 502 165 502 241.5 502 c 128,-1,7
 318 502 318 502 379 450 c 1,8,9
 394 483 394 483 429 497 c 1,10,11
 451 486 451 486 461 462 c 1,12,13
 433 434 433 434 433 352 c 2,14,-1
 433 -209 l 1,15,-1
 427 -215 l 1,16,-1
 403 -215 l 2,17,18
 381 -215 381 -215 374 -204 c 128,-1,19
 367 -193 367 -193 367 -168 c 2,0,-1
231 52 m 0,20,21
 309 52 309 52 367 127 c 1,22,-1
 367 393 l 1,23,24
 309 442 309 442 251.5 442 c 128,-1,25
 194 442 194 442 157.5 392.5 c 128,-1,26
 121 343 121 343 121 245 c 128,-1,27
 121 147 121 147 152.5 99.5 c 128,-1,28
 184 52 184 52 231 52 c 0,20,21
EndSplineSet
EndChar

StartChar: r
Encoding: 114 114 22
Width: 349
Flags: HMW
HStem: 429 68<262.5 297.5>
VStem: 100 67<0 334 0 357 0 381>
LayerCount: 2
Fore
SplineSet
64 459 m 1,0,1
 73 485 73 485 94 497 c 1,2,3
 148 476 148 476 162 408 c 1,4,5
 206 497 206 497 296 497 c 0,6,7
 316 497 316 497 341 493 c 1,8,9
 341 452 341 452 325 428 c 1,10,11
 315 429 315 429 292 429 c 0,12,13
 207 429 207 429 167 334 c 1,14,-1
 167 0 l 1,15,16
 153.5 -3 153.5 -3 132.75 -3 c 0,17,18
 112 -3 112 -3 100 0 c 1,19,-1
 100 357 l 2,20,21
 100 421 100 421 64 459 c 1,0,1
EndSplineSet
EndChar

StartChar: s
Encoding: 115 115 23
Width: 434
Flags: HMW
HStem: -12 54<182.5 241 182.5 259> 446 56<194.5 247.5>
VStem: 58 71<352.5 393 352.5 408.5> 318 70<123 140>
LayerCount: 2
Fore
SplineSet
38 38 m 1,0,1
 40 67 40 67 66 88 c 1,2,3
 148 42 148 42 202.5 42 c 0,4,5
 257 42 257 42 287 64.5 c 128,-1,6
 317 87 317 87 318 123 c 1,7,8
 318 178 318 178 243 206 c 2,9,-1
 186 228 l 2,10,11
 58 277 58 277 58 366 c 0,12,13
 58 428 58 428 106 465 c 128,-1,14
 154 502 154 502 228 502 c 0,15,16
 302 502 302 502 373 470 c 1,17,18
 373 437 373 437 352 416 c 1,19,20
 286 446 286 446 233.5 446 c 0,21,22
 181 446 181 446 155 425 c 128,-1,23
 129 404 129 404 129 374.5 c 0,24,25
 129 345 129 345 147.5 328 c 128,-1,26
 166 311 166 311 207 294 c 2,27,-1
 266 271 l 2,28,29
 388 223 388 223 388 128 c 0,30,31
 388 63 388 63 337.5 25.5 c 128,-1,32
 287 -12 287 -12 202 -12 c 0,33,34
 117 -12 117 -12 38 38 c 1,0,1
EndSplineSet
EndChar

StartChar: t
Encoding: 116 116 24
Width: 334
Flags: HMW
HStem: -4 57<213 215.5> 438 52
VStem: 107 67<82 94 94 439 490 598 598 613>
LayerCount: 2
Fore
SplineSet
301 491 m 1,0,1
 304 476 304 476 304 464 c 128,-1,2
 304 452 304 452 301 438 c 1,3,-1
 174 439 l 1,4,-1
 174 94 l 2,5,6
 174 53 174 53 213 53 c 2,7,-1
 290 53 l 1,8,9
 296 38 296 38 296 22 c 0,10,11
 296 6 296 6 295 2 c 1,12,13
 248 -4 248 -4 201.5 -4 c 0,14,15
 155 -4 155 -4 131 16.5 c 128,-1,16
 107 37 107 37 107 75 c 2,17,-1
 107 439 l 1,18,-1
 38 438 l 1,19,20
 35 451 35 451 35 463.5 c 0,21,22
 35 476 35 476 38 491 c 1,23,-1
 107 490 l 1,24,-1
 107 598 l 2,25,26
 107 623 107 623 114.5 634 c 128,-1,27
 122 645 122 645 144 645 c 2,28,-1
 168 645 l 1,29,-1
 174 639 l 1,30,-1
 174 489 l 1,31,-1
 301 491 l 1,0,1
EndSplineSet
EndChar

StartChar: u
Encoding: 117 117 25
Width: 546
Flags: HMW
HStem: -9 62<198 244.5> 470 20G<387 387 454 454> 476 20G<109 129.5>
VStem: 84 68<146 169 169 397 397 413> 387 67<132 138 138 490>
LayerCount: 2
Fore
SplineSet
84 146 m 2,0,-1
 84 397 l 2,1,2
 84 457 84 457 74 481 c 1,3,4
 89 496 89 496 117 496 c 0,5,6
 152 496 152 496 152 451 c 2,7,-1
 152 169 l 2,8,9
 152 106 152 106 168 79.5 c 128,-1,10
 184 53 184 53 225.5 53 c 0,11,12
 267 53 267 53 312 75.5 c 128,-1,13
 357 98 357 98 387 132 c 1,14,-1
 387 490 l 1,15,16
 400.5 493 400.5 493 421.25 493 c 0,17,18
 442 493 442 493 454 490 c 1,19,-1
 454 138 l 2,20,21
 454 56 454 56 482 28 c 1,22,23
 472 3 472 3 450 -7 c 1,24,25
 401 12 401 12 391 67 c 1,26,27
 357 33 357 33 308.5 12 c 128,-1,28
 260 -9 260 -9 212 -9 c 0,29,30
 145 -9 145 -9 114.5 34 c 128,-1,31
 84 77 84 77 84 146 c 2,0,-1
EndSplineSet
EndChar

StartChar: v
Encoding: 118 118 26
Width: 439
Flags: HMW
HStem: -5 65<201.5 228> 477 20G<49 62.5> 486 8
VStem: 12 416<485 486>
LayerCount: 2
Fore
SplineSet
228 60 m 1,0,-1
 365 491 l 1,1,2
 376 494 376 494 392 494 c 0,3,4
 408 494 408 494 426 489 c 1,5,-1
 428 486 l 1,6,7
 350 242 350 242 263 0 c 1,8,9
 244 -5 244 -5 218.5 -5 c 0,10,11
 193 -5 193 -5 183.5 3 c 128,-1,12
 174 11 174 11 164 42 c 2,13,-1
 12 485 l 1,14,15
 36 497 36 497 58 497 c 0,16,17
 80 497 80 497 88 472 c 2,18,-1
 169 230 l 2,19,20
 208 112 208 112 219 68 c 0,21,22
 221 60 221 60 228 60 c 1,0,-1
EndSplineSet
EndChar

StartChar: w
Encoding: 119 119 27
Width: 700
Flags: HMW
HStem: -4 55<182 208 497.5 500> 422 68<311 355 311 351> 477 20G<71.5 83> 486 8
VStem: 34 637<486 486>
LayerCount: 2
Fore
SplineSet
143 42 m 2,0,-1
 34 486 l 1,1,2
 57 497 57 497 79.5 497 c 128,-1,3
 102 497 102 497 108 470 c 2,4,-1
 162 232 l 2,5,6
 170 197 170 197 183.5 134.5 c 128,-1,7
 197 72 197 72 199.5 61.5 c 128,-1,8
 202 51 202 51 208 51 c 1,9,-1
 311 490 l 1,10,11
 326 493 326 493 354 493 c 128,-1,12
 382 493 382 493 395 490 c 1,13,-1
 492 60 l 2,14,15
 494 51 494 51 500 51 c 1,16,-1
 604 491 l 1,17,18
 616 494 616 494 636 494 c 128,-1,19
 656 494 656 494 669 489 c 1,20,-1
 671 486 l 1,21,-1
 546 -1 l 1,22,23
 526 -4 526 -4 498 -4 c 128,-1,24
 470 -4 470 -4 457 5 c 128,-1,25
 444 14 444 14 438 42 c 2,26,-1
 402 201 l 1,27,-1
 383.5 289.5 l 2,28,29
 365 378 365 378 355 422 c 1,30,-1
 351 422 l 1,31,-1
 300 201 l 1,32,-1
 251 0 l 1,33,34
 230 -4 230 -4 192 -4 c 128,-1,35
 154 -4 154 -4 143 42 c 2,0,-1
EndSplineSet
EndChar

StartChar: x
Encoding: 120 120 28
Width: 446
Flags: HMW
HStem: -10 20G<423 423> 474 20G<360 372> 478 20G<76.5 92.5>
VStem: 23 400<8 10>
LayerCount: 2
Fore
SplineSet
335 490 m 1,0,1
 345 494 345 494 365.5 494 c 0,2,3
 386 494 386 494 398 488 c 1,4,-1
 401 482 l 1,5,-1
 260 260 l 1,6,-1
 423 10 l 1,7,8
 395 -7 395 -7 375.5 -7 c 0,9,10
 356 -7 356 -7 341 14 c 1,11,-1
 218 203 l 1,12,-1
 90 -1 l 1,13,14
 80 -5 80 -5 59 -5 c 128,-1,15
 38 -5 38 -5 26 2 c 1,16,-1
 23 8 l 1,17,-1
 183 257 l 1,18,-1
 37 481 l 1,19,20
 63 498 63 498 83.5 498 c 0,21,22
 104 498 104 498 119 477 c 1,23,-1
 226 312 l 1,24,-1
 335 490 l 1,0,1
EndSplineSet
EndChar

StartChar: y
Encoding: 121 121 29
Width: 448
Flags: HMW
HStem: -218 52<76.5 126.5 76.5 145> -4 49<225 240> 477 20G<59 72> 486 8
VStem: 8 424
LayerCount: 2
Fore
SplineSet
432 486 m 1,0,-1
 294 17 l 2,1,2
 256 -113 256 -113 213 -165.5 c 128,-1,3
 170 -218 170 -218 86 -218 c 0,4,5
 45 -218 45 -218 8 -205 c 1,6,7
 7.8 -202.3 7.8 -202.3 7.8 -199.65 c 0,8,9
 7.8 -175.8 7.8 -175.8 24 -156 c 1,10,11
 50 -166 50 -166 87 -166 c 0,12,13
 142 -166 142 -166 170 -129.5 c 128,-1,14
 198 -93 198 -93 222 -14 c 2,15,-1
 225 -4 l 1,16,17
 200 -2 200 -2 187.5 7.5 c 128,-1,18
 175 17 175 17 166 44 c 2,19,-1
 24 485 l 1,20,21
 51 497 51 497 64 497 c 0,22,23
 91 497 91 497 101 464 c 2,24,-1
 182 209 l 2,25,26
 211 116 211 116 230 52 c 0,27,28
 232 45 232 45 240 45 c 1,29,-1
 364 491 l 1,30,31
 379 494 379 494 397 494 c 128,-1,32
 415 494 415 494 430 489 c 1,33,-1
 432 486 l 1,0,-1
EndSplineSet
EndChar

StartChar: z
Encoding: 122 122 30
Width: 444
Flags: HMW
HStem: 0 57<119 119 223 279 279 307> 434 56<62 184 60 387>
VStem: 54 65<0 57 57 73> 325 62<418 436>
LayerCount: 2
Fore
SplineSet
54 73 m 2,0,-1
 247 338 l 1,1,2
 300.733333333 408.266666667 300.733333333 408.266666667 325 436 c 1,3,-1
 322 439 l 1,4,5
 284 434 284 434 184 434 c 2,6,-1
 60 434 l 1,7,8
 58 442 58 442 58 458 c 128,-1,9
 58 474 58 474 62 490 c 1,10,-1
 387 490 l 1,11,12
 399 458 399 458 399 446 c 128,-1,13
 399 434 399 434 387 418 c 2,14,-1
 198 159 l 2,15,16
 152.181818182 96.8181818182 152.181818182 96.8181818182 119 57 c 1,17,-1
 122 54 l 1,18,19
 175 57 175 57 223 57 c 2,20,-1
 279 57 l 2,21,22
 366 57 366 57 397 69 c 1,23,24
 403 54 403 54 403 35 c 0,25,26
 403 0 403 0 350 0 c 2,27,-1
 54 0 l 1,28,29
 42 33 42 33 42 44.5 c 128,-1,30
 42 56 42 56 54 73 c 2,0,-1
EndSplineSet
EndChar

StartChar: A
Encoding: 65 65 31
Width: 593
Flags: HMW
HStem: -4 8 180 63<223 352 234 352 352 354.5 234 360> 605 78<256 295 256 290>
VStem: 27 539<4 4>
LayerCount: 2
Fore
SplineSet
432 181 m 1,0,-1
 360 180 l 1,1,-1
 226 180 l 1,2,-1
 155 181 l 1,3,-1
 95 -1 l 1,4,5
 82 -4 82 -4 64.5 -4 c 128,-1,6
 47 -4 47 -4 29 1 c 1,7,-1
 27 4 l 1,8,-1
 256 683 l 1,9,10
 272 686 272 686 298 686 c 128,-1,11
 324 686 324 686 336 683 c 1,12,-1
 566 4 l 1,13,14
 550 -6 550 -6 528.5 -6 c 128,-1,15
 507 -6 507 -6 498 1.5 c 128,-1,16
 489 9 489 9 482 30 c 2,17,-1
 432 181 l 1,0,-1
175 242 m 1,18,-1
 234 243 l 1,19,-1
 352 243 l 2,20,21
 353 243 353 243 378 242.5 c 128,-1,22
 403 242 403 242 412 242 c 1,23,-1
 346 441 l 2,24,25
 314 536 314 536 295 605 c 1,26,-1
 290 605 l 1,27,28
 274 544 274 544 257 491 c 2,29,-1
 175 242 l 1,18,-1
EndSplineSet
EndChar

StartChar: B
Encoding: 66 66 32
Width: 599
Flags: HMW
HStem: -3 60<293 380 293 397.5> 328 62<171 298 298 307 171 298> 626 60<284 357.5>
VStem: 100 71<56 328 56 390 390 627> 433 74<481.5 535.5> 466 74<165 220>
LayerCount: 2
Fore
SplineSet
310 -3 m 1,0,-1
 106 0 l 1,1,-1
 100 6 l 1,2,-1
 100 677 l 1,3,-1
 106 683 l 1,4,-1
 299 686 l 1,5,6
 507 686 507 686 507 506 c 0,7,8
 507 457 507 457 480.5 418 c 128,-1,9
 454 379 454 379 409 363 c 1,10,11
 463 349 463 349 501.5 301 c 128,-1,12
 540 253 540 253 540 188 c 0,13,14
 540 114.36 540 114.36 491 58.5 c 0,15,16
 437.052631579 -3 437.052631579 -3 310 -3 c 1,0,-1
171 56 m 1,17,-1
 317 57 l 2,18,19
 434.744186047 57 434.744186047 57 460 147.5 c 0,20,21
 466 169 466 169 466 193 c 0,22,23
 466 244 466 244 429 286 c 128,-1,24
 392 328 392 328 307 328 c 2,25,-1
 171 328 l 1,26,-1
 171 56 l 1,17,-1
171 627 m 1,27,-1
 171 390 l 1,28,-1
 298 390 l 2,29,30
 374 390 374 390 403.5 424.5 c 128,-1,31
 433 459 433 459 433 508 c 0,32,33
 433 626 433 626 301 626 c 0,34,35
 208 626 208 626 171 627 c 1,27,-1
EndSplineSet
EndChar

StartChar: C
Encoding: 67 67 33
Width: 600
Flags: HMW
HStem: -12 62<260.5 346.5 260.5 356.5> 635 60<260.5 380>
VStem: 58 75<247.5 435.5 247.5 461.5>
LayerCount: 2
Fore
SplineSet
479 471 m 1,0,1
 479.096385542 474.036144578 479.096385542 474.036144578 479.096385542 477.043257367 c 0,2,3
 479.096385542 536.43373494 479.096385542 536.43373494 440.548192771 585.71686747 c 128,-1,4
 402 635 402 635 316 635 c 128,-1,5
 230 635 230 635 181.5 559 c 128,-1,6
 133 483 133 483 133 343 c 128,-1,7
 133 203 133 203 182.5 126.5 c 128,-1,8
 232 50 232 50 321.5 50 c 128,-1,9
 411 50 411 50 502 130 c 1,10,11
 531 112 531 112 541 84 c 1,12,13
 499 41 499 41 438 14.5 c 128,-1,14
 377 -12 377 -12 299.5 -12 c 128,-1,15
 222 -12 222 -12 164 39 c 0,16,17
 58 132.206896552 58 132.206896552 58 338 c 0,18,19
 58 514 58 514 132.5 604.5 c 128,-1,20
 207 695 207 695 315 695 c 128,-1,21
 423 695 423 695 486.5 637.5 c 128,-1,22
 550 580 550 580 550 508 c 0,23,24
 550 466 550 466 511 466 c 0,25,26
 497 466 497 466 479 471 c 1,0,1
EndSplineSet
EndChar

StartChar: D
Encoding: 68 68 34
Width: 635
Flags: HMW
HStem: -4 60<281 331> 626 60<281 331 267 390>
VStem: 100 71<57 627 57 677 57 677> 501 74<282.5 399 282.5 406.5>
LayerCount: 2
Fore
SplineSet
554 512.5 m 128,-1,1
 575 441 575 441 575 340.5 c 128,-1,2
 575 240 575 240 554 169 c 128,-1,3
 533 98 533 98 473 47 c 0,4,5
 444 22 444 22 396 9 c 128,-1,6
 348 -4 348 -4 314 -4 c 128,-1,7
 280 -4 280 -4 106 0 c 1,8,-1
 100 6 l 1,9,-1
 100 677 l 1,10,-1
 106 683 l 1,11,12
 193 686 193 686 306 686 c 0,13,14
 348 686 348 686 396 673 c 128,-1,15
 444 660 444 660 473 635 c 0,16,0
 533 584 533 584 554 512.5 c 128,-1,1
171 57 m 1,17,-1
 305 56 l 2,18,19
 354 56 354 56 390.5 73.5 c 128,-1,20
 427 91 427 91 447.5 118 c 128,-1,21
 468 145 468 145 480.5 185 c 128,-1,22
 493 225 493 225 497 261 c 128,-1,23
 501 297 501 297 501 341 c 128,-1,24
 501 385 501 385 497 421.5 c 128,-1,25
 493 458 493 458 480.5 497.5 c 128,-1,26
 468 537 468 537 447.5 564 c 128,-1,27
 427 591 427 591 390.5 608.5 c 128,-1,28
 354 626 354 626 305 626 c 2,29,-1
 171 627 l 1,30,-1
 171 57 l 1,17,-1
EndSplineSet
EndChar

StartChar: E
Encoding: 69 69 35
Width: 562
Flags: HMW
HStem: 0 62<229 458> 316 60<220 439 228 439> 622 61<168 228 228 487>
VStem: 100 69<88.5 95 95 317 375 561>
LayerCount: 2
Fore
SplineSet
169 95 m 1,0,-1
 168 60 l 1,1,2
 202 62 202 62 229 62 c 2,3,-1
 505 62 l 1,4,5
 505 42 505 42 503 32 c 0,6,7
 499 0 499 0 458 0 c 2,8,-1
 141 0 l 2,9,10
 122 0 122 0 111 12.5 c 128,-1,11
 100 25 100 25 100 47 c 2,12,-1
 100 677 l 1,13,-1
 106 683 l 1,14,-1
 490 683 l 1,15,16
 492 672 492 672 492 654 c 128,-1,17
 492 636 492 636 487 622 c 1,18,19
 327.5 622 327.5 622 168 622 c 1,20,21
 169 561 l 1,22,-1
 169 375 l 1,23,-1
 228 376 l 1,24,-1
 439 376 l 1,25,26
 442 361 442 361 442 346 c 128,-1,27
 442 331 442 331 439 316 c 1,28,-1
 228 316 l 2,29,30
 190 316 190 316 169 317 c 1,31,-1
 169 95 l 1,0,-1
EndSplineSet
EndChar

StartChar: F
Encoding: 70 70 36
Width: 513
Flags: HMW
HStem: 316 61<221 434 229 434> 621 62<259 282 282 443>
VStem: 100 71<0 317 376 479>
LayerCount: 2
Fore
SplineSet
171 376 m 1,0,-1
 229 377 l 1,1,-1
 434 377 l 1,2,3
 437 361 437 361 437 346.5 c 128,-1,4
 437 332 437 332 434 316 c 1,5,-1
 229 316 l 2,6,7
 192 316 192 316 171 317 c 1,8,-1
 171 0 l 1,9,10
 156 -3 156 -3 135 -3 c 128,-1,11
 114 -3 114 -3 100 0 c 1,12,-1
 100 677 l 1,13,-1
 106 683 l 1,14,-1
 482 683 l 1,15,16
 487 668 487 668 487 654 c 0,17,18
 487 621 487 621 443 621 c 2,19,-1
 282 621 l 2,20,21
 199 621 199 621 170 623 c 1,22,-1
 171 479 l 1,23,-1
 171 376 l 1,0,-1
EndSplineSet
EndChar

StartChar: G
Encoding: 71 71 37
Width: 636
Flags: HMW
HStem: -12 63<272.5 374.5> 276 64<372 383 383 496> 631 64<283 372.5>
VStem: 58 75<253 447 242 467.5> 495 69<75 216 216 228>
LayerCount: 2
Fore
SplineSet
356 340 m 1,0,-1
 508 340 l 2,1,2
 539 340 539 340 551.5 329 c 128,-1,3
 564 318 564 318 564 291 c 2,4,-1
 564 32 l 1,5,6
 457 -12 457 -12 329 -12 c 0,7,8
 254 -12 254 -12 199.5 18 c 128,-1,9
 145 48 145 48 115 100 c 0,10,11
 58 198.8 58 198.8 58 337 c 0,12,13
 58 431 58 431 82.5 502.5 c 128,-1,14
 107 574 107 574 148 614.5 c 0,15,16
 229.49382716 695 229.49382716 695 341 695 c 0,17,18
 402 695 402 695 462.5 675 c 128,-1,19
 523 655 523 655 563 620 c 1,20,21
 555 585 555 585 525 565 c 1,22,23
 442 631 442 631 335 631 c 0,24,25
 247 631 247 631 190 561 c 128,-1,26
 133 491 133 491 133 336 c 0,27,28
 133 51 133 51 342 51 c 0,29,30
 429 51 429 51 495 75 c 1,31,-1
 495 216 l 2,32,33
 495 260 495 260 496 276 c 1,34,-1
 383 276 l 2,35,36
 350 276 350 276 350 310 c 0,37,38
 350 322 350 322 356 340 c 1,0,-1
EndSplineSet
EndChar

StartChar: H
Encoding: 72 72 38
Width: 667
Flags: HMW
HStem: 322 62<228 436 231 436>
VStem: 100 71<0 249 443 457 457 683> 496 70<0 249 249 263 457 683 0 683>
LayerCount: 2
Fore
SplineSet
497 383 m 1,0,-1
 496 457 l 1,1,-1
 496 683 l 1,2,3
 508 686 508 686 530 686 c 128,-1,4
 552 686 552 686 566 683 c 1,5,-1
 566 0 l 1,6,7
 552 -3 552 -3 530 -3 c 128,-1,8
 508 -3 508 -3 496 0 c 1,9,-1
 496 249 l 1,10,-1
 497 323 l 1,11,-1
 436 322 l 1,12,-1
 231 322 l 1,13,-1
 170 323 l 1,14,-1
 171 249 l 1,15,-1
 171 0 l 1,16,17
 156 -3 156 -3 135 -3 c 128,-1,18
 114 -3 114 -3 100 0 c 1,19,-1
 100 683 l 1,20,21
 113 686 113 686 134.5 686 c 128,-1,22
 156 686 156 686 171 683 c 1,23,-1
 171 457 l 1,24,25
 170 383 l 1,26,-1
 231 384 l 1,27,-1
 436 384 l 1,28,-1
 497 383 l 1,0,-1
EndSplineSet
EndChar

StartChar: I
Encoding: 73 73 39
Width: 279
Flags: HMW
HStem: -3 689<132.5 146>
VStem: 104 71<0 683 0 683>
LayerCount: 2
Fore
SplineSet
104 0 m 1,0,-1
 104 683 l 1,1,2
 117 686 117 686 138.5 686 c 0,3,4
 160 686 160 686 175 683 c 1,5,-1
 175 0 l 1,6,7
 160 -3 160 -3 139 -3 c 128,-1,8
 118 -3 118 -3 104 0 c 1,0,-1
EndSplineSet
EndChar

StartChar: J
Encoding: 74 74 40
Width: 433
Flags: HMW
HStem: -10 61<138 202 138 242.5>
VStem: 277 70<225 240 240 683>
LayerCount: 2
Fore
SplineSet
40 85 m 1,0,1
 95 51 95 51 159.5 51 c 128,-1,2
 224 51 224 51 250.5 90.5 c 128,-1,3
 277 130 277 130 277 225 c 2,4,-1
 277 683 l 1,5,6
 290 686 290 686 311.5 686 c 128,-1,7
 333 686 333 686 347 683 c 1,8,-1
 347 240 l 2,9,10
 347 181 347 181 340.5 141 c 128,-1,11
 334 101 334 101 315.5 64 c 0,12,13
 278.5 -10 278.5 -10 161 -10 c 0,14,15
 77 -10 77 -10 10 31 c 1,16,17
 17 62 17 62 40 85 c 1,0,1
EndSplineSet
EndChar

StartChar: K
Encoding: 75 75 41
Width: 580
Flags: HMW
HStem: 321 62<249 255.5 247 288.5> 675 10
VStem: 100 71<0 319 0 381 381 683>
LayerCount: 2
Fore
SplineSet
557 20 m 1,0,1
 541 -5 541 -5 513.5 -5 c 0,2,3
 486 -5 486 -5 476 5.5 c 128,-1,4
 466 16 466 16 456 42 c 2,5,-1
 390 208 l 2,6,7
 365 271 365 271 335 296 c 128,-1,8
 305 321 305 321 260 321 c 0,9,10
 215 321 215 321 171 319 c 1,11,-1
 171 0 l 1,12,13
 156 -3 156 -3 135 -3 c 128,-1,14
 114 -3 114 -3 100 0 c 1,15,-1
 100 683 l 1,16,17
 113 686 113 686 134.5 686 c 0,18,19
 156 686 156 686 171 683 c 1,20,-1
 171 381 l 1,21,-1
 247 383 l 2,22,23
 266 383 266 383 281 407 c 2,24,-1
 431 649 l 2,25,26
 443 669 443 669 453 677 c 128,-1,27
 463 685 463 685 477.5 685 c 0,28,29
 492 685 492 685 520 683 c 1,30,-1
 526 675 l 1,31,-1
 354 400 l 2,32,33
 344 384 344 384 326 366 c 1,34,35
 374 359 374 359 401 329.5 c 128,-1,36
 428 300 428 300 454 237 c 2,37,-1
 517 78 l 2,38,39
 534 37 534 37 557 20 c 1,0,1
EndSplineSet
EndChar

StartChar: L
Encoding: 76 76 42
Width: 505
Flags: HMW
HStem: 0 63<257 426>
VStem: 100 71<60 640 60 680 60 680>
LayerCount: 2
Fore
SplineSet
257 63 m 2,0,-1
 473 63 l 1,1,2
 473 42 473 42 471 32 c 0,3,4
 465 0 465 0 426 0 c 2,5,-1
 142 0 l 2,6,7
 124 0 124 0 112 12.5 c 128,-1,8
 100 25 100 25 100 48 c 2,9,-1
 100 680 l 1,10,-1
 106 686 l 1,11,-1
 135 686 l 2,12,13
 157 686 157 686 164 675.5 c 128,-1,14
 171 665 171 665 171 640 c 2,15,-1
 171 60 l 1,16,17
 216 63 216 63 257 63 c 2,0,-1
EndSplineSet
EndChar

StartChar: M
Encoding: 77 77 43
Width: 790
Flags: HMW
HStem: -19 20G<87 87 704 704> 107 74<360 398 393 430> 609 74<140 197 140 192>
VStem: 87 617<1 1>
LayerCount: 2
Fore
SplineSet
87 1 m 1,0,-1
 140 683 l 1,1,2
 157 686 157 686 186.5 686 c 0,3,4
 216 686 216 686 233 683 c 1,5,-1
 352 324 l 2,6,7
 385 227 385 227 393 181 c 1,8,-1
 398 181 l 1,9,10
 406 227 406 227 439 324 c 2,11,-1
 558 683 l 1,12,13
 577 686 577 686 604 686 c 0,14,15
 631 686 631 686 651 683 c 1,16,-1
 704 1 l 1,17,18
 687 -4 687 -4 669.5 -4 c 0,19,20
 652 -4 652 -4 635 -1 c 1,21,-1
 606 423 l 2,22,23
 603 465 603 465 598 609 c 1,24,-1
 593 609 l 1,25,-1
 430 107 l 1,26,27
 414 104 414 104 394.5 104 c 0,28,29
 375 104 375 104 360 107 c 1,30,-1
 197 609 l 1,31,-1
 192 609 l 1,32,33
 191 584 191 584 188.5 515.5 c 128,-1,34
 186 447 186 447 184 423 c 2,35,-1
 155 -1 l 1,36,37
 138 -4 138 -4 119 -4 c 0,38,39
 100 -4 100 -4 87 1 c 1,0,-1
EndSplineSet
EndChar

StartChar: N
Encoding: 78 78 44
Width: 670
Flags: HMW
HStem: 0 82<482 509 506 569> 598 85<100 163 100 160>
VStem: 100 66<0 388 0 683> 504 65<305 640 640 655>
LayerCount: 2
Fore
SplineSet
563 686 m 1,0,-1
 569 681 l 1,1,-1
 569 0 l 1,2,3
 551 -3 551 -3 524.5 -3 c 0,4,5
 498 -3 498 -3 482 0 c 1,6,-1
 232 461 l 2,7,8
 202 516 202 516 163 598 c 1,9,-1
 160 598 l 1,10,11
 166 418 166 418 166 388 c 2,12,-1
 166 0 l 1,13,14
 146 -3 146 -3 132 -3 c 0,15,16
 118 -3 118 -3 100 0 c 1,17,-1
 100 683 l 1,18,19
 118 686 118 686 143.5 686 c 0,20,21
 169 686 169 686 187 683 c 1,22,-1
 436 222 l 2,23,24
 441 213 441 213 506 83 c 1,25,-1
 506 82 l 1,26,-1
 509 82 l 1,27,28
 504 202 504 202 504 305 c 2,29,-1
 504 640 l 2,30,31
 504 665 504 665 511 675.5 c 128,-1,32
 518 686 518 686 540 686 c 2,33,-1
 563 686 l 1,0,-1
EndSplineSet
EndChar

StartChar: O
Encoding: 79 79 45
Width: 652
Flags: HMW
HStem: -12 60<289 363> 635 60<289 363 289 404>
VStem: 58 75<286 397> 518 75<286 397 286 407.5>
LayerCount: 2
Fore
SplineSet
133 342 m 128,-1,1
 133 288 133 288 141.5 240 c 128,-1,2
 150 192 150 192 170.5 146.5 c 128,-1,3
 191 101 191 101 230.5 74.5 c 128,-1,4
 270 48 270 48 326 48 c 128,-1,5
 382 48 382 48 421.5 74.5 c 128,-1,6
 461 101 461 101 481 146.5 c 128,-1,7
 501 192 501 192 509.5 240 c 128,-1,8
 518 288 518 288 518 342 c 128,-1,9
 518 396 518 396 509.5 443.5 c 128,-1,10
 501 491 501 491 481 536.5 c 128,-1,11
 461 582 461 582 421.5 608.5 c 128,-1,12
 382 635 382 635 326 635 c 128,-1,13
 270 635 270 635 230.5 608.5 c 128,-1,14
 191 582 191 582 170.5 537 c 128,-1,15
 150 492 150 492 141.5 444 c 128,-1,0
 133 396 133 396 133 342 c 128,-1,1
58 342 m 0,16,17
 58 431 58 431 84 510 c 128,-1,18
 110 589 110 589 164 637 c 0,19,20
 229 695 229 695 326.5 695 c 0,21,22
 424 695 424 695 487 637 c 1,23,24
 541 589 541 589 567 510 c 128,-1,25
 593 431 593 431 593 342 c 0,26,27
 593 141 593 141 487 46 c 1,28,29
 424 -12 424 -12 326.5 -12 c 0,30,31
 229 -12 229 -12 164 46 c 0,32,33
 58 141 58 141 58 342 c 0,16,17
EndSplineSet
EndChar

StartChar: P
Encoding: 80 80 46
Width: 553
Flags: HMW
HStem: 260 60<284.5 295> 626 60<281 354>
VStem: 100 71<0 260 0 319 319 627> 438 75<439 508.5>
LayerCount: 2
Fore
SplineSet
106 683 m 1,0,-1
 295 686 l 1,1,2
 393 686 393 686 453 631 c 128,-1,3
 513 576 513 576 513 473.5 c 128,-1,4
 513 371 513 371 453.5 315.5 c 128,-1,5
 394 260 394 260 295 260 c 2,6,-1
 171 260 l 1,7,-1
 171 0 l 1,8,9
 156 -3 156 -3 135 -3 c 128,-1,10
 114 -3 114 -3 100 0 c 1,11,-1
 100 677 l 1,12,-1
 106 683 l 1,0,-1
171 627 m 1,13,-1
 171 319 l 1,14,15
 213 320 213 320 293.5 320 c 128,-1,16
 374 320 374 320 406 365.5 c 128,-1,17
 438 411 438 411 438 474 c 128,-1,18
 438 537 438 537 406 581.5 c 128,-1,19
 374 626 374 626 291 626 c 128,-1,20
 208 626 208 626 171 627 c 1,13,-1
EndSplineSet
EndChar

StartChar: Q
Encoding: 81 81 47
Width: 639
Flags: HMW
HStem: -117 53 -12 63<289 328.5> 635 60<283 356.5 283 397.5>
VStem: 58 75<287.5 395.5> 506 75<287.5 395.5 287.5 408.5>
LayerCount: 2
Fore
SplineSet
464 -98 m 2,0,-1
 341 -11 l 1,1,2
 336 -12 336 -12 326 -12 c 0,3,4
 221 -12 221 -12 159 44 c 0,5,6
 58 134 58 134 58 341.5 c 0,7,8
 58 549 58 549 159 639 c 0,9,10
 221 695 221 695 319.5 695 c 0,11,12
 418 695 418 695 480 639 c 0,13,14
 581 549 581 549 581 343 c 0,15,16
 581 137 581 137 482 48 c 1,17,18
 451 22 451 22 425 13 c 1,19,-1
 447 -2 l 1,20,21
 530 -63 530 -63 574 -64 c 1,22,23
 572 -91 572 -91 556.5 -104 c 128,-1,24
 541 -117 541 -117 516.5 -117 c 0,25,26
 492 -117 492 -117 464 -98 c 2,0,-1
133 343 m 0,27,28
 133 51 133 51 319.5 51 c 0,29,30
 506 51 506 51 506 343 c 0,31,32
 506 635 506 635 319.5 635 c 0,33,34
 133 635 133 635 133 343 c 0,27,28
EndSplineSet
EndChar

StartChar: R
Encoding: 82 82 48
Width: 591
Flags: HMW
HStem: 291 62<171 362.5> 626 60<289 362.5>
VStem: 100 71<0 291 0 351 351 627> 447 74<457 522.5>
LayerCount: 2
Fore
SplineSet
106 683 m 1,0,-1
 306 686 l 1,1,2
 409 686 409 686 465 633.5 c 128,-1,3
 521 581 521 581 521 489 c 0,4,5
 521 421 521 421 486 373 c 128,-1,6
 451 325 451 325 389 307 c 1,7,8
 430 293 430 293 456 227 c 2,9,-1
 509 89 l 2,10,11
 531 33 531 33 551 18 c 1,12,13
 537 -6 537 -6 502 -6 c 0,14,15
 482 -6 482 -6 471.5 5 c 128,-1,16
 461 16 461 16 451 41 c 2,17,-1
 391 197 l 2,18,19
 373 244 373 244 349.5 267.5 c 128,-1,20
 326 291 326 291 279 291 c 2,21,-1
 171 291 l 1,22,-1
 171 0 l 1,23,24
 156 -3 156 -3 135 -3 c 128,-1,25
 114 -3 114 -3 100 0 c 1,26,-1
 100 677 l 1,27,-1
 106 683 l 1,0,-1
171 627 m 1,28,-1
 171 351 l 1,29,30
 257 353 257 353 306 353 c 0,31,32
 383 353 383 353 415 392.5 c 128,-1,33
 447 432 447 432 447 490 c 128,-1,34
 447 548 447 548 415 587 c 128,-1,35
 383 626 383 626 295.5 626 c 128,-1,36
 208 626 208 626 171 627 c 1,28,-1
EndSplineSet
EndChar

StartChar: S
Encoding: 83 83 49
Width: 555
Flags: HMW
HStem: -12 63<240.5 322 240.5 350.5> 627 20G 634 61<246.5 314>
VStem: 72 71<489 552 489 560.5> 432 73
LayerCount: 2
Fore
SplineSet
40 63 m 1,0,1
 43 97 43 97 74 120 c 1,2,3
 173 51 173 51 274 51 c 0,4,5
 346 51 346 51 389.004464286 81.356092437 c 0,6,7
 432.008928571 111.712184874 432.008928571 111.712184874 432.008928571 165.461575255 c 0,8,9
 432.008928571 246.428571429 432.008928571 246.428571429 322 294 c 2,10,-1
 205 345 l 2,11,12
 72 403 72 403 72 511 c 0,13,14
 72 588 72 588 130.5 641.5 c 128,-1,15
 189 695 189 695 285.5 695 c 0,16,17
 382 695 382 695 482 647 c 1,18,19
 484 612 484 612 454 588 c 1,20,21
 364 634 364 634 294.5 634 c 0,22,23
 225 634 225 634 184 601.5 c 128,-1,24
 143 569 143 569 143 517 c 0,25,26
 143 451 143 451 243 408 c 2,27,-1
 356 359 l 2,28,29
 505 295 505 295 505 180 c 0,30,31
 505 93 505 93 445.5 40.5 c 128,-1,32
 386 -12 386 -12 264.5 -12 c 0,33,34
 143 -12 143 -12 40 63 c 1,0,1
EndSplineSet
EndChar

StartChar: T
Encoding: 84 84 50
Width: 481
Flags: HMW
HStem: 622 61<22 152 22 458 324 330 330 420>
VStem: 205 71<0 623 0 623>
LayerCount: 2
Fore
SplineSet
330 622 m 1,0,-1
 276 623 l 1,1,-1
 276 0 l 1,2,3
 261 -3 261 -3 240.5 -3 c 128,-1,4
 220 -3 220 -3 205 0 c 1,5,-1
 205 623 l 1,6,-1
 152 622 l 1,7,-1
 22 622 l 1,8,9
 19 637 19 637 19 651.75 c 128,-1,10
 19 666.5 19 666.5 22 683 c 1,11,-1
 458 683 l 1,12,13
 463 668 463 668 463 654 c 0,14,15
 463 622 463 622 420 622 c 2,16,-1
 330 622 l 1,0,-1
EndSplineSet
EndChar

StartChar: U
Encoding: 85 85 51
Width: 666
Flags: HMW
HStem: -12 59<280 386 280 402>
VStem: 92 71<232 233 233 640> 503 70<233 683>
LayerCount: 2
Fore
SplineSet
573 683 m 1,0,-1
 573 232 l 2,1,2
 573 113 573 113 507 50.5 c 128,-1,3
 441 -12 441 -12 332.5 -12 c 0,4,5
 224 -12 224 -12 158 51 c 128,-1,6
 92 114 92 114 92 232 c 2,7,-1
 92 680 l 1,8,-1
 98 686 l 1,9,-1
 127 686 l 2,10,11
 149 686 149 686 156 675.5 c 128,-1,12
 163 665 163 665 163 640 c 2,13,-1
 163 233 l 2,14,15
 163 143 163 143 207.5 95 c 128,-1,16
 252 47 252 47 333 47 c 128,-1,17
 414 47 414 47 458.5 95 c 128,-1,18
 503 143 503 143 503 233 c 2,19,-1
 503 683 l 1,20,21
 517 686 517 686 538.5 686 c 0,22,23
 560 686 560 686 573 683 c 1,0,-1
EndSplineSet
EndChar

StartChar: V
Encoding: 86 86 52
Width: 553
Flags: HMW
HStem: -4 74<262.5 289>
VStem: 28 503<676 677>
LayerCount: 2
Fore
SplineSet
289 70 m 1,0,-1
 465 683 l 1,1,2
 477 686 477 686 494.5 686 c 0,3,4
 512 686 512 686 528 682 c 1,5,-1
 531 676 l 1,6,-1
 326 -1 l 1,7,8
 297 -4 297 -4 275.5 -4 c 0,9,10
 254 -4 254 -4 242.5 3 c 128,-1,11
 231 10 231 10 224 33 c 2,12,-1
 28 677 l 1,13,14
 52 689 52 689 72 689 c 0,15,16
 102 689 102 689 112 655 c 2,17,-1
 233 244 l 2,18,19
 243 210 243 210 281 78 c 0,20,21
 283 70 283 70 289 70 c 1,0,-1
EndSplineSet
EndChar

StartChar: W
Encoding: 87 87 53
Width: 815
Flags: HMW
HStem: -4 62<210 238> 593 75<364 413 364 407> 677 9
VStem: 40 741<677 680>
LayerCount: 2
Fore
SplineSet
171 36 m 2,0,-1
 40 680 l 1,1,2
 59 689 59 689 82 689 c 0,3,4
 111 689 111 689 118 652 c 2,5,-1
 194 259 l 2,6,7
 226 89 226 89 228.5 75 c 128,-1,8
 231 61 231 61 232.5 59.5 c 128,-1,9
 234 58 234 58 238 58 c 1,10,-1
 364 668 l 1,11,12
 385 671 385 671 414 671 c 128,-1,13
 443 671 443 671 457 668 c 1,14,-1
 573 68 l 2,15,16
 575 58 575 58 581 58 c 1,17,18
 594 135 594 135 620 259 c 2,19,-1
 711 683 l 1,20,21
 723 686 723 686 743.5 686 c 128,-1,22
 764 686 764 686 777 682 c 1,23,-1
 781 677 l 1,24,-1
 631 1 l 1,25,26
 607 -4 607 -4 566.5 -4 c 128,-1,27
 526 -4 526 -4 519 34 c 2,28,-1
 413 593 l 1,29,-1
 407 593 l 1,30,31
 373 415 373 415 356 337 c 2,32,-1
 284 0 l 1,33,34
 260 -4 260 -4 219.5 -4 c 128,-1,35
 179 -4 179 -4 171 36 c 2,0,-1
EndSplineSet
EndChar

StartChar: X
Encoding: 88 88 54
Width: 568
Flags: HMW
HStem: -6 695<94.5 503.5>
VStem: 24 520<9 11>
LayerCount: 2
Fore
SplineSet
453 683 m 1,0,1
 463 687 463 687 485 687 c 0,2,3
 507 687 507 687 519 680 c 1,4,-1
 522 674 l 1,5,-1
 328 363 l 1,6,-1
 544 11 l 1,7,8
 521 -6 521 -6 496 -6 c 128,-1,9
 471 -6 471 -6 452 24 c 2,10,-1
 280 303 l 1,11,-1
 95 0 l 1,12,13
 85 -4 85 -4 62 -4 c 0,14,15
 39 -4 39 -4 27 3 c 1,16,-1
 24 9 l 1,17,-1
 244 361 l 1,18,-1
 53 672 l 1,19,20
 76 689 76 689 101.5 689 c 0,21,22
 127 689 127 689 146 659 c 2,23,-1
 292 420 l 1,24,-1
 453 683 l 1,0,1
EndSplineSet
EndChar

StartChar: Y
Encoding: 89 89 55
Width: 477
Flags: HMW
HStem: -3 693<56.5 245>
VStem: 204 71<0 223 0 226 0 226>
LayerCount: 2
Fore
SplineSet
246 302 m 1,0,1
 253.6 330.5 253.6 330.5 287 414 c 2,2,-1
 394 683 l 1,3,4
 407 687 407 687 424.5 687 c 128,-1,5
 442 687 442 687 460 682 c 1,6,-1
 463 676 l 1,7,-1
 275 223 l 1,8,-1
 275 0 l 1,9,10
 260 -3 260 -3 239 -3 c 128,-1,11
 218 -3 218 -3 204 0 c 1,12,-1
 204 226 l 1,13,-1
 16 675 l 1,14,15
 42 690 42 690 65 690 c 128,-1,16
 88 690 88 690 102 655 c 2,17,-1
 202 414 l 2,18,19
 220 373 220 373 242 302 c 1,20,-1
 246 302 l 1,0,1
EndSplineSet
EndChar

StartChar: Z
Encoding: 90 90 56
Width: 551
Flags: HMW
HStem: 0 64<232 368 368 395.5 232 443> 620 63<85 255 82 478>
VStem: 65 63<0 62 62 85>
LayerCount: 2
Fore
SplineSet
65 85 m 2,0,-1
 338 513 l 2,1,2
 344 522 344 522 415 624 c 1,3,-1
 412 627 l 1,4,5
 380 620 380 620 255 620 c 2,6,-1
 82 620 l 1,7,8
 79 632 79 632 79 648 c 0,9,10
 79 664 79 664 85 683 c 1,11,-1
 478 683 l 1,12,13
 488 647 488 647 488 633.5 c 0,14,15
 488 620 488 620 476 600 c 2,16,-1
 207 178 l 2,17,18
 202 170 202 170 128 62 c 1,19,-1
 131 59 l 1,20,21
 184 64 184 64 232 64 c 2,22,-1
 368 64 l 2,23,24
 454 64 454 64 489 80 c 1,25,26
 496 59 496 59 496 42 c 0,27,28
 496 0 496 0 443 0 c 2,29,-1
 65 0 l 1,30,31
 54 33 54 33 54 50 c 0,32,33
 54 67 54 67 65 85 c 2,0,-1
EndSplineSet
EndChar

StartChar: ampersand
Encoding: 38 38 57
Width: 600
Flags: HMW
HStem: -12 60<217.5 274.5> 334 61<231.5 477 299 408 475 477 477 494 299 512 475 475> 635 60<247 315.5>
VStem: 57 75<139.5 213 139.5 225.5> 85 75<483.5 551 481.5 566> 407 69<128 146 146 270 270 271>
LayerCount: 2
Fore
SplineSet
476 146 m 1,0,-1
 482 0 l 1,1,2
 468.5 -3 468.5 -3 448.25 -3 c 128,-1,3
 428 -3 428 -3 415 0 c 1,4,-1
 409 39 l 1,5,6
 332 -12 332 -12 243.5 -12 c 128,-1,7
 155 -12 155 -12 106 40.5 c 128,-1,8
 57 93 57 93 57 180 c 0,9,10
 57 246 57 246 96 297.5 c 128,-1,11
 135 349 135 349 190 366 c 1,12,13
 145 382 145 382 115 424.5 c 128,-1,14
 85 467 85 467 85 519 c 0,15,16
 85 593 85 593 139.5 644 c 128,-1,17
 194 695 194 695 288.5 695 c 128,-1,18
 383 695 383 695 453 668 c 1,19,20
 453 632 453 632 434 610 c 1,21,22
 349 635 349 635 288.5 635 c 128,-1,23
 228 635 228 635 194 602 c 128,-1,24
 160 569 160 569 160 515 c 128,-1,25
 160 461 160 461 194.5 428 c 128,-1,26
 229 395 229 395 299 395 c 2,27,-1
 477 395 l 2,28,29
 540 395 540 395 565 407 c 1,30,31
 575 396 575 396 575 373 c 128,-1,32
 575 350 575 350 558.5 342 c 128,-1,33
 542 334 542 334 512 334 c 2,34,-1
 475 334 l 1,35,-1
 476 271 l 1,36,-1
 476 146 l 1,0,-1
407 270 m 2,37,38
 407 311 407 311 408 334 c 1,39,-1
 291 334 l 2,40,41
 210 334 210 334 171 286.5 c 128,-1,42
 132 239 132 239 132 179 c 128,-1,43
 132 119 132 119 165 83.5 c 128,-1,44
 198 48 198 48 248.5 48 c 128,-1,45
 299 48 299 48 340 63 c 128,-1,46
 381 78 381 78 407 100 c 1,47,-1
 407 270 l 2,37,38
EndSplineSet
EndChar

StartChar: zero
Encoding: 48 48 58
Width: 530
Flags: HMW
HStem: -12 57<247 283 247 295.5> 603 57<247 283>
VStem: 56 75<258.5 389.5 258.5 391.5> 399 75<258.5 389.5>
LayerCount: 2
Fore
SplineSet
56 324 m 128,-1,1
 56 431 56 431 72 497 c 128,-1,2
 88 563 88 563 131 607 c 0,3,4
 182 660 182 660 264 660 c 0,5,6
 346 660 346 660 399 607 c 1,7,8
 441 562 441 562 457.5 496.5 c 128,-1,9
 474 431 474 431 474 324 c 128,-1,10
 474 217 474 217 458 151.5 c 128,-1,11
 442 86 442 86 399 41 c 1,12,13
 346 -12 346 -12 265 -12 c 128,-1,14
 184 -12 184 -12 131 41 c 1,15,16
 88 86 88 86 72 151.5 c 128,-1,0
 56 217 56 217 56 324 c 128,-1,1
131 324 m 128,-1,18
 131 224 131 224 142.5 167 c 128,-1,19
 154 110 154 110 184 77.5 c 0,20,21
 214 45 214 45 265 45 c 128,-1,22
 316 45 316 45 346 77.5 c 0,23,24
 376 110 376 110 387.5 167 c 128,-1,25
 399 224 399 224 399 324 c 128,-1,26
 399 424 399 424 387.5 481 c 128,-1,27
 376 538 376 538 346 570.5 c 0,28,29
 316 603 316 603 265 603 c 128,-1,30
 214 603 214 603 184 570.5 c 0,31,32
 154 538 154 538 142.5 481 c 128,-1,17
 131 424 131 424 131 324 c 128,-1,18
EndSplineSet
EndChar

StartChar: one
Encoding: 49 49 59
Width: 530
Flags: HMW
HStem: 0 59<108 206 206 212 378 456 108 206> 628 20G<326 326>
VStem: 258 68<121 413 413 425>
LayerCount: 2
Fore
SplineSet
259 58 m 1,0,-1
 258 121 l 1,1,-1
 258 413 l 2,2,3
 258 426 258 426 260 474.5 c 128,-1,4
 262 523 262 523 262 539 c 1,5,6
 205 464 205 464 109 420 c 1,7,8
 87 435 87 435 79 463 c 1,9,10
 147 504 147 504 195.5 555 c 128,-1,11
 244 606 244 606 261 648 c 1,12,13
 274 652 274 652 292.5 652 c 128,-1,14
 311 652 311 652 326 648 c 1,15,-1
 326 121 l 1,16,-1
 325 58 l 1,17,-1
 378 59 l 1,18,-1
 456 59 l 1,19,20
 459 44 459 44 459 30 c 128,-1,21
 459 16 459 16 456 0 c 1,22,-1
 108 0 l 1,23,24
 105 16 105 16 105 30 c 128,-1,25
 105 44 105 44 108 59 c 1,26,-1
 206 59 l 1,27,-1
 259 58 l 1,0,-1
EndSplineSet
EndChar

StartChar: two
Encoding: 50 50 60
Width: 530
Flags: HMW
HStem: 0 63<251 416> 602 58<232 295>
VStem: 64 70 378 73<450 520>
LayerCount: 2
Fore
SplineSet
466 63 m 1,0,1
 466 46 466 46 465 36 c 0,2,3
 460 0 460 0 416 0 c 2,4,-1
 98 0 l 1,5,6
 64 28 64 28 64 46 c 0,7,8
 64 132 64 132 197 245 c 2,9,-1
 287 322 l 2,10,11
 334 362 334 362 356 399 c 128,-1,12
 378 436 378 436 378 487 c 128,-1,13
 378 538 378 538 345.5 570 c 128,-1,14
 313 602 313 602 265.5 602 c 128,-1,15
 218 602 218 602 181 575 c 128,-1,16
 144 548 144 548 122 502 c 1,17,18
 85 506 85 506 72 530 c 1,19,20
 98 585 98 585 148.5 622.5 c 128,-1,21
 199 660 199 660 275 660 c 128,-1,22
 351 660 351 660 401 610.5 c 128,-1,23
 451 561 451 561 451 483 c 0,24,25
 451 406.744186047 451 406.744186047 410.5 354 c 0,26,27
 389 326 389 326 372 309.5 c 128,-1,28
 355 293 355 293 323 266 c 2,29,-1
 242 197 l 1,30,31
 141 108 141 108 134 58 c 1,32,33
 189 63 189 63 251 63 c 2,34,-1
 466 63 l 1,0,1
EndSplineSet
EndChar

StartChar: three
Encoding: 51 51 61
Width: 530
Flags: HMW
HStem: -12 58<208 278.5 208 296> 342 51<273.5 302> 586 62<84 237 81 425>
VStem: 390 74<152.5 249.5>
LayerCount: 2
Fore
SplineSet
426 565 m 2,0,-1
 302 430 l 1,1,2
 287 412 287 412 260 392 c 1,3,4
 266 393 266 393 276 393 c 0,5,6
 356 393 356 393 410 345.5 c 128,-1,7
 464 298 464 298 464 199 c 0,8,9
 464 100 464 100 397.5 44 c 128,-1,10
 331 -12 331 -12 246 -12 c 0,11,12
 131 -12 131 -12 56 49 c 1,13,14
 63 79 63 79 89 98 c 1,15,16
 161 46 161 46 232 46 c 0,17,18
 303 46 303 46 346.5 87.5 c 128,-1,19
 390 129 390 129 390 200 c 0,20,21
 390 271 390 271 356 306.5 c 128,-1,22
 322 342 322 342 269 342 c 0,23,24
 216 342 216 342 184 322 c 1,25,26
 160 334 160 334 152 360 c 1,27,-1
 299 522 l 2,28,29
 339 565 339 565 367 590 c 1,30,-1
 364 593 l 1,31,32
 332 586 332 586 237 586 c 2,33,-1
 81 586 l 1,34,35
 78 598 78 598 78 613 c 0,36,37
 78 628 78 628 84 648 c 1,38,-1
 425 648 l 1,39,40
 442 616 442 616 442 599 c 0,41,42
 442 582 442 582 426 565 c 2,0,-1
EndSplineSet
EndChar

StartChar: four
Encoding: 52 52 62
Width: 530
Flags: HMW
HStem: 154 59<226 267> 633 20G<246 246>
VStem: 306 67<0 114 0 119 254 363 363 379>
LayerCount: 2
Fore
SplineSet
372 155 m 1,0,-1
 373 114 l 1,1,-1
 373 0 l 1,2,3
 360 -3 360 -3 339 -3 c 128,-1,4
 318 -3 318 -3 306 0 c 1,5,-1
 306 114 l 1,6,-1
 307 155 l 1,7,-1
 267 154 l 1,8,-1
 67 154 l 1,9,10
 50 180 50 180 50 193 c 128,-1,11
 50 206 50 206 72 255 c 2,12,-1
 246 653 l 1,13,14
 253.466666667 655.133333333 253.466666667 655.133333333 262.066666667 655.133333333 c 0,15,16
 292.3 655.133333333 292.3 655.133333333 312 642 c 1,17,-1
 164 306 l 2,18,19
 132 235 132 235 121 214 c 1,20,-1
 123 211 l 1,21,22
 160 213 160 213 226 213 c 2,23,-1
 307 213 l 1,24,-1
 306 254 l 1,25,-1
 306 363 l 2,26,27
 306 386 306 386 317 399 c 128,-1,28
 328 412 328 412 347 412 c 2,29,-1
 370 412 l 1,30,-1
 373 409 l 1,31,-1
 373 253 l 1,32,-1
 372 213 l 1,33,-1
 411 214 l 1,34,-1
 482 214 l 1,35,36
 484 203 484 203 484 184.5 c 128,-1,37
 484 166 484 166 479 154 c 1,38,-1
 411 154 l 1,39,-1
 372 155 l 1,0,-1
EndSplineSet
EndChar

StartChar: five
Encoding: 53 53 63
Width: 530
Flags: HMW
HStem: -12 58<216 283 216 302.5> 371 58<249 283.5> 586 62<213 224 224 403>
VStem: 95 69 391 74<158 280>
LayerCount: 2
Fore
SplineSet
431 648 m 1,0,1
 436 633 436 633 436 620 c 0,2,3
 436 586 436 586 403 586 c 2,4,-1
 224 586 l 2,5,6
 183 586 183 586 165 587 c 1,7,-1
 165 520 l 1,8,-1
 161 435 l 2,9,10
 159 409 159 409 157 399 c 1,11,12
 212 429 212 429 269 429 c 0,13,14
 357 429 357 429 411 374.5 c 128,-1,15
 465 320 465 320 465 214.5 c 0,16,17
 465 109 465 109 401.5 48.5 c 128,-1,18
 338 -12 338 -12 240.5 -12 c 0,19,20
 143 -12 143 -12 69 48 c 1,21,22
 72 76 72 76 100 96 c 1,23,24
 173 46 173 46 240 46 c 0,25,26
 307 46 307 46 349 89.5 c 128,-1,27
 391 133 391 133 391 217.5 c 0,28,29
 391 302 391 302 350 336.5 c 128,-1,30
 309 371 309 371 245.5 371 c 0,31,32
 182 371 182 371 122 319 c 1,33,34
 103 320 103 320 89 341 c 1,35,-1
 102 642 l 1,36,-1
 108 648 l 1,37,-1
 431 648 l 1,0,1
EndSplineSet
EndChar

StartChar: six
Encoding: 54 54 64
Width: 530
Flags: HMW
HStem: -12 57<253.5 314.5 253.5 334.5> 369 62<264 311.5> 602 58<249 333.5>
VStem: 62 73<254.5 277 277 294 254.5 431> 403 74<159.5 271>
LayerCount: 2
Fore
SplineSet
420.5 52.5 m 128,-1,1
 364 -12 364 -12 275.5 -12 c 0,2,3
 168.818181818 -12 168.818181818 -12 116 71 c 0,4,5
 81.4478114478 125.296296296 81.4478114478 125.296296296 71.7239057239 192.148148148 c 128,-1,6
 62 259 62 259 62 333 c 0,7,8
 62 484 62 484 125 572 c 128,-1,9
 188 660 188 660 309 660 c 0,10,11
 393 660 393 660 442 630 c 1,12,13
 438 595 438 595 413 579 c 1,14,15
 363 602 363 602 311 602 c 0,16,17
 223 602 223 602 180 535 c 128,-1,18
 137 468 137 468 135 362 c 1,19,20
 201 431 201 431 289.5 431 c 128,-1,21
 378 431 378 431 427.5 376 c 128,-1,22
 477 321 477 321 477 219 c 128,-1,0
 477 117 477 117 420.5 52.5 c 128,-1,1
277 369 m 0,23,24
 241 369 241 369 201.5 348.5 c 128,-1,25
 162 328 162 328 135 294 c 1,26,-1
 135 277 l 2,27,28
 135 232 135 232 146.5 177 c 128,-1,29
 158 122 158 122 184 88 c 1,30,31
 220 45 220 45 277.5 45 c 128,-1,32
 335 45 335 45 369 89 c 128,-1,33
 403 133 403 133 403 210 c 0,34,35
 403 369 403 369 277 369 c 0,23,24
EndSplineSet
EndChar

StartChar: seven
Encoding: 55 55 65
Width: 530
Flags: HMW
HStem: 586 62<76 242 73 462>
VStem: 167 72
LayerCount: 2
Fore
SplineSet
76 648 m 1,0,-1
 462 648 l 1,1,2
 476 622 476 622 476 605.5 c 0,3,4
 476 589 476 589 463 569 c 2,5,-1
 433 524 l 2,6,7
 347 395 347 395 301.5 286 c 128,-1,8
 256 177 256 177 241 29 c 2,9,-1
 238 0 l 1,10,11
 225 -4 225 -4 200.5 -4 c 0,12,13
 176 -4 176 -4 165 0 c 1,14,-1
 169 37 l 2,15,16
 195 276 195 276 346 504 c 2,17,-1
 356 519 l 2,18,19
 381 558 381 558 407 589 c 1,20,-1
 404 592 l 1,21,22
 376 586 376 586 242 586 c 2,23,-1
 73 586 l 1,24,25
 70 598 70 598 70 613 c 0,26,27
 70 628 70 628 76 648 c 1,0,-1
EndSplineSet
EndChar

StartChar: eight
Encoding: 56 56 66
Width: 530
Flags: HMW
HStem: -12 54<227 298.5 227 318> 606 54<232 296>
VStem: 56 72<125.5 199 125.5 202.5> 75 71<460.5 528.5 460.5 542> 383 71<467.5 530> 400 72<170 211 170 214>
LayerCount: 2
Fore
SplineSet
56 162 m 0,0,1
 56 220 56 220 91 267.5 c 128,-1,2
 126 315 126 315 179 340 c 1,3,4
 75 390 75 390 75 492 c 0,5,6
 75 566 75 566 129.5 613 c 128,-1,7
 184 660 184 660 265.5 660 c 0,8,9
 347 660 347 660 400.5 615 c 128,-1,10
 454 570 454 570 454 498 c 0,11,12
 454 448 454 448 427 408.5 c 128,-1,13
 400 369 400 369 355 346 c 1,14,15
 409 319 409 319 440.5 274 c 128,-1,16
 472.016 228.977142857 472.016 228.977142857 472.016 167.352576 c 0,17,18
 472.016 86.208 472.016 86.208 411.008 37.104 c 0,19,20
 350 -12 350 -12 259 -12 c 0,21,22
 168 -12 168 -12 112 34 c 128,-1,23
 56 80 56 80 56 162 c 0,0,1
250 316 m 1,24,-1
 239 319 l 1,25,26
 187 298 187 298 157.5 256.5 c 128,-1,27
 128 215 128 215 128 161 c 0,28,29
 128 107 128 107 166.5 74.5 c 128,-1,30
 205 42 205 42 262 42 c 0,31,32
 319 42 319 42 359.5 76.5 c 128,-1,33
 400 111 400 111 400 170.5 c 0,34,35
 400 230 400 230 357 265 c 128,-1,36
 314 300 314 300 250 316 c 1,24,-1
283 369 m 1,37,-1
 295 367 l 1,38,39
 336 387 336 387 359.5 420.5 c 128,-1,40
 383 454 383 454 383 500 c 0,41,42
 383 546 383 546 348.5 576 c 128,-1,43
 314 606 314 606 264 606 c 128,-1,44
 214 606 214 606 180 575 c 128,-1,45
 146 544 146 544 146 494 c 0,46,47
 146 402 146 402 283 369 c 1,37,-1
EndSplineSet
EndChar

StartChar: nine
Encoding: 57 57 67
Width: 530
Flags: HMW
HStem: -12 58<196.5 281 196.5 303.5> 217 62<218.5 265.5> 603 57<215.5 276.5>
VStem: 53 74<377 488.5 377 497.5> 395 73<353 371 371 393.5>
LayerCount: 2
Fore
SplineSet
109.5 595.5 m 128,-1,1
 166 660 166 660 254.5 660 c 0,2,3
 361.181818182 660 361.181818182 660 414 577 c 0,4,5
 448.552188552 522.703703704 448.552188552 522.703703704 458.276094276 455.851851852 c 128,-1,6
 468 389 468 389 468 315 c 0,7,8
 468 164 468 164 405 76 c 128,-1,9
 342 -12 342 -12 221 -12 c 0,10,11
 137 -12 137 -12 88 18 c 1,12,13
 92 53 92 53 117 69 c 1,14,15
 167 46 167 46 219 46 c 0,16,17
 307 46 307 46 350 112.5 c 128,-1,18
 393 179 393 179 395 286 c 1,19,20
 328 217 328 217 240 217 c 128,-1,21
 152 217 152 217 102.5 272 c 128,-1,22
 53 327 53 327 53 429 c 128,-1,0
 53 531 53 531 109.5 595.5 c 128,-1,1
253 279 m 0,23,24
 289 279 289 279 328.5 299.5 c 128,-1,25
 368 320 368 320 395 353 c 1,26,-1
 395 371 l 2,27,28
 395 416 395 416 383.5 471 c 128,-1,29
 372 526 372 526 346 560 c 1,30,31
 310 603 310 603 252.5 603 c 128,-1,32
 195 603 195 603 161 559 c 128,-1,33
 127 515 127 515 127 438 c 0,34,35
 127 279 127 279 253 279 c 0,23,24
EndSplineSet
EndChar

StartChar: period
Encoding: 46 46 68
Width: 247
Flags: HMW
HStem: 3 85<74 74 173 173>
VStem: 66 107
LayerCount: 2
Fore
SplineSet
74 3 m 1,0,1
 66 16 66 16 66 46.5 c 128,-1,2
 66 77 66 77 74 88 c 1,3,4
 92 98 92 98 124.5 98 c 128,-1,5
 157 98 157 98 173 88 c 1,6,7
 181 77 181 77 181 46.5 c 128,-1,8
 181 16 181 16 173 3 c 1,9,10
 159 -7 159 -7 125.5 -7 c 128,-1,11
 92 -7 92 -7 74 3 c 1,0,1
EndSplineSet
EndChar

StartChar: periodcentered
Encoding: 183 183 69
Width: 288
Flags: HMW
HStem: 239 85<98 98 191 191>
VStem: 90 101
LayerCount: 2
Fore
SplineSet
98 239 m 1,0,1
 90 252 90 252 90 282.5 c 128,-1,2
 90 313 90 313 98 324 c 1,3,4
 114 334 114 334 144.5 334 c 128,-1,5
 175 334 175 334 191 324 c 1,6,7
 198 312 198 312 198 282.5 c 128,-1,8
 198 253 198 253 191 239 c 1,9,10
 177 229 177 229 145.5 229 c 128,-1,11
 114 229 114 229 98 239 c 1,0,1
EndSplineSet
EndChar

StartChar: bullet
Encoding: 8226 8226 70
Width: 437
Flags: HMW
HStem: 195 154<134 134 303 303>
VStem: 120 183
LayerCount: 2
Fore
SplineSet
134 195 m 1,0,1
 120 221 120 221 120 273.5 c 128,-1,2
 120 326 120 326 134 349 c 1,3,4
 164 367 164 367 219 367 c 0,5,6
 239 367 239 367 266 361.5 c 128,-1,7
 293 356 293 356 303 349 c 1,8,9
 316 328 316 328 316 273.5 c 128,-1,10
 316 219 316 219 303 195 c 1,11,12
 294 188 294 188 267 182.5 c 128,-1,13
 240 177 240 177 219 177 c 0,14,15
 164 177 164 177 134 195 c 1,0,1
EndSplineSet
EndChar

StartChar: comma
Encoding: 44 44 71
Width: 251
Flags: HMW
HStem: -9 97
VStem: 117 71<-30 41.5>
LayerCount: 2
Fore
SplineSet
178 88 m 1,0,1
 188 70 188 70 188 20.5 c 0,2,3
 188 -29 188 -29 155.5 -77.5 c 128,-1,4
 123 -126 123 -126 61 -148 c 1,5,6
 52 -144 52 -144 46 -132.5 c 128,-1,7
 40 -121 40 -121 41 -110 c 1,8,9
 76 -93 76 -93 96.5 -66.5 c 128,-1,10
 117 -40 117 -40 117 -9 c 1,11,12
 90 -4 90 -4 79 4 c 1,13,14
 71 18 71 18 71 47.5 c 0,15,16
 71 77 71 77 79 88 c 1,17,18
 99 98 99 98 132 98 c 0,19,20
 165 98 165 98 178 88 c 1,0,1
EndSplineSet
EndChar

StartChar: colon
Encoding: 58 58 72
Width: 251
Flags: HMW
HStem: 3 85<76 76 175 175> 346 85<76 76 175 175>
VStem: 68 107
LayerCount: 2
Fore
SplineSet
76 3 m 1,0,1
 68 16 68 16 68 46.5 c 128,-1,2
 68 77 68 77 76 88 c 1,3,4
 94 98 94 98 126.5 98 c 128,-1,5
 159 98 159 98 175 88 c 1,6,7
 183 77 183 77 183 46.5 c 128,-1,8
 183 16 183 16 175 3 c 1,9,10
 161 -7 161 -7 127.5 -7 c 128,-1,11
 94 -7 94 -7 76 3 c 1,0,1
76 346 m 1,12,13
 68 359 68 359 68 389.5 c 128,-1,14
 68 420 68 420 76 431 c 1,15,16
 94 441 94 441 126.5 441 c 128,-1,17
 159 441 159 441 175 431 c 1,18,19
 183 420 183 420 183 389.5 c 128,-1,20
 183 359 183 359 175 346 c 1,21,22
 161 336 161 336 127.5 336 c 128,-1,23
 94 336 94 336 76 346 c 1,12,13
EndSplineSet
EndChar

StartChar: semicolon
Encoding: 59 59 73
Width: 255
Flags: HMW
HStem: -9 97 346 85<78 78 177 177>
VStem: 70 107 115 71<-30 41.5>
LayerCount: 2
Fore
SplineSet
176 88 m 1,0,1
 186 70 186 70 186 20.5 c 128,-1,2
 186 -29 186 -29 153.5 -77.5 c 128,-1,3
 121 -126 121 -126 59 -148 c 1,4,5
 50 -144 50 -144 44 -132.5 c 128,-1,6
 38 -121 38 -121 39 -110 c 1,7,8
 74 -93 74 -93 94.5 -66.5 c 128,-1,9
 115 -40 115 -40 115 -9 c 1,10,11
 88 -4 88 -4 77 4 c 1,12,13
 69 18 69 18 69 47.5 c 128,-1,14
 69 77 69 77 77 88 c 1,15,16
 97 98 97 98 130 98 c 128,-1,17
 163 98 163 98 176 88 c 1,0,1
78 346 m 1,18,19
 70 359 70 359 70 389.5 c 128,-1,20
 70 420 70 420 78 431 c 1,21,22
 96 441 96 441 128.5 441 c 128,-1,23
 161 441 161 441 177 431 c 1,24,25
 185 420 185 420 185 389.5 c 128,-1,26
 185 359 185 359 177 346 c 1,27,28
 163 336 163 336 129.5 336 c 128,-1,29
 96 336 96 336 78 346 c 1,18,19
EndSplineSet
EndChar

StartChar: exclam
Encoding: 33 33 74
Width: 274
Flags: HMW
HStem: 3 87
VStem: 106 66
LayerCount: 2
Fore
SplineSet
109 185 m 1,0,-1
 104 668 l 1,1,2
 131 689 131 689 177 689 c 1,3,-1
 182 684 l 1,4,-1
 164 185 l 1,5,6
 153 181 153 181 136.5 181 c 0,7,8
 120 181 120 181 109 185 c 1,0,-1
137 90 m 128,-1,10
 165 90 165 90 182 80 c 1,11,12
 189 68 189 68 189 41.5 c 0,13,14
 189 15 189 15 182 3 c 1,15,16
 165 -7 165 -7 137 -7 c 128,-1,17
 109 -7 109 -7 92 3 c 1,18,19
 85 15 85 15 85 41.5 c 0,20,21
 85 68 85 68 92 80 c 1,22,9
 109 90 109 90 137 90 c 128,-1,10
EndSplineSet
EndChar

StartChar: exclamdown
Encoding: 161 161 75
Width: 274
Flags: HMW
HStem: 400 87
VStem: 101 67
LayerCount: 2
Fore
SplineSet
165 305 m 1,0,-1
 171 -178 l 1,1,2
 142 -199 142 -199 97 -199 c 1,3,-1
 92 -194 l 1,4,-1
 110 305 l 1,5,6
 121 309 121 309 137.5 309 c 128,-1,7
 154 309 154 309 165 305 c 1,0,-1
182 410 m 1,8,9
 165 400 165 400 137 400 c 128,-1,10
 109 400 109 400 92 410 c 1,11,12
 85 420 85 420 85 447.5 c 128,-1,13
 85 475 85 475 92 487 c 1,14,15
 109 497 109 497 137 497 c 128,-1,16
 165 497 165 497 182 487 c 1,17,18
 189 475 189 475 189 447.5 c 128,-1,19
 189 420 189 420 182 410 c 1,8,9
EndSplineSet
EndChar

StartChar: question
Encoding: 63 63 76
Width: 379
Flags: HMW
HStem: 3 87 631 63<166 217>
VStem: 97 90<3 3 80 80> 112 59 295 74<491.5 557>
LayerCount: 2
Fore
SplineSet
17 648 m 1,0,1
 107 694 107 694 190.5 694 c 0,2,3
 274 694 274 694 321.5 650 c 128,-1,4
 369 606 369 606 369 531 c 0,5,6
 369 416 369 416 239 340 c 2,7,-1
 175 303 l 1,8,-1
 168 185 l 1,9,10
 157 181 157 181 141 181 c 0,11,12
 125 181 125 181 114 185 c 1,13,-1
 110 334 l 1,14,-1
 116 342 l 1,15,-1
 161 366 l 2,16,17
 295 438 295 438 295 525 c 0,18,19
 295 573 295 573 264.5 602 c 128,-1,20
 234 631 234 631 177.5 631 c 0,21,22
 121 631 121 631 43 593 c 1,23,24
 20 616 20 616 17 648 c 1,0,1
142 90 m 128,-1,26
 170 90 170 90 187 80 c 1,27,28
 194 68 194 68 194 41.5 c 0,29,30
 194 15 194 15 187 3 c 1,31,32
 170 -7 170 -7 142 -7 c 128,-1,33
 114 -7 114 -7 97 3 c 1,34,35
 90 15 90 15 90 41.5 c 0,36,37
 90 68 90 68 97 80 c 1,38,25
 114 90 114 90 142 90 c 128,-1,26
EndSplineSet
EndChar

StartChar: questiondown
Encoding: 191 191 77
Width: 379
Flags: HMW
HStem: -204 63<162 213> 400 87
VStem: 10 75<-67.5 -2 -67.5 2.5> 192 90<410 410 487 487> 207 59
LayerCount: 2
Fore
SplineSet
362 -158 m 1,0,1
 272 -204 272 -204 188.5 -204 c 0,2,3
 105 -204 105 -204 57.5 -160 c 128,-1,4
 10 -116 10 -116 10 -41 c 0,5,6
 10 74 10 74 140 150 c 2,7,-1
 204 187 l 1,8,-1
 211 305 l 1,9,10
 222 309 222 309 238 309 c 0,11,12
 254 309 254 309 265 305 c 1,13,-1
 269 156 l 1,14,-1
 263 147 l 1,15,-1
 218 123 l 2,16,17
 153 88 153 88 119 50 c 128,-1,18
 85 12 85 12 85 -35.5 c 0,19,20
 85 -83 85 -83 115 -112 c 128,-1,21
 145 -141 145 -141 201.5 -141 c 0,22,23
 258 -141 258 -141 336 -103 c 1,24,25
 359 -126 359 -126 362 -158 c 1,0,1
237 400 m 128,-1,27
 209 400 209 400 192 410 c 1,28,29
 185 420 185 420 185 447.5 c 0,30,31
 185 475 185 475 192 487 c 1,32,33
 209 497 209 497 237 497 c 128,-1,34
 265 497 265 497 282 487 c 1,35,36
 289 475 289 475 289 447.5 c 0,37,38
 289 420 289 420 282 410 c 1,39,26
 265 400 265 400 237 400 c 128,-1,27
EndSplineSet
EndChar

StartChar: quoteleft
Encoding: 8216 8216 78
Width: 201
Flags: HMW
HStem: 527 95
VStem: 45 109
LayerCount: 2
Fore
SplineSet
55 527 m 1,0,1
 45 547 45 547 45 585 c 0,2,3
 45 696 45 696 152 743 c 1,4,5
 162 738 162 738 168.5 727.5 c 128,-1,6
 175 717 175 717 174 707 c 1,7,8
 116 674 116 674 114 622 c 1,9,10
 144 619 144 619 154 612 c 1,11,12
 162 598 162 598 162 568 c 0,13,14
 162 538 162 538 154 527 c 1,15,16
 136 518 136 518 101.5 518 c 0,17,18
 67 518 67 518 55 527 c 1,0,1
EndSplineSet
EndChar

StartChar: quoteright
Encoding: 8217 8217 79
Width: 201
Flags: HMW
HStem: 532 20G 637 94
VStem: 47 109
LayerCount: 2
Fore
SplineSet
146 731 m 1,0,1
 156 713 156 713 156 674 c 0,2,3
 156 562 156 562 49 515 c 1,4,5
 39 519 39 519 32.5 530 c 128,-1,6
 26 541 26 541 27 552 c 1,7,8
 85 585 85 585 87 637 c 1,9,10
 57 640 57 640 47 647 c 1,11,12
 39 661 39 661 39 690.5 c 0,13,14
 39 720 39 720 47 731 c 1,15,16
 67 741 67 741 100 741 c 0,17,18
 133 741 133 741 146 731 c 1,0,1
EndSplineSet
EndChar

StartChar: quotedblleft
Encoding: 8220 8220 80
Width: 368
Flags: HMW
HStem: 527 95
VStem: 45 109 212 109
LayerCount: 2
Fore
SplineSet
55 527 m 1,0,1
 45 547 45 547 45 585 c 0,2,3
 45 696 45 696 152 743 c 1,4,5
 162 738 162 738 168.5 727.5 c 128,-1,6
 175 717 175 717 174 707 c 1,7,8
 116 674 116 674 114 622 c 1,9,10
 144 619 144 619 154 612 c 1,11,12
 162 598 162 598 162 568 c 0,13,14
 162 538 162 538 154 527 c 1,15,16
 136 518 136 518 101.5 518 c 0,17,18
 67 518 67 518 55 527 c 1,0,1
222 527 m 1,19,20
 212 547 212 547 212 585 c 0,21,22
 212 696 212 696 319 743 c 1,23,24
 329 738 329 738 335.5 727.5 c 128,-1,25
 342 717 342 717 341 707 c 1,26,27
 283 674 283 674 281 622 c 1,28,29
 311 619 311 619 321 612 c 1,30,31
 329 598 329 598 329 568 c 0,32,33
 329 538 329 538 321 527 c 1,34,35
 303 518 303 518 268.5 518 c 0,36,37
 234 518 234 518 222 527 c 1,19,20
EndSplineSet
EndChar

StartChar: quotedblright
Encoding: 8221 8221 81
Width: 368
Flags: HMW
HStem: 532 20G 637 94
VStem: 47 109 214 109
LayerCount: 2
Fore
SplineSet
146 731 m 1,0,1
 156 713 156 713 156 674 c 0,2,3
 156 562 156 562 49 515 c 1,4,5
 39 519 39 519 32.5 530 c 128,-1,6
 26 541 26 541 27 552 c 1,7,8
 85 585 85 585 87 637 c 1,9,10
 57 640 57 640 47 647 c 1,11,12
 39 661 39 661 39 690.5 c 0,13,14
 39 720 39 720 47 731 c 1,15,16
 67 741 67 741 100 741 c 0,17,18
 133 741 133 741 146 731 c 1,0,1
313 731 m 1,19,20
 323 713 323 713 323 674 c 0,21,22
 323 562 323 562 216 515 c 1,23,24
 206 519 206 519 199.5 530 c 128,-1,25
 193 541 193 541 194 552 c 1,26,27
 252 585 252 585 254 637 c 1,28,29
 224 640 224 640 214 647 c 1,30,31
 206 661 206 661 206 690.5 c 0,32,33
 206 720 206 720 214 731 c 1,34,35
 234 741 234 741 267 741 c 0,36,37
 300 741 300 741 313 731 c 1,19,20
EndSplineSet
EndChar

StartChar: quotesingle
Encoding: 39 39 82
Width: 190
Flags: HMW
HStem: 515 218 515 228
VStem: 45 93<687 700>
LayerCount: 2
Fore
SplineSet
45 700.5 m 128,-1,1
 45 712 45 712 51 733 c 1,2,3
 69 743 69 743 92.5 743 c 128,-1,4
 116 743 116 743 132 733 c 1,5,6
 138 712 138 712 138 700.5 c 128,-1,7
 138 689 138 689 133.5 666 c 0,8,9
 121.033783784 602.283783784 121.033783784 602.283783784 111 518 c 1,10,11
 102 514 102 514 92.25 514 c 128,-1,12
 82.5 514 82.5 514 72 518 c 1,13,14
 66.1477832512 580.911330049 66.1477832512 580.911330049 55.5738916256 634.955665025 c 128,-1,0
 45 689 45 689 45 700.5 c 128,-1,1
EndSplineSet
EndChar

StartChar: quotesinglbase
Encoding: 8218 8218 83
Width: 202
Flags: HMW
HStem: -9 94
VStem: 55 109
LayerCount: 2
Fore
SplineSet
154 85 m 1,0,1
 164 67 164 67 164 28 c 0,2,3
 164 -83 164 -83 57 -130 c 1,4,5
 47 -126 47 -126 40.5 -115.5 c 128,-1,6
 34 -105 34 -105 35 -94 c 1,7,8
 93 -61 93 -61 95 -9 c 1,9,10
 65 -6 65 -6 55 1 c 1,11,12
 47 15 47 15 47 44.5 c 0,13,14
 47 74 47 74 55 85 c 1,15,16
 75 95 75 95 108 95 c 0,17,18
 141 95 141 95 154 85 c 1,0,1
EndSplineSet
EndChar

StartChar: quotedbl
Encoding: 34 34 84
Width: 348
Flags: HMW
HStem: 515 218 515 228
VStem: 50 93<687 700> 205 93<687 700>
LayerCount: 2
Fore
SplineSet
205 700.5 m 128,-1,1
 205 712 205 712 211 733 c 1,2,3
 229 743 229 743 252.5 743 c 128,-1,4
 276 743 276 743 292 733 c 1,5,6
 298 712 298 712 298 700.5 c 128,-1,7
 298 689 298 689 293.5 666 c 0,8,9
 281.033783784 602.283783784 281.033783784 602.283783784 271 518 c 1,10,11
 262 514 262 514 252.25 514 c 128,-1,12
 242.5 514 242.5 514 232 518 c 1,13,14
 226.147783251 580.911330049 226.147783251 580.911330049 215.573891626 634.955665025 c 128,-1,0
 205 689 205 689 205 700.5 c 128,-1,1
50 700.5 m 128,-1,16
 50 712 50 712 56 733 c 1,17,18
 74 743 74 743 97.5 743 c 128,-1,19
 121 743 121 743 137 733 c 1,20,21
 143 712 143 712 143 700.5 c 128,-1,22
 143 689 143 689 138.5 666 c 0,23,24
 126.033783784 602.283783784 126.033783784 602.283783784 116 518 c 1,25,26
 107 514 107 514 97.25 514 c 128,-1,27
 87.5 514 87.5 514 77 518 c 1,28,29
 71.1477832512 580.911330049 71.1477832512 580.911330049 60.5738916256 634.955665025 c 128,-1,15
 50 689 50 689 50 700.5 c 128,-1,16
EndSplineSet
EndChar

StartChar: quotedblbase
Encoding: 8222 8222 85
Width: 369
Flags: HMW
HStem: -9 94
VStem: 55 109 222 109
LayerCount: 2
Fore
SplineSet
154 85 m 1,0,1
 164 67 164 67 164 28 c 0,2,3
 164 -83 164 -83 57 -130 c 1,4,5
 47 -126 47 -126 40.5 -115.5 c 128,-1,6
 34 -105 34 -105 35 -94 c 1,7,8
 93 -61 93 -61 95 -9 c 1,9,10
 65 -6 65 -6 55 1 c 1,11,12
 47 15 47 15 47 44.5 c 0,13,14
 47 74 47 74 55 85 c 1,15,16
 75 95 75 95 108 95 c 0,17,18
 141 95 141 95 154 85 c 1,0,1
321 85 m 1,19,20
 331 67 331 67 331 28 c 0,21,22
 331 -83 331 -83 224 -130 c 1,23,24
 214 -126 214 -126 207.5 -115.5 c 128,-1,25
 201 -105 201 -105 202 -94 c 1,26,27
 260 -61 260 -61 262 -9 c 1,28,29
 232 -6 232 -6 222 1 c 1,30,31
 214 15 214 15 214 44.5 c 0,32,33
 214 74 214 74 222 85 c 1,34,35
 242 95 242 95 275 95 c 0,36,37
 308 95 308 95 321 85 c 1,19,20
EndSplineSet
EndChar

StartChar: guilsinglleft
Encoding: 8249 8249 86
Width: 320
Flags: HMW
HStem: 44 418<233 239>
VStem: 40 239
LayerCount: 2
Fore
SplineSet
273 423 m 1,0,-1
 124 256 l 1,1,-1
 279 83 l 1,2,3
 267 56 267 56 239 44 c 1,4,-1
 44 230 l 1,5,6
 39 242.5 39 242.5 39 255 c 128,-1,7
 39 267.5 39 267.5 44 280 c 1,8,-1
 233 462 l 1,9,10
 261 450 261 450 273 423 c 1,0,-1
EndSplineSet
EndChar

StartChar: guilsinglright
Encoding: 8250 8250 87
Width: 320
Flags: HMW
HStem: 44 418<80 86>
VStem: 40 239
LayerCount: 2
Fore
SplineSet
46 83 m 1,0,-1
 196 250 l 1,1,-1
 40 423 l 1,2,3
 52 450 52 450 80 462 c 1,4,-1
 275 276 l 1,5,6
 280 263.5 280 263.5 280 251 c 128,-1,7
 280 238.5 280 238.5 275 226 c 1,8,-1
 86 44 l 1,9,10
 58 56 58 56 46 83 c 1,0,-1
EndSplineSet
EndChar

StartChar: guillemotleft
Encoding: 171 171 88
Width: 519
Flags: HMW
HStem: 44 418<233 239 233 439>
VStem: 40 239 240 239
LayerCount: 2
Fore
SplineSet
473 423 m 1,0,-1
 324 256 l 1,1,-1
 479 83 l 1,2,3
 467 56 467 56 439 44 c 1,4,-1
 244 230 l 1,5,6
 239 242.5 239 242.5 239 255 c 128,-1,7
 239 267.5 239 267.5 244 280 c 1,8,-1
 433 462 l 1,9,10
 461 450 461 450 473 423 c 1,0,-1
273 423 m 1,11,-1
 124 256 l 1,12,-1
 279 83 l 1,13,14
 267 56 267 56 239 44 c 1,15,-1
 44 230 l 1,16,17
 39 242.5 39 242.5 39 255 c 128,-1,18
 39 267.5 39 267.5 44 280 c 1,19,-1
 233 462 l 1,20,21
 261 450 261 450 273 423 c 1,11,-1
EndSplineSet
EndChar

StartChar: guillemotright
Encoding: 187 187 89
Width: 519
Flags: HMW
HStem: 44 418<80 86 80 286>
VStem: 40 239 240 239
LayerCount: 2
Fore
SplineSet
46 83 m 1,0,-1
 196 250 l 1,1,-1
 40 423 l 1,2,3
 52 450 52 450 80 462 c 1,4,-1
 275 276 l 1,5,6
 280 263.5 280 263.5 280 251 c 128,-1,7
 280 238.5 280 238.5 275 226 c 1,8,-1
 86 44 l 1,9,10
 58 56 58 56 46 83 c 1,0,-1
246 83 m 1,11,-1
 396 250 l 1,12,-1
 240 423 l 1,13,14
 252 450 252 450 280 462 c 1,15,-1
 475 276 l 1,16,17
 480 263.5 480 263.5 480 251 c 128,-1,18
 480 238.5 480 238.5 475 226 c 1,19,-1
 286 44 l 1,20,21
 258 56 258 56 246 83 c 1,11,-1
EndSplineSet
EndChar

StartChar: onesuperior
Encoding: 185 185 90
Width: 420
Flags: HMW
HStem: 355 52<97 155 155 160.5 307 343 97 155>
VStem: 201 59<406 615 615 622.5>
LayerCount: 2
Fore
SplineSet
155 407 m 1,0,-1
 201 406 l 1,1,-1
 201 615 l 2,2,3
 201 622 201 622 201.5 639.5 c 128,-1,4
 202 657 202 657 202 666 c 1,5,6
 166 619 166 619 102 592 c 1,7,8
 80 603 80 603 77 632 c 1,9,10
 167 683 167 683 203 763 c 1,11,12
 216 767 216 767 230.5 767 c 128,-1,13
 245 767 245 767 260 763 c 1,14,-1
 260 406 l 1,15,-1
 307 407 l 1,16,-1
 343 407 l 1,17,18
 346 395 346 395 346 381.5 c 128,-1,19
 346 368 346 368 343 355 c 1,20,-1
 97 355 l 1,21,22
 94 370 94 370 94 382.5 c 128,-1,23
 94 395 94 395 97 407 c 1,24,-1
 155 407 l 1,0,-1
EndSplineSet
EndChar

StartChar: twosuperior
Encoding: 178 178 91
Width: 420
Flags: HMW
HStem: 353 56<201 310> 716 54<183 220.5>
VStem: 267 65<632.5 669>
LayerCount: 2
Fore
SplineSet
343 409 m 1,0,1
 343 390 343 390 342 381 c 0,2,3
 337 353 337 353 310 353 c 2,4,-1
 87 353 l 1,5,6
 66 374 66 374 66 390 c 0,7,8
 66 445 66 445 149 512 c 2,9,-1
 210 562 l 2,10,11
 242 587 242 587 254.5 605.5 c 128,-1,12
 267 624 267 624 267 651.5 c 0,13,14
 267 679 267 679 248.5 697.5 c 128,-1,15
 230 716 230 716 201 716 c 0,16,17
 149 716 149 716 120 653 c 1,18,19
 88 658 88 658 73 677 c 1,20,21
 89 717 89 717 123 743.5 c 128,-1,22
 157 770 157 770 209.5 770 c 0,23,24
 262 770 262 770 297 735 c 128,-1,25
 332 700 332 700 332 654 c 0,26,27
 332 608 332 608 312 579 c 128,-1,28
 292 550 292 550 250 516 c 2,29,-1
 194 471 l 2,30,31
 145 432 145 432 135 405 c 1,32,33
 167 409 167 409 201 409 c 2,34,-1
 343 409 l 1,0,1
EndSplineSet
EndChar

StartChar: threesuperior
Encoding: 179 179 92
Width: 420
Flags: HMW
HStem: 348 52<165.5 210 165.5 226.5> 567 43<216 225 225 225.5> 711 52<79 169 78 314>
VStem: 247 67<708 715>
LayerCount: 2
Fore
SplineSet
314 708 m 2,0,-1
 247 637 l 2,1,2
 233 621 233 621 216 610 c 1,3,-1
 225 610 l 2,4,5
 275 610 275 610 308.5 575.5 c 128,-1,6
 342 541 342 541 342 479 c 0,7,8
 342 417 342 417 296.5 382.5 c 128,-1,9
 251 348 251 348 182.5 348 c 0,10,11
 114 348 114 348 60 387 c 1,12,13
 64 415 64 415 84 433 c 1,14,15
 136 400 136 400 181 400 c 0,16,17
 226 400 226 400 252.5 421 c 128,-1,18
 279 442 279 442 279 481.5 c 0,19,20
 279 521 279 521 258 544 c 128,-1,21
 237 567 237 567 205 567 c 0,22,23
 173 567 173 567 150 554 c 1,24,25
 130 563 130 563 127 588 c 1,26,-1
 215 682 l 1,27,28
 232 702 232 702 249 713 c 1,29,-1
 247 715 l 1,30,31
 226 711 226 711 169 711 c 2,32,-1
 78 711 l 1,33,34
 75 724 75 724 75 738 c 0,35,36
 75 752 75 752 79 763 c 1,37,-1
 314 763 l 1,38,39
 324 743 324 743 324 730.5 c 0,40,41
 324 718 324 718 314 708 c 2,0,-1
EndSplineSet
EndChar

StartChar: onequarter
Encoding: 188 188 93
Width: 873
Flags: HMW
HStem: -20 20G<251 251 251 320 699 699 758 758> 83 54<647 699 647 699 758 823> 275 52<63 121 121 126.5 273 309 63 121>
VStem: 167 59<326 535 535 542.5> 251 445 699 59<0 83 0 83 137 212 212 225>
LayerCount: 2
Fore
SplineSet
121 327 m 1,0,-1
 167 326 l 1,1,-1
 167 535 l 2,2,3
 167 542 167 542 167.5 559.5 c 128,-1,4
 168 577 168 577 168 586 c 1,5,6
 132 539 132 539 68 512 c 1,7,8
 46 523 46 523 43 552 c 1,9,10
 133 603 133 603 169 683 c 1,11,12
 182 687 182 687 196.5 687 c 128,-1,13
 211 687 211 687 226 683 c 1,14,-1
 226 326 l 1,15,-1
 273 327 l 1,16,-1
 309 327 l 1,17,18
 312 315 312 315 312 302 c 128,-1,19
 312 289 312 289 309 275 c 1,20,-1
 63 275 l 1,21,22
 60 290 60 290 60 302.5 c 128,-1,23
 60 315 60 315 63 327 c 1,24,-1
 121 327 l 1,0,-1
251 0 m 1,25,-1
 627 683 l 1,26,27
 638 688 638 688 661.5 688 c 128,-1,28
 685 688 685 688 696 683 c 1,29,-1
 320 0 l 1,30,31
 309 -5 309 -5 285.5 -5 c 128,-1,32
 262 -5 262 -5 251 0 c 1,25,-1
699 0 m 1,33,-1
 699 83 l 1,34,-1
 539 83 l 1,35,36
 526 102 526 102 526 119 c 128,-1,37
 526 136 526 136 541 162 c 1,38,-1
 660 412 l 1,39,40
 664.333333333 412.666666667 664.333333333 412.666666667 671.666666667 412.666666667 c 0,41,42
 703.074074074 412.666666667 703.074074074 412.666666667 717 397 c 1,43,-1
 624 199 l 2,44,45
 606 160 606 160 592 138 c 1,46,-1
 593 136 l 1,47,48
 613 137 613 137 647 137 c 2,49,-1
 699 137 l 1,50,-1
 699 212 l 2,51,52
 699 231 699 231 709.5 242.5 c 128,-1,53
 720 254 720 254 735 254 c 2,54,-1
 757 254 l 1,55,-1
 758 252 l 1,56,-1
 758 137 l 1,57,-1
 825 137 l 1,58,59
 827 123 827 123 827 107.5 c 128,-1,60
 827 92 827 92 823 83 c 1,61,-1
 758 83 l 1,62,-1
 758 0 l 1,63,64
 749 -4 749 -4 729.5 -4 c 128,-1,65
 710 -4 710 -4 699 0 c 1,33,-1
EndSplineSet
EndChar

StartChar: onehalf
Encoding: 189 189 94
Width: 873
Flags: HMW
HStem: -20 20G<235 235 235 304> -3 56<679 788> 275 52<63 121 121 126.5 273 309 63 121> 360 54<661 698.5>
VStem: 167 59<326 535 535 542.5> 235 445 745 65<276.5 313>
LayerCount: 2
Fore
SplineSet
235 0 m 1,0,-1
 611 683 l 1,1,2
 622 688 622 688 645.5 688 c 128,-1,3
 669 688 669 688 680 683 c 1,4,-1
 304 0 l 1,5,6
 293 -5 293 -5 269.5 -5 c 128,-1,7
 246 -5 246 -5 235 0 c 1,0,-1
121 327 m 1,8,-1
 167 326 l 1,9,-1
 167 535 l 2,10,11
 167 542 167 542 167.5 559.5 c 128,-1,12
 168 577 168 577 168 586 c 1,13,14
 132 539 132 539 68 512 c 1,15,16
 46 523 46 523 43 552 c 1,17,18
 133 603 133 603 169 683 c 1,19,20
 182 687 182 687 196.5 687 c 128,-1,21
 211 687 211 687 226 683 c 1,22,-1
 226 326 l 1,23,-1
 273 327 l 1,24,-1
 309 327 l 1,25,26
 312 315 312 315 312 302 c 128,-1,27
 312 289 312 289 309 275 c 1,28,-1
 63 275 l 1,29,30
 60 290 60 290 60 302.5 c 128,-1,31
 60 315 60 315 63 327 c 1,32,-1
 121 327 l 1,8,-1
821 53 m 1,33,34
 821 34 821 34 820 25 c 0,35,36
 815 -3 815 -3 788 -3 c 2,37,-1
 565 -3 l 1,38,39
 544 18 544 18 544 34 c 0,40,41
 544 89 544 89 627 156 c 2,42,-1
 688 206 l 2,43,44
 720 231 720 231 732.5 249.5 c 128,-1,45
 745 268 745 268 745 295.5 c 128,-1,46
 745 323 745 323 726.5 341.5 c 128,-1,47
 708 360 708 360 679 360 c 0,48,49
 627 360 627 360 598 297 c 1,50,51
 566 302 566 302 551 321 c 1,52,53
 567 361 567 361 601 387.5 c 128,-1,54
 635 414 635 414 687.5 414 c 128,-1,55
 740 414 740 414 775 379 c 128,-1,56
 810 344 810 344 810 298 c 128,-1,57
 810 252 810 252 790 223 c 128,-1,58
 770 194 770 194 728 160 c 2,59,-1
 672 115 l 2,60,61
 623 76 623 76 613 49 c 1,62,63
 645 53 645 53 679 53 c 2,64,-1
 821 53 l 1,33,34
EndSplineSet
EndChar

StartChar: threequarters
Encoding: 190 190 95
Width: 873
Flags: HMW
HStem: -20 20G<246 246 246 315 706 706 765 765> 83 54<654 706 654 706 765 830> 270 52<161.5 206 161.5 222.5> 489 43<212 221 221 221.5> 633 52<75 165 74 310>
VStem: 243 67<630 637> 246 445 706 59<0 83 0 83 137 212 212 225>
LayerCount: 2
Fore
SplineSet
246 0 m 1,0,-1
 622 683 l 1,1,2
 632 688 632 688 656 688 c 128,-1,3
 680 688 680 688 691 683 c 1,4,-1
 315 0 l 1,5,6
 304 -5 304 -5 280.5 -5 c 128,-1,7
 257 -5 257 -5 246 0 c 1,0,-1
310 630 m 2,8,-1
 243 559 l 2,9,10
 229 543 229 543 212 532 c 1,11,-1
 221 532 l 2,12,13
 271 532 271 532 304.5 497.5 c 128,-1,14
 338 463 338 463 338 401 c 128,-1,15
 338 339 338 339 292.5 304.5 c 128,-1,16
 247 270 247 270 178.5 270 c 128,-1,17
 110 270 110 270 56 309 c 1,18,19
 60 337 60 337 80 355 c 1,20,21
 132 322 132 322 177 322 c 128,-1,22
 222 322 222 322 248.5 343 c 128,-1,23
 275 364 275 364 275 403.5 c 128,-1,24
 275 443 275 443 254 466 c 128,-1,25
 233 489 233 489 201 489 c 128,-1,26
 169 489 169 489 146 476 c 1,27,28
 126 485 126 485 123 510 c 1,29,-1
 211 604 l 1,30,31
 228 624 228 624 245 635 c 1,32,-1
 243 637 l 1,33,34
 222 633 222 633 165 633 c 2,35,-1
 74 633 l 1,36,37
 71 646 71 646 71 660 c 128,-1,38
 71 674 71 674 75 685 c 1,39,-1
 310 685 l 1,40,41
 320 665 320 665 320 652.5 c 128,-1,42
 320 640 320 640 310 630 c 2,8,-1
706 0 m 1,43,-1
 706 83 l 1,44,-1
 546 83 l 1,45,46
 533 102 533 102 533 119 c 128,-1,47
 533 136 533 136 548 162 c 1,48,-1
 667 412 l 1,49,50
 671.333333333 412.666666667 671.333333333 412.666666667 678.666666667 412.666666667 c 0,51,52
 710.074074074 412.666666667 710.074074074 412.666666667 724 397 c 1,53,-1
 631 199 l 2,54,55
 613 160 613 160 599 138 c 1,56,-1
 600 136 l 1,57,58
 620 137 620 137 654 137 c 2,59,-1
 706 137 l 1,60,-1
 706 212 l 2,61,62
 706 231 706 231 716.5 242.5 c 128,-1,63
 727 254 727 254 742 254 c 2,64,-1
 764 254 l 1,65,-1
 765 252 l 1,66,-1
 765 137 l 1,67,-1
 832 137 l 1,68,69
 834 123 834 123 834 107.5 c 128,-1,70
 834 92 834 92 830 83 c 1,71,-1
 765 83 l 1,72,-1
 765 0 l 1,73,74
 756 -4 756 -4 736.5 -4 c 128,-1,75
 717 -4 717 -4 706 0 c 1,43,-1
EndSplineSet
EndChar

StartChar: ordfeminine
Encoding: 170 170 96
Width: 402
Flags: HMW
HStem: 307 50<142.5 177.5 142.5 179> 493 46<160 199.5> 639 20G 641 54<183.5 226.5>
VStem: 40 63<404.5 444 404.5 459.5> 272 57<415 416 416 487 487 487 534 565 565 568>
LayerCount: 2
Fore
SplineSet
351 340 m 1,0,1
 349 332 349 332 340 323 c 128,-1,2
 331 314 331 314 321 310 c 1,3,4
 285 324 285 324 276 360 c 1,5,6
 217 307 217 307 158 307 c 128,-1,7
 99 307 99 307 69.5 340 c 128,-1,8
 40 373 40 373 40 417 c 0,9,10
 40 479 40 479 78.5 509 c 128,-1,11
 117 539 117 539 186 539 c 0,12,13
 225 539 225 539 272 534 c 1,14,-1
 272 565 l 2,15,16
 272 641 272 641 206 641 c 0,17,18
 143 641 143 641 75 611 c 1,19,20
 53 629 53 629 53 659 c 1,21,22
 136 695 136 695 207 695 c 0,23,24
 329 695 329 695 329 568 c 2,25,-1
 329 416 l 2,26,27
 329 361 329 361 351 340 c 1,0,1
118.5 376 m 128,-1,29
 134 357 134 357 160.5 357 c 128,-1,30
 187 357 187 357 217.5 372.5 c 128,-1,31
 248 388 248 388 272 415 c 1,32,-1
 272 487 l 1,33,34
 216 493 216 493 181.5 493 c 128,-1,35
 147 493 147 493 125 474 c 128,-1,36
 103 455 103 455 103 425 c 128,-1,28
 103 395 103 395 118.5 376 c 128,-1,29
EndSplineSet
EndChar

StartChar: ordmasculine
Encoding: 186 186 97
Width: 384
Flags: HMW
HStem: 307 51<170.5 212.5> 645 50<170.5 212.5 170.5 228>
VStem: 32 64<470.5 530.5> 288 64<470.5 530.5 470.5 537>
LayerCount: 2
Fore
SplineSet
298 656 m 1,0,1
 352 598 352 598 352 500 c 128,-1,2
 352 402 352 402 298 345 c 1,3,4
 255 307 255 307 192 307 c 128,-1,5
 129 307 129 307 86 345 c 1,6,7
 32 402 32 402 32 500 c 128,-1,8
 32 598 32 598 86 656 c 1,9,10
 128 695 128 695 192 695 c 128,-1,11
 256 695 256 695 298 656 c 1,0,1
119 603.5 m 128,-1,13
 96 562 96 562 96 500.5 c 128,-1,14
 96 439 96 439 119 398.5 c 128,-1,15
 142 358 142 358 192 358 c 128,-1,16
 242 358 242 358 265 398.5 c 128,-1,17
 288 439 288 439 288 500.5 c 128,-1,18
 288 562 288 562 265 603.5 c 128,-1,19
 242 645 242 645 192 645 c 128,-1,12
 142 645 142 645 119 603.5 c 128,-1,13
EndSplineSet
EndChar

StartChar: degree
Encoding: 176 176 98
Width: 311
Flags: HMW
HStem: 395 53<132 179 132 194> 617 53<132 179>
VStem: 20 59<508 555.5 508 571> 231 60<508 555.5>
LayerCount: 2
Fore
SplineSet
59 434.5 m 128,-1,1
 20 474 20 474 20 532.5 c 128,-1,2
 20 591 20 591 59 630.5 c 128,-1,3
 98 670 98 670 155.5 670 c 128,-1,4
 213 670 213 670 252 630 c 128,-1,5
 291 590 291 590 291 532 c 128,-1,6
 291 474 291 474 252 434.5 c 128,-1,7
 213 395 213 395 155.5 395 c 128,-1,0
 98 395 98 395 59 434.5 c 128,-1,1
100 592.5 m 128,-1,9
 79 568 79 568 79 531.5 c 128,-1,10
 79 495 79 495 100 471.5 c 128,-1,11
 121 448 121 448 155.5 448 c 128,-1,12
 190 448 190 448 210.5 471.5 c 128,-1,13
 231 495 231 495 231 531.5 c 128,-1,14
 231 568 231 568 210.5 592.5 c 128,-1,15
 190 617 190 617 155.5 617 c 128,-1,8
 121 617 121 617 100 592.5 c 128,-1,9
EndSplineSet
EndChar

StartChar: less
Encoding: 60 60 99
Width: 530
Flags: HMW
HStem: 53 472<434 434>
VStem: 55 73<286 292 286 318 286 318>
LayerCount: 2
Fore
SplineSet
55 318 m 1,0,-1
 434 525 l 1,1,2
 463 504 463 504 467 470 c 1,3,-1
 193 325 l 1,4,-1
 128 292 l 1,5,-1
 128 286 l 1,6,-1
 193 253 l 1,7,-1
 467 108 l 1,8,9
 463 74 463 74 434 53 c 1,10,-1
 55 259 l 1,11,12
 50.5 276.5 50.5 276.5 50.5 291.25 c 128,-1,13
 50.5 306 50.5 306 55 318 c 1,0,-1
EndSplineSet
EndChar

StartChar: greater
Encoding: 62 62 100
Width: 530
Flags: HMW
HStem: 54 472<96 96>
VStem: 402 73<287 293 293 293>
LayerCount: 2
Fore
SplineSet
475 260 m 1,0,-1
 96 54 l 1,1,2
 67 75 67 75 63 109 c 1,3,-1
 337 254 l 1,4,-1
 402 287 l 1,5,-1
 402 293 l 1,6,-1
 337 326 l 1,7,-1
 63 471 l 1,8,9
 67 505 67 505 96 526 c 1,10,-1
 475 319 l 1,11,12
 479.5 302 479.5 302 479.5 287.25 c 128,-1,13
 479.5 272.5 479.5 272.5 475 260 c 1,0,-1
EndSplineSet
EndChar

StartChar: plus
Encoding: 43 43 101
Width: 530
Flags: HMW
HStem: 257 65<59 196 59 196 334 471>
VStem: 231 68<74 223 74 227.5 357 506>
LayerCount: 2
Fore
SplineSet
232 321 m 1,0,-1
 231 357 l 1,1,-1
 231 506 l 1,2,3
 244 509 244 509 265.5 509 c 128,-1,4
 287 509 287 509 299 506 c 1,5,-1
 299 357 l 1,6,7
 298 321 l 1,8,-1
 334 322 l 1,9,-1
 471 322 l 1,10,11
 474 308 474 308 474 289.25 c 128,-1,12
 474 270.5 474 270.5 471 257 c 1,13,-1
 334 257 l 1,14,-1
 298 258 l 1,15,-1
 299 223 l 1,16,-1
 299 74 l 1,17,18
 287 71 287 71 265.5 71 c 128,-1,19
 244 71 244 71 231 74 c 1,20,-1
 231 223 l 1,21,-1
 232 258 l 1,22,-1
 196 257 l 1,23,-1
 59 257 l 1,24,25
 56 270.5 56 270.5 56 289.25 c 128,-1,26
 56 308 56 308 59 322 c 1,27,-1
 196 322 l 1,28,-1
 232 321 l 1,0,-1
EndSplineSet
EndChar

StartChar: plusminus
Encoding: 177 177 102
Width: 530
Flags: HMW
HStem: 0 65<69 461 69 461> 299 65<69 196 69 196 334 461>
VStem: 230 70<133 264 133 268.5 398 529>
LayerCount: 2
Fore
SplineSet
231 363 m 1,0,-1
 230 398 l 1,1,-1
 230 529 l 1,2,3
 245 532 245 532 265.5 532 c 128,-1,4
 286 532 286 532 300 529 c 1,5,-1
 300 398 l 1,6,7
 299 363 l 1,8,-1
 334 364 l 1,9,-1
 461 364 l 1,10,11
 464 349 464 349 464 330.5 c 128,-1,12
 464 312 464 312 461 299 c 1,13,-1
 334 299 l 1,14,-1
 299 300 l 1,15,-1
 300 264 l 1,16,-1
 300 133 l 1,17,18
 286 130 286 130 265.5 130 c 128,-1,19
 245 130 245 130 230 133 c 1,20,-1
 230 264 l 1,21,-1
 231 300 l 1,22,-1
 196 299 l 1,23,-1
 69 299 l 1,24,25
 66 313 66 313 66 331 c 128,-1,26
 66 349 66 349 69 364 c 1,27,-1
 196 364 l 1,28,-1
 231 363 l 1,0,-1
461 0 m 1,29,-1
 69 0 l 1,30,31
 66 16 66 16 66 31.5 c 128,-1,32
 66 47 66 47 69 65 c 1,33,-1
 461 65 l 1,34,35
 464 47 464 47 464 31.5 c 128,-1,36
 464 16 464 16 461 0 c 1,29,-1
EndSplineSet
EndChar

StartChar: hyphen
Encoding: 45 45 103
Width: 332
Flags: HMW
HStem: 232 65<53 279 53 279>
VStem: 53 226<232 232 232 297>
LayerCount: 2
Fore
SplineSet
279 232 m 1,0,-1
 53 232 l 1,1,2
 50 245 50 245 50 264.5 c 0,3,4
 50 284 50 284 53 297 c 1,5,-1
 279 297 l 1,6,7
 282 284 282 284 282 265 c 0,8,9
 282 246 282 246 279 232 c 1,0,-1
EndSplineSet
EndChar

StartChar: equal
Encoding: 61 61 104
Width: 530
Flags: HMW
HStem: 175 65<59 471 59 471> 343 65<59 471 59 471>
VStem: 56 418<199.5 213 367.5 381>
LayerCount: 2
Fore
SplineSet
471 175 m 1,0,-1
 59 175 l 1,1,2
 56 188 56 188 56 206.5 c 0,3,4
 56 225 56 225 59 240 c 1,5,-1
 471 240 l 1,6,7
 474 225 474 225 474 206.5 c 0,8,9
 474 188 474 188 471 175 c 1,0,-1
471 343 m 1,10,-1
 59 343 l 1,11,12
 56 357 56 357 56 375 c 0,13,14
 56 393 56 393 59 408 c 1,15,-1
 471 408 l 1,16,17
 474 393 474 393 474 374.5 c 0,18,19
 474 356 474 356 471 343 c 1,10,-1
EndSplineSet
EndChar

StartChar: multiply
Encoding: 215 215 105
Width: 530
Flags: HMW
HStem: 106 367<129 129 129 401>
VStem: 81 368<154 154 154 426>
LayerCount: 2
Fore
SplineSet
265 244 m 1,0,-1
 129 106 l 1,1,2
 114 112 114 112 100.5 125.5 c 128,-1,3
 87 139 87 139 81 154 c 1,4,-1
 220 290 l 1,5,6
 203 305 203 305 197 312 c 2,7,-1
 81 426 l 1,8,9
 97.5105485232 463.738396624 97.5105485232 463.738396624 129 473 c 1,10,-1
 243 358 l 2,11,12
 248 352 248 352 265 335 c 1,13,-1
 401 473 l 1,14,15
 433.877637131 462.725738397 433.877637131 462.725738397 449 426 c 1,16,-1
 310 290 l 1,17,18
 327 273 327 273 333 268 c 2,19,-1
 449 154 l 1,20,21
 434.391304348 118.52173913 434.391304348 118.52173913 401 106 c 1,22,-1
 265 244 l 1,0,-1
EndSplineSet
EndChar

StartChar: divide
Encoding: 247 247 106
Width: 530
Flags: HMW
HStem: 75 72<222 222 308 308> 258 65<59 471 59 471> 431 72<222 222 308 308>
VStem: 215 93
LayerCount: 2
Fore
SplineSet
215 467 m 128,-1,1
 215 489 215 489 222 503 c 1,2,3
 236 512 236 512 266 512 c 0,4,5
 296 512 296 512 308 503 c 1,6,7
 315 489 315 489 315 467 c 128,-1,8
 315 445 315 445 308 431 c 1,9,10
 296 421 296 421 266.5 421 c 0,11,12
 237 421 237 421 222 431 c 1,13,0
 215 445 215 445 215 467 c 128,-1,1
215 111 m 128,-1,15
 215 133 215 133 222 147 c 1,16,17
 237 157 237 157 266 157 c 0,18,19
 295 157 295 157 308 147 c 1,20,21
 315 133 315 133 315 111 c 128,-1,22
 315 89 315 89 308 75 c 1,23,24
 296 65 296 65 266.5 65 c 0,25,26
 237 65 237 65 222 75 c 1,27,14
 215 89 215 89 215 111 c 128,-1,15
471 258 m 1,28,-1
 59 258 l 1,29,30
 56 272 56 272 56 291 c 0,31,32
 56 310 56 310 59 323 c 1,33,-1
 471 323 l 1,34,35
 474 310 474 310 474 291 c 0,36,37
 474 272 474 272 471 258 c 1,28,-1
EndSplineSet
EndChar

StartChar: logicalnot
Encoding: 172 172 107
Width: 530
Flags: HMW
HStem: 263 65<54 365 54 463>
VStem: 400 69<109 229 229 233.5>
LayerCount: 2
Fore
SplineSet
401 264 m 1,0,-1
 365 263 l 1,1,-1
 54 263 l 1,2,3
 51 276.5 51 276.5 51 295.25 c 128,-1,4
 51 314 51 314 54 328 c 1,5,-1
 463 328 l 1,6,-1
 469 322 l 1,7,-1
 469 109 l 1,8,9
 456 106 456 106 435.5 106 c 128,-1,10
 415 106 415 106 400 109 c 1,11,-1
 400 229 l 1,12,-1
 401 264 l 1,0,-1
EndSplineSet
EndChar

StartChar: mu
Encoding: 956 956 108
Width: 555
Flags: HMW
HStem: -218 21G<114 134.5> -10 62<237 289> 470 20G<91 91 157 157 396 396 464 464>
VStem: 91 66<164 490 164 490 164 490> 396 68<129 138 138 490>
LayerCount: 2
Fore
SplineSet
464 490 m 1,0,-1
 464 138 l 2,1,2
 464 55 464 55 492 28 c 1,3,4
 482 4 482 4 459 -7 c 1,5,6
 413 11 413 11 401 63 c 1,7,8
 343 -10 343 -10 259 -10 c 0,9,10
 193 -10 193 -10 155 31 c 1,11,-1
 155 -173 l 2,12,13
 155 -218 155 -218 122 -218 c 0,14,15
 94 -218 94 -218 80 -204 c 1,16,17
 91 -177 91 -177 91 -121 c 2,18,-1
 91 490 l 1,19,20
 103 493 103 493 123.5 493 c 0,21,22
 144 493 144 493 157 490 c 1,23,-1
 157 164 l 1,24,25
 158 111 158 111 189 81.5 c 128,-1,26
 220 52 220 52 267 52 c 0,27,28
 342 52 342 52 396 129 c 1,29,-1
 396 490 l 1,30,31
 410 493 410 493 430 493 c 0,32,33
 450 493 450 493 464 490 c 1,0,-1
EndSplineSet
EndChar

StartChar: percent
Encoding: 37 37 109
Width: 852
Flags: HMW
HStem: -20 20G<204 204 204 272> -12 50<632.5 674> 301 50<177.5 219> 332 50<632.5 674 632.5 687> 645 50<177.5 219 177.5 232>
VStem: 50 64<467 528> 282 64<467 528 467 535> 505 64<155 216> 738 64<155 216 155 223>
LayerCount: 2
Fore
SplineSet
755 342 m 1,0,1
 802 295 802 295 802 186.5 c 128,-1,2
 802 78 802 78 755 28 c 1,3,4
 715 -12 715 -12 653.5 -12 c 128,-1,5
 592 -12 592 -12 552 28 c 1,6,7
 505 78 505 78 505 186.5 c 128,-1,8
 505 295 505 295 552 342 c 1,9,10
 589 382 589 382 653.5 382 c 128,-1,11
 718 382 718 382 755 342 c 1,0,1
569 185 m 128,-1,13
 569 38 569 38 653.5 38 c 128,-1,14
 738 38 738 38 738 185 c 128,-1,15
 738 332 738 332 653.5 332 c 128,-1,12
 569 332 569 332 569 185 c 128,-1,13
346 498 m 128,-1,17
 346 389 346 389 302.5 345 c 128,-1,18
 259 301 259 301 198 301 c 128,-1,19
 137 301 137 301 93.5 345 c 128,-1,20
 50 389 50 389 50 498 c 128,-1,21
 50 607 50 607 97 655 c 1,22,23
 134 695 134 695 198.5 695 c 128,-1,24
 263 695 263 695 299 655 c 1,25,16
 346 607 346 607 346 498 c 128,-1,17
114 498 m 128,-1,27
 114 351 114 351 199 351 c 0,28,29
 282 351 282 351 282 498 c 128,-1,30
 282 645 282 645 199 645 c 0,31,26
 114 645 114 645 114 498 c 128,-1,27
204 0 m 1,32,-1
 580 683 l 1,33,34
 590 688 590 688 613.5 688 c 128,-1,35
 637 688 637 688 648 683 c 1,36,-1
 272 0 l 1,37,38
 262 -5 262 -5 238 -5 c 128,-1,39
 214 -5 214 -5 204 0 c 1,32,-1
EndSplineSet
EndChar

StartChar: numbersign
Encoding: 35 35 110
Width: 597
Flags: HMW
HStem: 170 61<31 139 31 152 217 334 31 204 412 524> 414 61<75 193 75 207 272 388 75 258 467 568>
VStem: 27 546
LayerCount: 2
Fore
SplineSet
402 475 m 1,0,-1
 437 631 l 1,1,2
 453 636 453 636 469.25 636 c 128,-1,3
 485.5 636 485.5 636 502 631 c 1,4,-1
 467 475 l 1,5,-1
 568 475 l 1,6,7
 573.5 459.5 573.5 459.5 573.5 444.25 c 128,-1,8
 573.5 429 573.5 429 568 414 c 1,9,-1
 453 414 l 1,10,-1
 412 231 l 1,11,-1
 524 231 l 1,12,13
 528 219 528 219 528 200 c 128,-1,14
 528 181 528 181 524 170 c 1,15,-1
 399 170 l 1,16,-1
 364 14 l 1,17,18
 353 9 353 9 331.5 9 c 128,-1,19
 310 9 310 9 299 14 c 1,20,-1
 334 170 l 1,21,-1
 204 170 l 1,22,-1
 169 14 l 1,23,24
 158 9 158 9 136.5 9 c 128,-1,25
 115 9 115 9 104 14 c 1,26,-1
 139 170 l 1,27,-1
 31 170 l 1,28,29
 26 181 26 181 26 200 c 128,-1,30
 26 219 26 219 31 231 c 1,31,-1
 152 231 l 1,32,-1
 193 414 l 1,33,-1
 75 414 l 1,34,35
 69.5 429 69.5 429 69.5 444.25 c 128,-1,36
 69.5 459.5 69.5 459.5 75 475 c 1,37,-1
 207 475 l 1,38,-1
 242 631 l 1,39,40
 258 636 258 636 274.25 636 c 128,-1,41
 290.5 636 290.5 636 307 631 c 1,42,-1
 272 475 l 1,43,-1
 402 475 l 1,0,-1
258 414 m 1,44,-1
 217 231 l 1,45,-1
 347 231 l 1,46,-1
 388 414 l 1,47,-1
 258 414 l 1,44,-1
EndSplineSet
EndChar

StartChar: asterisk
Encoding: 42 42 111
Width: 494
Flags: HMW
HStem: 358 379
VStem: 212 68<681 731>
LayerCount: 2
Fore
SplineSet
50 565 m 1,0,1
 49.5555555556 567.888888889 49.5555555556 567.888888889 49.5555555556 575.111111111 c 0,2,3
 49.5555555556 582.333333333 49.5555555556 582.333333333 55.7777777778 599.666666667 c 0,4,5
 62 617 62 617 72 628 c 1,6,-1
 119 614 l 2,7,8
 147 605 147 605 226 563 c 1,9,10
 211.9375 627.6875 211.9375 627.6875 211.9375 674.796875 c 0,11,12
 211.9375 677.9375 211.9375 677.9375 212 681 c 2,13,-1
 213 731 l 1,14,15
 226 737 226 737 246.5 737 c 128,-1,16
 267 737 267 737 280 731 c 1,17,-1
 281 681 l 2,18,19
 281.0625 678.4375 281.0625 678.4375 281.0625 656.8125 c 0,20,21
 281.0625 635.1875 281.0625 635.1875 267 563 c 1,22,23
 332 602 332 602 375 614 c 2,24,-1
 423 627 l 1,25,26
 432 618 432 618 438 598.5 c 128,-1,27
 444 579 444 579 443 564 c 1,28,-1
 397 548 l 2,29,30
 365 537 365 537 279 525 c 1,31,32
 336 474 336 474 361 437 c 2,33,-1
 388 396 l 1,34,35
 381 384 381 384 365 372.5 c 128,-1,36
 349 361 349 361 334 358 c 1,37,-1
 305 397 l 2,38,39
 282 427 282 427 247 501 c 1,40,41
 214 427 214 427 189 397 c 1,42,-1
 159 358 l 1,43,44
 145 361 145 361 128.5 372.5 c 128,-1,45
 112 384 112 384 104 397 c 1,46,-1
 132 437 l 2,47,48
 156 471 156 471 214 524 c 1,49,50
 140 532 140 532 97 548 c 2,51,-1
 50 565 l 1,0,1
EndSplineSet
EndChar

StartChar: endash
Encoding: 8211 8211 112
Width: 514
Flags: HMW
HStem: 233 62<67 447 67 447>
VStem: 64 386<256.5 270>
LayerCount: 2
Fore
SplineSet
447 233 m 1,0,-1
 67 233 l 1,1,2
 64 246 64 246 64 263 c 128,-1,3
 64 280 64 280 67 295 c 1,4,-1
 447 295 l 1,5,6
 450 280 450 280 450 263 c 128,-1,7
 450 246 450 246 447 233 c 1,0,-1
EndSplineSet
EndChar

StartChar: emdash
Encoding: 8212 8212 113
Width: 788
Flags: HMW
HStem: 233 62<83 704 83 704>
VStem: 80 627<256.5 270>
LayerCount: 2
Fore
SplineSet
704 233 m 1,0,-1
 83 233 l 1,1,2
 80 246 80 246 80 263 c 128,-1,3
 80 280 80 280 83 295 c 1,4,-1
 704 295 l 1,5,6
 707 280 707 280 707 263 c 128,-1,7
 707 246 707 246 704 233 c 1,0,-1
EndSplineSet
EndChar

StartChar: slash
Encoding: 47 47 114
Width: 403
Flags: HMW
HStem: -105 862<62 328>
VStem: 11 378
LayerCount: 2
Fore
SplineSet
11 -82 m 1,0,-1
 328 757 l 1,1,2
 361 755 361 755 389 734 c 1,3,-1
 72 -105 l 1,4,5
 41 -105 41 -105 11 -82 c 1,0,-1
EndSplineSet
EndChar

StartChar: backslash
Encoding: 92 92 115
Width: 403
Flags: HMW
HStem: -105 862<65 331>
VStem: 14 378
LayerCount: 2
Fore
SplineSet
331 -105 m 1,0,-1
 14 734 l 1,1,2
 44 757 44 757 75 757 c 1,3,-1
 392 -82 l 1,4,5
 364 -103 364 -103 331 -105 c 1,0,-1
EndSplineSet
EndChar

StartChar: bar
Encoding: 124 124 116
Width: 246
Flags: HMW
HStem: -143 921<116.5 128.5>
VStem: 90 65<-140 775 -140 775>
LayerCount: 2
Fore
SplineSet
90 -140 m 1,0,-1
 90 775 l 1,1,2
 104 778 104 778 122 778 c 128,-1,3
 140 778 140 778 155 775 c 1,4,-1
 155 -140 l 1,5,6
 140 -143 140 -143 122 -143 c 128,-1,7
 104 -143 104 -143 90 -140 c 1,0,-1
EndSplineSet
EndChar

StartChar: brokenbar
Encoding: 166 166 117
Width: 240
Flags: HMW
HStem: -143 921<113.5 125.5>
VStem: 87 65<-140 247 -140 247 388 775>
LayerCount: 2
Fore
SplineSet
87 -140 m 1,0,-1
 87 247 l 1,1,2
 101 250 101 250 119 250 c 128,-1,3
 137 250 137 250 152 247 c 1,4,-1
 152 -140 l 1,5,6
 137 -143 137 -143 118.5 -143 c 0,7,8
 100 -143 100 -143 87 -140 c 1,0,-1
87 388 m 1,9,-1
 87 775 l 1,10,11
 101 778 101 778 119 778 c 128,-1,12
 137 778 137 778 152 775 c 1,13,-1
 152 388 l 1,14,15
 137 385 137 385 118.5 385 c 0,16,17
 100 385 100 385 87 388 c 1,9,-1
EndSplineSet
EndChar

StartChar: paragraph
Encoding: 182 182 118
Width: 618
Flags: HMW
HStem: -153 58<179 211.5 179 223.5> 620 63<529.5 535 535 584>
VStem: 294 71<58 66 66 261 261 261> 433 71<-134 621 -134 677 -134 677>
LayerCount: 2
Fore
SplineSet
294 58 m 2,0,-1
 294 261 l 1,1,-1
 271 261 l 2,2,3
 172 261 172 261 112 316.5 c 128,-1,4
 52 372 52 372 52 475 c 128,-1,5
 52 578 52 578 112 632.5 c 128,-1,6
 172 687 172 687 271 687 c 0,7,8
 306 687 306 687 359 684 c 1,9,-1
 365 678 l 1,10,-1
 365 66 l 2,11,12
 365 2 365 2 357 -37.5 c 128,-1,13
 349 -77 349 -77 324 -105 c 0,14,15
 282 -153 282 -153 208 -153 c 0,16,17
 134 -153 134 -153 80 -130 c 1,18,19
 80 -98 80 -98 101 -73 c 1,20,21
 149 -95 149 -95 199.5 -95 c 0,22,23
 250 -95 250 -95 272 -63 c 0,24,25
 294 -31 294 -31 294 58 c 2,0,-1
433 -134 m 1,26,-1
 433 677 l 1,27,-1
 439 683 l 1,28,-1
 584 683 l 1,29,30
 589 667 589 667 589 651.25 c 128,-1,31
 589 635.5 589 635.5 584 620 c 1,32,-1
 535 620 l 2,33,34
 513 620 513 620 504 621 c 1,35,-1
 504 -134 l 1,36,37
 489 -137 489 -137 467.5 -137 c 0,38,39
 446 -137 446 -137 433 -134 c 1,26,-1
EndSplineSet
EndChar

StartChar: braceleft
Encoding: 123 123 119
Width: 312
Flags: HMW
HStem: -161 969<291 291>
VStem: 37 75 121 70<0 1 1 175 471 473 473 646>
LayerCount: 2
Fore
SplineSet
41 348 m 1,0,1
 76 363 76 363 98.5 394 c 128,-1,2
 121 425 121 425 121 471 c 2,3,-1
 121 647 l 2,4,5
 121 712 121 712 156.5 751.5 c 128,-1,6
 192 791 192 791 250 801 c 2,7,-1
 291 808 l 1,8,9
 304.884615385 792.653846154 304.884615385 792.653846154 304.884615385 778.5 c 0,10,11
 304.884615385 764.346153846 304.884615385 764.346153846 303 756 c 1,12,-1
 260 743 l 2,13,14
 191 722 191 722 191 646 c 2,15,-1
 191 473 l 2,16,17
 191 427 191 427 169.5 386.5 c 128,-1,18
 148 346 148 346 112 328 c 1,19,-1
 112 320 l 1,20,21
 148 302 148 302 169.5 261.5 c 128,-1,22
 191 221 191 221 191 175 c 2,23,-1
 191 1 l 2,24,25
 191 -74 191 -74 260 -97 c 1,26,-1
 303 -109 l 1,27,28
 304.884615385 -117.346153846 304.884615385 -117.346153846 304.884615385 -131.5 c 0,29,30
 304.884615385 -145.653846154 304.884615385 -145.653846154 291 -161 c 1,31,-1
 250 -154 l 2,32,33
 192 -144 192 -144 156.5 -104.5 c 128,-1,34
 121 -65 121 -65 121 0 c 2,35,-1
 121 177 l 2,36,37
 121 222 121 222 98.5 254 c 128,-1,38
 76 286 76 286 41 300 c 1,39,40
 37 308 37 308 37 324 c 128,-1,41
 37 340 37 340 41 348 c 1,0,1
EndSplineSet
EndChar

StartChar: braceright
Encoding: 125 125 120
Width: 312
Flags: HMW
HStem: -161 969<21 21>
VStem: 120 71<1 175 175 177 473 646 646 647>
LayerCount: 2
Fore
SplineSet
271 348 m 1,0,1
 275 340 275 340 275 324 c 128,-1,2
 275 308 275 308 271 300 c 1,3,4
 236 286 236 286 213.5 254 c 128,-1,5
 191 222 191 222 191 177 c 2,6,-1
 191 0 l 2,7,8
 191 -65 191 -65 155.5 -104.5 c 128,-1,9
 120 -144 120 -144 61 -154 c 2,10,-1
 21 -161 l 1,11,12
 7.11538461538 -145.653846154 7.11538461538 -145.653846154 7.11538461538 -131.5 c 0,13,14
 7.11538461538 -117.346153846 7.11538461538 -117.346153846 9 -109 c 1,15,-1
 52 -97 l 1,16,17
 120 -75 120 -75 120 1 c 2,18,-1
 120 175 l 2,19,20
 120 221 120 221 142 261.5 c 128,-1,21
 164 302 164 302 200 320 c 1,22,-1
 200 328 l 1,23,24
 164 346 164 346 142 386.5 c 128,-1,25
 120 427 120 427 120 473 c 2,26,-1
 120 646 l 2,27,28
 120 722 120 722 52 743 c 2,29,-1
 9 756 l 1,30,31
 7.11538461538 764.346153846 7.11538461538 764.346153846 7.11538461538 778.5 c 0,32,33
 7.11538461538 792.653846154 7.11538461538 792.653846154 21 808 c 1,34,-1
 61 801 l 2,35,36
 120 791 120 791 155.5 751.5 c 128,-1,37
 191 712 191 712 191 647 c 2,38,-1
 191 471 l 2,39,40
 191 425 191 425 213.5 394 c 128,-1,41
 236 363 236 363 271 348 c 1,0,1
EndSplineSet
EndChar

StartChar: parenleft
Encoding: 40 40 121
Width: 303
Flags: HMW
HStem: -168 988<247 247>
VStem: 65 77<245 407 245 413>
LayerCount: 2
Fore
SplineSet
142 326 m 128,-1,1
 142 56 142 56 290 -128 c 1,2,3
 276 -159 276 -159 247 -168 c 1,4,5
 163 -84 163 -84 114 53.5 c 128,-1,6
 65 191 65 191 65 326 c 128,-1,7
 65 461 65 461 114 598.5 c 128,-1,8
 163 736 163 736 247 820 c 1,9,10
 276 811 276 811 290 780 c 1,11,0
 142 596 142 596 142 326 c 128,-1,1
EndSplineSet
EndChar

StartChar: parenright
Encoding: 41 41 122
Width: 303
Flags: HMW
HStem: -168 988<56 56>
VStem: 161 77<245 407>
LayerCount: 2
Fore
SplineSet
161 326 m 128,-1,1
 161 596 161 596 13 780 c 1,2,3
 27 812 27 812 56 820 c 1,4,5
 140 736 140 736 189 598.5 c 128,-1,6
 238 461 238 461 238 326 c 128,-1,7
 238 191 238 191 189 53.5 c 128,-1,8
 140 -84 140 -84 56 -168 c 1,9,10
 27 -160 27 -160 13 -128 c 1,11,0
 161 56 161 56 161 326 c 128,-1,1
EndSplineSet
EndChar

StartChar: bracketleft
Encoding: 91 91 123
Width: 310
Flags: HMW
HStem: -136 58 745 58
VStem: 100 71<-77 744 -77 801 -77 801>
LayerCount: 2
Fore
SplineSet
278 -133 m 1,0,-1
 106 -140 l 1,1,-1
 100 -134 l 1,2,-1
 100 801 l 1,3,-1
 106 807 l 1,4,-1
 278 800 l 1,5,6
 280 792 280 792 280 777.5 c 0,7,8
 280 763 280 763 274 747 c 1,9,-1
 171 744 l 1,10,-1
 171 -77 l 1,11,-1
 274 -79 l 1,12,13
 280 -97 280 -97 280 -111 c 128,-1,14
 280 -125 280 -125 278 -133 c 1,0,-1
EndSplineSet
EndChar

StartChar: bracketright
Encoding: 93 93 124
Width: 310
Flags: HMW
HStem: -136 58 745 58
VStem: 139 71<-77 744 744 744>
LayerCount: 2
Fore
SplineSet
204 -140 m 1,0,-1
 32 -133 l 1,1,2
 30 -125 30 -125 30 -111 c 128,-1,3
 30 -97 30 -97 36 -79 c 1,4,-1
 139 -77 l 1,5,-1
 139 744 l 1,6,-1
 36 747 l 1,7,8
 30 763 30 763 30 777.5 c 0,9,10
 30 792 30 792 32 800 c 1,11,-1
 204 807 l 1,12,-1
 210 801 l 1,13,-1
 210 -134 l 1,14,-1
 204 -140 l 1,0,-1
EndSplineSet
EndChar

StartChar: currency
Encoding: 164 164 125
Width: 565
Flags: HMW
HStem: 125 54<258 306> 492 54<258 306 258 324>
VStem: 72 72<311.5 358.5> 421 71<311.5 358.5 311.5 376.5>
LayerCount: 2
Fore
SplineSet
72 335 m 128,-1,1
 72 405 72 405 111 460 c 1,2,-1
 38 537 l 1,3,4
 53 563 53 563 80 579 c 1,5,-1
 156 506 l 1,6,7
 212 546 212 546 281.5 546 c 128,-1,8
 351 546 351 546 406 507 c 1,9,-1
 484 580 l 1,10,11
 511 565 511 565 525 538 c 1,12,-1
 453 460 l 1,13,14
 492 403 492 403 492 334.5 c 128,-1,15
 492 266 492 266 454 211 c 1,16,-1
 526 134 l 1,17,18
 513 108 513 108 485 93 c 1,19,-1
 408 164 l 1,20,21
 353 125 353 125 282 125 c 128,-1,22
 211 125 211 125 156 164 c 1,23,-1
 80 93 l 1,24,25
 53 106 53 106 38 134 c 1,26,-1
 110 211 l 1,27,0
 72 265 72 265 72 335 c 128,-1,1
182.5 446 m 128,-1,29
 144 400 144 400 144 335.5 c 128,-1,30
 144 271 144 271 182.5 225 c 128,-1,31
 221 179 221 179 282 179 c 128,-1,32
 343 179 343 179 382 225 c 128,-1,33
 421 271 421 271 421 335 c 128,-1,34
 421 399 421 399 382 445.5 c 128,-1,35
 343 492 343 492 282 492 c 128,-1,28
 221 492 221 492 182.5 446 c 128,-1,29
EndSplineSet
EndChar

StartChar: dollar
Encoding: 36 36 126
Width: 493
Flags: HMW
HStem: 40 60<265 265> 545 142<206 268.5>
VStem: 63 69<441.5 488.5 441.5 493> 202 63<-38 40 -38 43 -38 43> 206 63<605 687 605 687 605 687> 374 70<156 207>
LayerCount: 2
Fore
SplineSet
40 101 m 1,0,1
 42 135 42 135 71 157 c 1,2,3
 166 100 166 100 254 100 c 0,4,5
 305 100 305 100 339.5 122 c 128,-1,6
 374 144 374 144 374 180.5 c 0,7,8
 374 217 374 217 348.5 243.5 c 128,-1,9
 323 270 323 270 282 285 c 2,10,-1
 179 322 l 1,11,12
 63 365 63 365 63 457 c 0,13,14
 63 512 63 512 101 552.5 c 128,-1,15
 139 593 139 593 206 603 c 1,16,-1
 206 687 l 1,17,18
 217 690 217 690 237 690 c 0,19,20
 257 690 257 690 269 687 c 1,21,-1
 269 605 l 1,22,23
 346 600 346 600 424 563 c 1,24,25
 424 530 424 530 398 507 c 1,26,27
 320 545 320 545 256.5 545 c 0,28,29
 193 545 193 545 162.5 523 c 128,-1,30
 132 501 132 501 132 467 c 0,31,32
 132 433 132 433 151.5 416 c 128,-1,33
 171 399 171 399 215 384 c 2,34,-1
 316 348 l 2,35,36
 372 328 372 328 408 288.5 c 128,-1,37
 444 249 444 249 444 197 c 0,38,39
 444 128 444 128 397.5 85 c 128,-1,40
 351 42 351 42 265 40 c 1,41,-1
 265 -38 l 1,42,43
 249 -40 249 -40 232.5 -40 c 0,44,45
 216 -40 216 -40 202 -38 c 1,46,-1
 202 43 l 1,47,48
 107 55 107 55 40 101 c 1,0,1
EndSplineSet
EndChar

StartChar: cent
Encoding: 162 162 127
Width: 472
Flags: HMW
HStem: -30 159<219 219 215 282> 528 152<222 222 222 285 222 294.5>
VStem: 53 74<265 390.5 258.5 403.5> 219 63<-30 70 70 70>
LayerCount: 2
Fore
SplineSet
219 -30 m 1,0,-1
 219 70 l 1,1,2
 135 81 135 81 94 153.5 c 128,-1,3
 53 226 53 226 53 331.5 c 0,4,5
 53 437 53 437 101 503 c 128,-1,6
 149 569 149 569 222 581 c 1,7,-1
 222 680 l 1,8,9
 231 683 231 683 252 683 c 0,10,11
 273 683 273 683 285 680 c 1,12,-1
 285 582 l 1,13,14
 354 573 354 573 389.5 529 c 128,-1,15
 425 485 425 485 425 442 c 0,16,17
 425 399 425 399 389 399 c 0,18,19
 376 399 376 399 359 402 c 1,20,21
 359.533333333 408.666666667 359.533333333 408.666666667 359.533333333 415.12 c 0,22,23
 359.533333333 457.066666667 359.533333333 457.066666667 335.266666667 492.533333333 c 0,24,25
 311 528 311 528 252.5 528 c 0,26,27
 194 528 194 528 160.5 475 c 128,-1,28
 127 422 127 422 127 324.5 c 0,29,30
 127 227 127 227 160.5 178 c 128,-1,31
 194 129 194 129 257.5 129 c 0,32,33
 321 129 321 129 383 187 c 1,34,35
 410 176 410 176 421 147 c 1,36,37
 367 83 367 83 282 71 c 1,38,-1
 282 -30 l 1,39,40
 266 -32 266 -32 248.5 -32 c 0,41,42
 231 -32 231 -32 219 -30 c 1,0,-1
EndSplineSet
EndChar

StartChar: sterling
Encoding: 163 163 128
Width: 523
Flags: HMW
HStem: 0 62<253 431> 276 56 599 61<240.5 294.5>
VStem: 71 65<0 61 61 85> 82 72<458 521.5 458 526.5> 141 69<225 256 214 257.5>
LayerCount: 2
Fore
SplineSet
196 331 m 1,0,-1
 389 332 l 1,1,2
 391.5 318.5 391.5 318.5 391.5 304.25 c 128,-1,3
 391.5 290 391.5 290 389 275 c 1,4,5
 358 275 358 275 298 275.5 c 128,-1,6
 238 276 238 276 208 276 c 1,7,8
 210 260 210 260 210 252 c 0,9,10
 210 163 210 163 136 61 c 1,11,-1
 139 58 l 1,12,13
 247 62 247 62 253 62 c 2,14,-1
 478 62 l 1,15,16
 478 43 478 43 476 32 c 0,17,18
 472 0 472 0 431 0 c 2,19,-1
 71 0 l 1,20,21
 60 33 60 33 60 51 c 128,-1,22
 60 69 60 69 71 85 c 2,23,-1
 90 113 l 2,24,25
 141 188 141 188 141 254 c 0,26,27
 141 260 141 260 139 276 c 1,28,29
 114 275 114 275 64 275 c 1,30,31
 61 288.5 61 288.5 61 302.75 c 128,-1,32
 61 317 61 317 64 332 c 1,33,34
 105 332 105 332 126 331 c 1,35,36
 122 343 122 343 112 368 c 128,-1,37
 102 393 102 393 97 407.5 c 0,38,39
 82 451 82 451 82 486 c 0,40,41
 82 555 82 555 130 607.5 c 128,-1,42
 178 660 178 660 277 660 c 128,-1,43
 376 660 376 660 457 591 c 1,44,45
 456 576 456 576 445 560 c 128,-1,46
 434 544 434 544 420 540 c 1,47,48
 350 599 350 599 274 599 c 0,49,50
 222 599 222 599 188 568.5 c 128,-1,51
 154 538 154 538 154 485 c 0,52,53
 154 442.678571429 154 442.678571429 173.5 391.839285714 c 128,-1,54
 193 341 193 341 196 331 c 1,0,-1
EndSplineSet
EndChar

StartChar: Euro
Encoding: 8364 8364 129
Width: 569
Flags: HMW
HStem: -12 63<298 366 298 367.5> 224 54<34 105 34 110 34 105 184 416 184 184> 366 53<34 105 34 110 183 416> 597 63<297.5 366>
VStem: 105 73<278 278>
LayerCount: 2
Fore
SplineSet
499 537 m 1,0,1
 418 597 418 597 343 597 c 0,2,3
 207 597 207 597 183 419 c 1,4,-1
 416 419 l 1,5,6
 419 405 419 405 419 392.5 c 0,7,8
 419 380 419 380 416 366 c 1,9,-1
 178 366 l 1,10,11
 177 352 177 352 177 322 c 0,12,13
 177 292 177 292 178 278 c 1,14,-1
 416 278 l 1,15,16
 419 263 419 263 419 250 c 128,-1,17
 419 237 419 237 416 224 c 1,18,-1
 184 224 l 1,19,20
 210 51 210 51 343 51 c 0,21,22
 418 51 418 51 499 111 c 1,23,24
 526 94 526 94 537 64 c 1,25,26
 445 -12 445 -12 335 -12 c 0,27,28
 143 -12 143 -12 110 224 c 1,29,-1
 34 224 l 1,30,31
 31 237 31 237 31 250 c 128,-1,32
 31 263 31 263 34 278 c 1,33,-1
 105 278 l 1,34,35
 104 293 104 293 104 322.5 c 0,36,37
 104 352 104 352 105 366 c 1,38,-1
 34 366 l 1,39,40
 31 380 31 380 31 393 c 0,41,42
 31 406 31 406 34 419 c 1,43,-1
 110 419 l 1,44,45
 142 660 142 660 335 660 c 0,46,47
 443 660 443 660 537 584 c 1,48,49
 526 554 526 554 499 537 c 1,0,1
EndSplineSet
EndChar

StartChar: yen
Encoding: 165 165 130
Width: 494
Flags: HMW
HStem: 186 53<58 208 58 212 58 208 285 435> 328 54<58 145 58 169 58 145 347 435> 627 20G<464 464>
VStem: 212 69<0 186 0 186>
LayerCount: 2
Fore
SplineSet
435 186 m 1,0,-1
 281 186 l 1,1,-1
 281 0 l 1,2,3
 266 -3 266 -3 246 -3 c 128,-1,4
 226 -3 226 -3 212 0 c 1,5,-1
 212 186 l 1,6,-1
 58 186 l 1,7,8
 55 198 55 198 55 211 c 128,-1,9
 55 224 55 224 58 239 c 1,10,-1
 208 239 l 1,11,-1
 169 328 l 1,12,-1
 58 328 l 1,13,14
 55 342 55 342 55 354.5 c 0,15,16
 55 367 55 367 58 382 c 1,17,-1
 145 382 l 1,18,-1
 30 643 l 1,19,20
 54 657 54 657 77.5 657 c 0,21,22
 101 657 101 657 115 626 c 1,23,-1
 208 401 l 1,24,25
 221 375 221 375 248 298 c 1,26,-1
 253 298 l 1,27,28
 282 383 282 383 291 401 c 1,29,-1
 395 651 l 1,30,31
 412 656 412 656 429 656 c 0,32,33
 446 656 446 656 461 652 c 1,34,-1
 464 647 l 1,35,-1
 347 382 l 1,36,-1
 435 382 l 1,37,38
 438 367 438 367 438 354.5 c 0,39,40
 438 342 438 342 435 328 c 1,41,-1
 324 328 l 1,42,-1
 285 239 l 1,43,-1
 435 239 l 1,44,45
 438 224 438 224 438 211 c 128,-1,46
 438 198 438 198 435 186 c 1,0,-1
EndSplineSet
EndChar

StartChar: at
Encoding: 64 64 131
Width: 928
Flags: HMW
HStem: -179 55<347.5 477> 10 58<415 465.5> 15 55<674.5 720.5 674.5 737> 425 53<437 498> 620 52<373.5 581.5>
VStem: 58 69<116 338 116 353.5> 281 69<182 280 182 293> 573 67<149 153 122.5 386> 812 68<208.5 387>
LayerCount: 2
Fore
SplineSet
641 413 m 1,0,-1
 640 153 l 2,1,2
 640 108 640 108 652.5 89 c 128,-1,3
 665 70 665 70 692 70 c 0,4,5
 741 70 741 70 776.5 124 c 128,-1,6
 812 178 812 178 812 289 c 0,7,8
 812 437 812 437 721.5 528.5 c 128,-1,9
 631 620 631 620 477 620 c 0,10,11
 323 620 323 620 225 508 c 128,-1,12
 127 396 127 396 127 229.5 c 0,13,14
 127 63 127 63 213 -30.5 c 128,-1,15
 299 -124 299 -124 439 -124 c 0,16,17
 561 -124 561 -124 647 -88 c 1,18,19
 667 -104 667 -104 667 -138 c 1,20,21
 553 -179 553 -179 437 -179 c 0,22,23
 269 -179 269 -179 163.5 -70.5 c 128,-1,24
 58 38 58 38 58 228 c 128,-1,25
 58 418 58 418 176.5 545 c 128,-1,26
 295 672 295 672 477 672 c 0,27,28
 659 672 659 672 769.5 565.5 c 128,-1,29
 880 459 880 459 880 286 c 0,30,31
 880 162 880 162 823 88.5 c 128,-1,32
 766 15 766 15 685.5 15 c 0,33,34
 605 15 605 15 581 81 c 1,35,36
 519 10 519 10 442.5 10 c 0,37,38
 366 10 366 10 323.5 68 c 128,-1,39
 281 126 281 126 281 229 c 0,40,41
 281 332 281 332 334 405 c 128,-1,42
 387 478 387 478 478 478 c 128,-1,43
 569 478 569 478 641 413 c 1,0,-1
450 68 m 0,44,45
 482 68 482 68 517.5 92 c 128,-1,46
 553 116 553 116 573 149 c 1,47,-1
 573 386 l 1,48,49
 538 425 538 425 478.5 425 c 0,50,51
 419 425 419 425 384.5 368 c 128,-1,52
 350 311 350 311 350 233.5 c 0,53,54
 350 156 350 156 375 112 c 128,-1,55
 400 68 400 68 450 68 c 0,44,45
EndSplineSet
EndChar

StartChar: copyright
Encoding: 169 169 132
Width: 811
Flags: HMW
HStem: -18 54<321 489.5 321 506.5> 140 53<376.5 429.5 376.5 431> 491 53<374.5 440.5> 647 54<321 489.5>
VStem: 46 66<257.5 424.5 257.5 442.5> 231 69<294 389.5 294 409.5> 699 66<257.5 424.5>
LayerCount: 2
Fore
SplineSet
46 341 m 128,-1,1
 46 493 46 493 149.5 597 c 128,-1,2
 253 701 253 701 405 701 c 128,-1,3
 557 701 557 701 661 597 c 128,-1,4
 765 493 765 493 765 341 c 128,-1,5
 765 189 765 189 661 85.5 c 128,-1,6
 557 -18 557 -18 405 -18 c 128,-1,7
 253 -18 253 -18 149.5 85.5 c 128,-1,0
 46 189 46 189 46 341 c 128,-1,1
112 341 m 128,-1,9
 112 214 112 214 196 125 c 128,-1,10
 280 36 280 36 405 36 c 128,-1,11
 530 36 530 36 614.5 125 c 128,-1,12
 699 214 699 214 699 341 c 128,-1,13
 699 468 699 468 614.5 557.5 c 128,-1,14
 530 647 530 647 405 647 c 128,-1,15
 280 647 280 647 196 557.5 c 128,-1,8
 112 468 112 468 112 341 c 128,-1,9
495 390 m 1,16,17
 495.36 394.68 495.36 394.68 495.36 399.2448 c 0,18,19
 495.36 432.72 495.36 432.72 474.68 461.86 c 0,20,21
 454 491 454 491 406 491 c 128,-1,22
 358 491 358 491 329 451.5 c 128,-1,23
 300 412 300 412 300 341.5 c 0,24,25
 300 271 300 271 329.5 232 c 128,-1,26
 359 193 359 193 414 193 c 0,27,28
 469 193 469 193 520 239 c 1,29,30
 541 232 541 232 553 203 c 1,31,32
 526 175 526 175 485 157.5 c 128,-1,33
 444 140 444 140 402 140 c 0,34,35
 325 140 325 140 278 195 c 128,-1,36
 231 250 231 250 231 344 c 0,37,38
 231 438 231 438 283.5 491 c 128,-1,39
 336 544 336 544 408 544 c 128,-1,40
 480 544 480 544 518.5 504.5 c 128,-1,41
 557 465 557 465 557 425 c 0,42,43
 557 385 557 385 524 385 c 0,44,45
 508 385 508 385 495 390 c 1,16,17
EndSplineSet
EndChar

StartChar: registered
Encoding: 174 174 133
Width: 587
Flags: HMW
HStem: 235 49<236.5 350 236.5 364> 460 41<251 283 251 294> 578 39<251 329 285 298> 694 49<236.5 350>
VStem: 39 55<431.5 544.5 431.5 559> 200 51<365 460 365 501 501 578> 340 51<528.5 549> 493 55<431.5 544.5>
LayerCount: 2
Fore
SplineSet
112.5 308.5 m 128,-1,1
 39 382 39 382 39 488.5 c 128,-1,2
 39 595 39 595 113 669 c 128,-1,3
 187 743 187 743 293.5 743 c 128,-1,4
 400 743 400 743 474 668.5 c 128,-1,5
 548 594 548 594 548 488 c 128,-1,6
 548 382 548 382 474 308.5 c 128,-1,7
 400 235 400 235 293 235 c 128,-1,0
 186 235 186 235 112.5 308.5 c 128,-1,1
94 488 m 128,-1,9
 94 403 94 403 151.5 343.5 c 128,-1,10
 209 284 209 284 293.5 284 c 128,-1,11
 378 284 378 284 435.5 343.5 c 128,-1,12
 493 403 493 403 493 488.5 c 128,-1,13
 493 574 493 574 435.5 634 c 128,-1,14
 378 694 378 694 293.5 694 c 128,-1,15
 209 694 209 694 151.5 633.5 c 128,-1,8
 94 573 94 573 94 488 c 128,-1,9
367.5 597 m 128,-1,17
 391 577 391 577 391 546.5 c 0,18,19
 391 493 391 493 340 476 c 1,20,21
 354 470 354 470 373 435 c 2,22,-1
 389 406 l 2,23,24
 399 387 399 387 410 379 c 1,25,26
 399 360 399 360 378 360 c 128,-1,27
 357 360 357 360 342 390 c 2,28,-1
 316 439 l 2,29,30
 304 460 304 460 283 460 c 2,31,-1
 251 460 l 1,32,-1
 251 365 l 1,33,34
 238.25 361.25 238.25 361.25 225.5 361.25 c 1,35,-1
 200 365 l 1,36,-1
 200 612 l 1,37,-1
 203 615 l 1,38,39
 263 617 263 617 303.5 617 c 128,-1,16
 344 617 344 617 367.5 597 c 128,-1,17
251 578 m 1,40,-1
 251 501 l 1,41,-1
 294 501 l 2,42,43
 340 501 340 501 340 539 c 0,44,45
 340 555 340 555 329 566.5 c 128,-1,46
 318 578 318 578 298 578 c 2,47,-1
 251 578 l 1,40,-1
EndSplineSet
EndChar

StartChar: asciicircum
Encoding: 94 94 134
Width: 530
Flags: HMW
HStem: 589 59<262 268 262 262> 589 63
VStem: 54 422<306 306>
LayerCount: 2
Fore
SplineSet
302 648 m 1,0,-1
 476 306 l 1,1,2
 466 302 466 302 443 302 c 128,-1,3
 420 302 420 302 405 306 c 1,4,-1
 300 520 l 2,5,6
 279 564 279 564 268 589 c 1,7,-1
 262 589 l 1,8,9
 251 564 251 564 230 520 c 2,10,-1
 125 306 l 1,11,12
 110 302 110 302 87 302 c 128,-1,13
 64 302 64 302 54 306 c 1,14,-1
 228 648 l 1,15,16
 247 652.5 247 652.5 265.5 652.5 c 128,-1,17
 284 652.5 284 652.5 302 648 c 1,0,-1
EndSplineSet
EndChar

StartChar: underscore
Encoding: 95 95 135
Width: 506
Flags: HMW
HStem: -140 57<0 506 0 506>
VStem: -3 512<-119.5 -106>
LayerCount: 2
Fore
SplineSet
506 -140 m 1,0,-1
 0 -140 l 1,1,2
 -3 -131 -3 -131 -3 -113 c 128,-1,3
 -3 -95 -3 -95 0 -83 c 1,4,-1
 506 -83 l 1,5,6
 509 -95 509 -95 509 -113 c 128,-1,7
 509 -131 509 -131 506 -140 c 1,0,-1
EndSplineSet
EndChar

StartChar: section
Encoding: 167 167 136
Width: 476
Flags: HMW
HStem: -102 56<201.5 261.5 201.5 276> -28 20G 639 56<212.5 264.5> 641 20G
VStem: 35 72<275 326> 75 71<544.5 586.5 544.5 601.5> 331 70<7 48.5> 370 71<266.5 318>
LayerCount: 2
Fore
SplineSet
399 395.5 m 128,-1,1
 441 360 441 360 441 306.5 c 128,-1,2
 441 253 441 253 410 214 c 128,-1,3
 379 175 379 175 330 151 c 1,4,5
 401 105 401 105 401 38.5 c 128,-1,6
 401 -28 401 -28 351.5 -65 c 128,-1,7
 302 -102 302 -102 227 -102 c 0,8,9
 186 -102 186 -102 141.5 -90.5 c 128,-1,10
 97 -79 97 -79 69 -60 c 1,11,12
 69 -46 69 -46 77.5 -30.5 c 128,-1,13
 86 -15 86 -15 96 -8 c 1,14,15
 165 -46 165 -46 221 -46 c 128,-1,16
 277 -46 277 -46 304 -25.5 c 128,-1,17
 331 -5 331 -5 331 30 c 0,18,19
 331 78 331 78 253 110 c 1,20,-1
 194 133 l 2,21,22
 120 161 120 161 77.5 197 c 128,-1,23
 35 233 35 233 35 286.5 c 128,-1,24
 35 340 35 340 66 379 c 128,-1,25
 97 418 97 418 146 441 c 1,26,27
 75 486 75 486 75 553.5 c 128,-1,28
 75 621 75 621 123.5 658 c 128,-1,29
 172 695 172 695 246 695 c 128,-1,30
 320 695 320 695 390 661 c 1,31,32
 390 626 390 626 369 607 c 1,33,34
 298 639 298 639 248 639 c 128,-1,35
 198 639 198 639 172 618.5 c 128,-1,36
 146 598 146 598 146 563 c 0,37,38
 146 514 146 514 224 484 c 2,39,-1
 283 461 l 1,40,0
 357 431 357 431 399 395.5 c 128,-1,1
203 413 m 2,41,42
 201 413 201 413 201 414 c 1,43,44
 107 372 107 372 107 301 c 0,45,46
 107 266 107 266 136 244 c 128,-1,47
 165 222 165 222 216 202 c 2,48,-1
 273 180 l 2,49,50
 273 179 273 179 274 179 c 0,51,52
 370 222 370 222 370 292 c 0,53,54
 370 327 370 327 341 349 c 128,-1,55
 312 371 312 371 260 391 c 2,56,-1
 203 413 l 2,41,42
EndSplineSet
EndChar

StartChar: acute
Encoding: 180 180 137
Width: 398
Flags: HMW
HStem: 536 182<169 272>
VStem: 137 194<565 665>
LayerCount: 2
Fore
SplineSet
137 565 m 1,0,-1
 272 718 l 1,1,2
 291 712 291 712 307 697 c 128,-1,3
 323 682 323 682 331 665 c 1,4,-1
 169 536 l 1,5,6
 146 542 146 542 137 565 c 1,0,-1
EndSplineSet
EndChar

StartChar: grave
Encoding: 96 96 138
Width: 398
Flags: HMW
HStem: 536 182<130 233>
VStem: 71 194<565 665>
LayerCount: 2
Fore
SplineSet
130 718 m 1,0,-1
 265 565 l 1,1,2
 253 542 253 542 233 536 c 1,3,-1
 71 665 l 1,4,5
 79 682 79 682 95 697 c 128,-1,6
 111 712 111 712 130 718 c 1,0,-1
EndSplineSet
EndChar

StartChar: tilde
Encoding: 732 732 139
Width: 398
Flags: HMW
HStem: 557 64<272 285 272 287> 610 64<113 127>
VStem: 30 338<591 641>
LayerCount: 2
Fore
SplineSet
217 571 m 2,0,-1
 155 601 l 2,1,2
 135 610 135 610 117 610 c 0,3,4
 99 610 99 610 79 584 c 2,5,-1
 66 568 l 1,6,7
 38 570 38 570 30 591 c 1,8,-1
 39 611 l 2,9,10
 52 640 52 640 76 657 c 128,-1,11
 100 674 100 674 126.5 674 c 0,12,13
 153 674 153 674 181 660 c 2,14,-1
 243 630 l 2,15,16
 261 621 261 621 279.5 621 c 0,17,18
 298 621 298 621 319 647 c 2,19,-1
 332 663 l 1,20,21
 357 661 357 661 368 641 c 1,22,-1
 359 621 l 2,23,24
 330 557 330 557 270 557 c 0,25,26
 245 557 245 557 217 571 c 2,0,-1
EndSplineSet
EndChar

StartChar: asciitilde
Encoding: 126 126 140
Width: 555
Flags: HMW
HStem: 223 66<381 403 381 405.5> 290 66<151 173>
VStem: 45 465<262 318>
LayerCount: 2
Fore
SplineSet
258 336 m 2,0,-1
 334 302 l 2,1,2
 365 289 365 289 396 289 c 0,3,4
 427 289 427 289 455 325 c 1,5,-1
 469 344 l 1,6,7
 481 343 481 343 493.5 335.5 c 128,-1,8
 506 328 506 328 510 318 c 1,9,-1
 501 301 l 2,10,11
 460.5 223 460.5 223 378 223 c 0,12,13
 343 223 343 223 296 243 c 1,14,-1
 221 277 l 2,15,16
 190 290 190 290 159 290 c 0,17,18
 128 290 128 290 100 254 c 2,19,-1
 85 235 l 1,20,21
 73 236 73 236 61 243.5 c 128,-1,22
 49 251 49 251 45 262 c 1,23,-1
 54 279 l 2,24,25
 95 356 95 356 176 356 c 0,26,27
 215 356 215 356 258 336 c 2,0,-1
EndSplineSet
EndChar

StartChar: dieresis
Encoding: 168 168 141
Width: 398
Flags: HMW
HStem: 572 65<74 74 149 149 249 249 324 324>
VStem: 67 82 242 82
LayerCount: 2
Fore
SplineSet
249 572 m 1,0,1
 242 588 242 588 242 605.5 c 128,-1,2
 242 623 242 623 249 637 c 1,3,4
 263 646 263 646 287 646 c 128,-1,5
 311 646 311 646 324 637 c 1,6,7
 331 623 331 623 331 604.5 c 128,-1,8
 331 586 331 586 324 572 c 1,9,10
 313 563 313 563 287.5 563 c 128,-1,11
 262 563 262 563 249 572 c 1,0,1
74 572 m 1,12,13
 67 588 67 588 67 605.5 c 128,-1,14
 67 623 67 623 74 637 c 1,15,16
 87 646 87 646 111 646 c 128,-1,17
 135 646 135 646 149 637 c 1,18,19
 156 623 156 623 156 604.5 c 128,-1,20
 156 586 156 586 149 572 c 1,21,22
 136 563 136 563 110.5 563 c 128,-1,23
 85 563 85 563 74 572 c 1,12,13
EndSplineSet
EndChar

StartChar: cedilla
Encoding: 184 184 142
Width: 398
Flags: HMW
HStem: -218 21G<180 225.5> -218 47<182 209 182 225.5> -82 42 -82 82<188 209>
VStem: 242 61<-137.5 -114>
LayerCount: 2
Fore
SplineSet
152 -72 m 1,0,1
 163 -32 163 -32 178 0 c 1,2,-1
 233 0 l 1,3,4
 219 -28 219 -28 215 -40 c 1,5,6
 253 -43 253 -43 278 -66 c 128,-1,7
 303 -89 303 -89 303 -127.5 c 0,8,9
 303 -166 303 -166 272 -192 c 128,-1,10
 241 -218 241 -218 195.5 -218 c 0,11,12
 150 -218 150 -218 121 -200 c 1,13,14
 122 -179 122 -179 139 -157 c 1,15,16
 162 -171 162 -171 189 -171 c 0,17,18
 216 -171 216 -171 229 -158 c 128,-1,19
 242 -145 242 -145 242 -126 c 128,-1,20
 242 -107 242 -107 229 -94.5 c 128,-1,21
 216 -82 216 -82 197.5 -82 c 0,22,23
 179 -82 179 -82 167 -87 c 1,24,25
 155 -82 155 -82 152 -72 c 1,0,1
EndSplineSet
EndChar

StartChar: circumflex
Encoding: 710 710 143
Width: 398
Flags: HMW
HStem: 538 167
VStem: 63 269<570 576>
LayerCount: 2
Fore
SplineSet
294 543 m 1,0,-1
 199 637 l 1,1,-1
 97 538 l 1,2,3
 75 548 75 548 63 570 c 1,4,-1
 170 702 l 1,5,6
 182.266666667 706.266666667 182.266666667 706.266666667 197.5 706.266666667 c 0,7,8
 212.733333333 706.266666667 212.733333333 706.266666667 230 703 c 1,9,-1
 332 576 l 1,10,11
 319 550 319 550 294 543 c 1,0,-1
EndSplineSet
EndChar

StartChar: macron
Encoding: 175 175 144
Width: 398
Flags: HMW
HStem: 578 63<67 331 67 331>
VStem: 67 264<578 578 578 641>
LayerCount: 2
Fore
SplineSet
331 578 m 1,0,-1
 67 578 l 1,1,2
 64 592 64 592 64 610 c 0,3,4
 64 628 64 628 67 641 c 1,5,-1
 331 641 l 1,6,7
 334 628 334 628 334 610 c 0,8,9
 334 592 334 592 331 578 c 1,0,-1
EndSplineSet
EndChar

StartChar: ae
Encoding: 230 230 145
Width: 799
Flags: HMW
HStem: -12 61<507.5 578> 224 54<421 668 421 735 421 668> 240 53<203 257.5> 441 59<231.5 287.5> 449 53<512.5 591>
VStem: 52 70<113.5 171.5 113.5 189> 352 69<224 336> 668 71<278 290 290 332.5>
LayerCount: 2
Fore
SplineSet
735 224 m 1,0,-1
 421 224 l 1,1,2
 426 49 426 49 553 49 c 0,3,4
 622 49 622 49 699 93 c 1,5,6
 721 74 721 74 725 44 c 1,7,8
 644 -12 644 -12 544 -12 c 0,9,10
 429 -12 429 -12 383 83 c 1,11,12
 350 43 350 43 301 15.5 c 128,-1,13
 252 -12 252 -12 189.5 -12 c 128,-1,14
 127 -12 127 -12 89.5 31 c 128,-1,15
 52 74 52 74 52 134 c 0,16,17
 52 214 52 214 102 253.5 c 128,-1,18
 152 293 152 293 239 293 c 0,19,20
 295 293 295 293 352 282 c 1,21,-1
 352 336 l 2,22,23
 352 441 352 441 259 441 c 0,24,25
 188 441 188 441 95 399 c 1,26,27
 85 407 85 407 77.5 423 c 128,-1,28
 70 439 70 439 70 453 c 1,29,30
 175 500 175 500 269.5 500 c 128,-1,31
 364 500 364 500 400 424 c 1,32,33
 454 502 454 502 546.5 502 c 128,-1,34
 639 502 639 502 689 441.5 c 128,-1,35
 739 381 739 381 739 288 c 0,36,37
 739 256 739 256 735 224 c 1,0,-1
143.5 73 m 128,-1,39
 165 47 165 47 205 47 c 128,-1,40
 245 47 245 47 288 70 c 128,-1,41
 331 93 331 93 363 139 c 1,42,43
 354 172 354 172 351 229 c 1,44,45
 294 240 294 240 239 240 c 128,-1,46
 184 240 184 240 153 213.5 c 128,-1,47
 122 187 122 187 122 143 c 128,-1,38
 122 99 122 99 143.5 73 c 128,-1,39
638.5 404.5 m 128,-1,49
 609 449 609 449 550 449 c 128,-1,50
 491 449 491 449 458 403 c 128,-1,51
 425 357 425 357 421 278 c 1,52,-1
 668 278 l 1,53,-1
 668 290 l 2,54,48
 668 360 668 360 638.5 404.5 c 128,-1,49
EndSplineSet
EndChar

StartChar: agrave
Encoding: 224 224 146
Width: 503
Flags: HMW
HStem: -12 59<177 227.5 177 229.5> 240 53<203 256 183 257.5> 441 59<231.5 287.5> 536 182<176 279>
VStem: 52 70<112.5 170.5 112.5 188> 117 194<565 665> 352 65<133 232 232 232 283 334>
LayerCount: 2
Fore
SplineSet
445 28 m 1,0,1
 435 3 435 3 413 -7 c 1,2,3
 365 12 365 12 355 65 c 1,4,5
 278 -12 278 -12 196 -12 c 0,6,7
 128 -12 128 -12 90 31.5 c 128,-1,8
 52 75 52 75 52 133 c 0,9,10
 52 213 52 213 102 253 c 128,-1,11
 152 293 152 293 239 293 c 0,12,13
 298 293 298 293 352 283 c 1,14,-1
 352 336 l 2,15,16
 352 441 352 441 259 441 c 0,17,18
 188 441 188 441 95 399 c 1,19,20
 85 407 85 407 77.5 423 c 128,-1,21
 70 439 70 439 70 453 c 1,22,23
 175 500 175 500 264 500 c 0,24,25
 417 500 417 500 417 334 c 2,26,-1
 417 128 l 2,27,28
 417 55 417 55 445 28 c 1,0,1
143.5 72.5 m 128,-1,30
 165 47 165 47 203 47 c 128,-1,31
 241 47 241 47 281 69 c 128,-1,32
 321 91 321 91 352 133 c 1,33,-1
 352 232 l 1,34,35
 296 240 296 240 240.5 240 c 128,-1,36
 185 240 185 240 153.5 213 c 128,-1,37
 122 186 122 186 122 142 c 128,-1,29
 122 98 122 98 143.5 72.5 c 128,-1,30
176 718 m 1,38,-1
 311 565 l 1,39,40
 299 542 299 542 279 536 c 1,41,-1
 117 665 l 1,42,43
 125 682 125 682 141 697 c 128,-1,44
 157 712 157 712 176 718 c 1,38,-1
EndSplineSet
EndChar

StartChar: aacute
Encoding: 225 225 147
Width: 503
Flags: HMW
HStem: -12 59<177 227.5 177 229.5> 240 53<203 256 183 257.5> 441 59<231.5 287.5> 536 182<211 314>
VStem: 52 70<112.5 170.5 112.5 188> 179 194<565 665> 352 65<133 232 232 232 283 334>
LayerCount: 2
Fore
SplineSet
445 28 m 1,0,1
 435 3 435 3 413 -7 c 1,2,3
 365 12 365 12 355 65 c 1,4,5
 278 -12 278 -12 196 -12 c 0,6,7
 128 -12 128 -12 90 31.5 c 128,-1,8
 52 75 52 75 52 133 c 0,9,10
 52 213 52 213 102 253 c 128,-1,11
 152 293 152 293 239 293 c 0,12,13
 298 293 298 293 352 283 c 1,14,-1
 352 336 l 2,15,16
 352 441 352 441 259 441 c 0,17,18
 188 441 188 441 95 399 c 1,19,20
 85 407 85 407 77.5 423 c 128,-1,21
 70 439 70 439 70 453 c 1,22,23
 175 500 175 500 264 500 c 0,24,25
 417 500 417 500 417 334 c 2,26,-1
 417 128 l 2,27,28
 417 55 417 55 445 28 c 1,0,1
143.5 72.5 m 128,-1,30
 165 47 165 47 203 47 c 128,-1,31
 241 47 241 47 281 69 c 128,-1,32
 321 91 321 91 352 133 c 1,33,-1
 352 232 l 1,34,35
 296 240 296 240 240.5 240 c 128,-1,36
 185 240 185 240 153.5 213 c 128,-1,37
 122 186 122 186 122 142 c 128,-1,29
 122 98 122 98 143.5 72.5 c 128,-1,30
179 565 m 1,38,-1
 314 718 l 1,39,40
 333 712 333 712 349 697 c 128,-1,41
 365 682 365 682 373 665 c 1,42,-1
 211 536 l 1,43,44
 188 542 188 542 179 565 c 1,38,-1
EndSplineSet
EndChar

StartChar: acircumflex
Encoding: 226 226 148
Width: 503
Flags: HMW
HStem: -12 59<177 227.5 177 229.5> 240 53<203 256 183 257.5> 441 59<231.5 287.5> 538 167
VStem: 52 70<112.5 170.5 112.5 188> 105 269<570 576> 352 65<133 232 232 232 283 334>
LayerCount: 2
Fore
SplineSet
445 28 m 1,0,1
 435 3 435 3 413 -7 c 1,2,3
 365 12 365 12 355 65 c 1,4,5
 278 -12 278 -12 196 -12 c 0,6,7
 128 -12 128 -12 90 31.5 c 128,-1,8
 52 75 52 75 52 133 c 0,9,10
 52 213 52 213 102 253 c 128,-1,11
 152 293 152 293 239 293 c 0,12,13
 298 293 298 293 352 283 c 1,14,-1
 352 336 l 2,15,16
 352 441 352 441 259 441 c 0,17,18
 188 441 188 441 95 399 c 1,19,20
 85 407 85 407 77.5 423 c 128,-1,21
 70 439 70 439 70 453 c 1,22,23
 175 500 175 500 264 500 c 0,24,25
 417 500 417 500 417 334 c 2,26,-1
 417 128 l 2,27,28
 417 55 417 55 445 28 c 1,0,1
143.5 72.5 m 128,-1,30
 165 47 165 47 203 47 c 128,-1,31
 241 47 241 47 281 69 c 128,-1,32
 321 91 321 91 352 133 c 1,33,-1
 352 232 l 1,34,35
 296 240 296 240 240.5 240 c 128,-1,36
 185 240 185 240 153.5 213 c 128,-1,37
 122 186 122 186 122 142 c 128,-1,29
 122 98 122 98 143.5 72.5 c 128,-1,30
336 543 m 1,38,-1
 241 637 l 1,39,-1
 139 538 l 1,40,41
 117 548 117 548 105 570 c 1,42,-1
 212 702 l 1,43,44
 224.266666667 706.266666667 224.266666667 706.266666667 239.5 706.266666667 c 128,-1,45
 254.733333333 706.266666667 254.733333333 706.266666667 272 703 c 1,46,-1
 374 576 l 1,47,48
 361 550 361 550 336 543 c 1,38,-1
EndSplineSet
EndChar

StartChar: adieresis
Encoding: 228 228 149
Width: 503
Flags: HMW
HStem: -12 59<177 227.5 177 229.5> 240 53<203 256 183 257.5> 441 59<231.5 287.5> 572 65<116 116 191 191 291 291 366 366>
VStem: 52 70<112.5 170.5 112.5 188> 109 82 284 82 352 65<133 232 232 232 283 334>
LayerCount: 2
Fore
SplineSet
445 28 m 1,0,1
 435 3 435 3 413 -7 c 1,2,3
 365 12 365 12 355 65 c 1,4,5
 278 -12 278 -12 196 -12 c 0,6,7
 128 -12 128 -12 90 31.5 c 128,-1,8
 52 75 52 75 52 133 c 0,9,10
 52 213 52 213 102 253 c 128,-1,11
 152 293 152 293 239 293 c 0,12,13
 298 293 298 293 352 283 c 1,14,-1
 352 336 l 2,15,16
 352 441 352 441 259 441 c 0,17,18
 188 441 188 441 95 399 c 1,19,20
 85 407 85 407 77.5 423 c 128,-1,21
 70 439 70 439 70 453 c 1,22,23
 175 500 175 500 264 500 c 0,24,25
 417 500 417 500 417 334 c 2,26,-1
 417 128 l 2,27,28
 417 55 417 55 445 28 c 1,0,1
143.5 72.5 m 128,-1,30
 165 47 165 47 203 47 c 128,-1,31
 241 47 241 47 281 69 c 128,-1,32
 321 91 321 91 352 133 c 1,33,-1
 352 232 l 1,34,35
 296 240 296 240 240.5 240 c 128,-1,36
 185 240 185 240 153.5 213 c 128,-1,37
 122 186 122 186 122 142 c 128,-1,29
 122 98 122 98 143.5 72.5 c 128,-1,30
291 572 m 1,38,39
 284 588 284 588 284 605.5 c 128,-1,40
 284 623 284 623 291 637 c 1,41,42
 305 646 305 646 329 646 c 128,-1,43
 353 646 353 646 366 637 c 1,44,45
 373 623 373 623 373 604.5 c 128,-1,46
 373 586 373 586 366 572 c 1,47,48
 355 563 355 563 329.5 563 c 128,-1,49
 304 563 304 563 291 572 c 1,38,39
116 572 m 1,50,51
 109 588 109 588 109 605.5 c 128,-1,52
 109 623 109 623 116 637 c 1,53,54
 129 646 129 646 153 646 c 128,-1,55
 177 646 177 646 191 637 c 1,56,57
 198 623 198 623 198 604.5 c 128,-1,58
 198 586 198 586 191 572 c 1,59,60
 178 563 178 563 152.5 563 c 128,-1,61
 127 563 127 563 116 572 c 1,50,51
EndSplineSet
EndChar

StartChar: atilde
Encoding: 227 227 150
Width: 503
Flags: HMW
HStem: -12 59<177 227.5 177 229.5> 240 53<203 256 183 257.5> 441 59<231.5 287.5> 557 64<314 327 314 329>
VStem: 52 70<112.5 170.5 112.5 188> 72 338<591 641> 352 65<133 232 232 232 283 334>
LayerCount: 2
Fore
SplineSet
445 28 m 1,0,1
 435 3 435 3 413 -7 c 1,2,3
 365 12 365 12 355 65 c 1,4,5
 278 -12 278 -12 196 -12 c 0,6,7
 128 -12 128 -12 90 31.5 c 128,-1,8
 52 75 52 75 52 133 c 0,9,10
 52 213 52 213 102 253 c 128,-1,11
 152 293 152 293 239 293 c 0,12,13
 298 293 298 293 352 283 c 1,14,-1
 352 336 l 2,15,16
 352 441 352 441 259 441 c 0,17,18
 188 441 188 441 95 399 c 1,19,20
 85 407 85 407 77.5 423 c 128,-1,21
 70 439 70 439 70 453 c 1,22,23
 175 500 175 500 264 500 c 0,24,25
 417 500 417 500 417 334 c 2,26,-1
 417 128 l 2,27,28
 417 55 417 55 445 28 c 1,0,1
143.5 72.5 m 128,-1,30
 165 47 165 47 203 47 c 128,-1,31
 241 47 241 47 281 69 c 128,-1,32
 321 91 321 91 352 133 c 1,33,-1
 352 232 l 1,34,35
 296 240 296 240 240.5 240 c 128,-1,36
 185 240 185 240 153.5 213 c 128,-1,37
 122 186 122 186 122 142 c 128,-1,29
 122 98 122 98 143.5 72.5 c 128,-1,30
259 571 m 2,38,-1
 197 601 l 2,39,40
 177 610 177 610 159 610 c 128,-1,41
 141 610 141 610 121 584 c 2,42,-1
 108 568 l 1,43,44
 80 570 80 570 72 591 c 1,45,-1
 81 611 l 2,46,47
 94 640 94 640 118 657 c 128,-1,48
 142 674 142 674 168.5 674 c 128,-1,49
 195 674 195 674 223 660 c 2,50,-1
 285 630 l 2,51,52
 303 621 303 621 321.5 621 c 128,-1,53
 340 621 340 621 361 647 c 2,54,-1
 374 663 l 1,55,56
 399 661 399 661 410 641 c 1,57,-1
 401 621 l 2,58,59
 372 557 372 557 312 557 c 0,60,61
 287 557 287 557 259 571 c 2,38,-1
EndSplineSet
EndChar

StartChar: aring
Encoding: 229 229 151
Width: 503
Flags: HMW
HStem: -12 59<177 227.5 177 229.5> 240 53<203 256 183 257.5> 441 59<231.5 287.5> 536 46<226.5 255.5 226.5 272> 697 46<226.5 255.5>
VStem: 52 70<112.5 170.5 112.5 188> 134 56<622.5 656 622.5 667.5> 292 56<622.5 656> 352 65<133 232 232 232 283 334>
LayerCount: 2
Fore
SplineSet
445 28 m 1,0,1
 435 3 435 3 413 -7 c 1,2,3
 365 12 365 12 355 65 c 1,4,5
 278 -12 278 -12 196 -12 c 0,6,7
 128 -12 128 -12 90 31.5 c 128,-1,8
 52 75 52 75 52 133 c 0,9,10
 52 213 52 213 102 253 c 128,-1,11
 152 293 152 293 239 293 c 0,12,13
 298 293 298 293 352 283 c 1,14,-1
 352 336 l 2,15,16
 352 441 352 441 259 441 c 0,17,18
 188 441 188 441 95 399 c 1,19,20
 85 407 85 407 77.5 423 c 128,-1,21
 70 439 70 439 70 453 c 1,22,23
 175 500 175 500 264 500 c 0,24,25
 417 500 417 500 417 334 c 2,26,-1
 417 128 l 2,27,28
 417 55 417 55 445 28 c 1,0,1
143.5 72.5 m 128,-1,30
 165 47 165 47 203 47 c 128,-1,31
 241 47 241 47 281 69 c 128,-1,32
 321 91 321 91 352 133 c 1,33,-1
 352 232 l 1,34,35
 296 240 296 240 240.5 240 c 128,-1,36
 185 240 185 240 153.5 213 c 128,-1,37
 122 186 122 186 122 142 c 128,-1,29
 122 98 122 98 143.5 72.5 c 128,-1,30
134 639 m 128,-1,39
 134 682 134 682 164.5 712.5 c 128,-1,40
 195 743 195 743 241 743 c 128,-1,41
 287 743 287 743 317.5 712.5 c 128,-1,42
 348 682 348 682 348 639 c 128,-1,43
 348 596 348 596 317.5 566 c 128,-1,44
 287 536 287 536 241 536 c 128,-1,45
 195 536 195 536 164.5 566 c 128,-1,38
 134 596 134 596 134 639 c 128,-1,39
190 639 m 128,-1,47
 190 614 190 614 204.5 598 c 128,-1,48
 219 582 219 582 241 582 c 128,-1,49
 263 582 263 582 277.5 598 c 128,-1,50
 292 614 292 614 292 639 c 128,-1,51
 292 664 292 664 277.5 680.5 c 128,-1,52
 263 697 263 697 241 697 c 128,-1,53
 219 697 219 697 204.5 680.5 c 128,-1,46
 190 664 190 664 190 639 c 128,-1,47
EndSplineSet
EndChar

StartChar: ccedilla
Encoding: 231 231 152
Width: 469
Flags: HMW
HStem: -218 21G<228 273.5> -218 47<230 257 230 273.5> -82 130<236 257> 447 55<214 294.5>
VStem: 53 72<183 308 176.5 331> 289 62<-137.5 -114>
LayerCount: 2
Fore
SplineSet
200 -72 m 1,0,1
 209 -40 209 -40 221 -10 c 1,2,3
 163 -3 163 -3 123.5 36 c 0,4,5
 53 105.607594937 53 105.607594937 53 236.803797468 c 128,-1,6
 53 368 53 368 111 435 c 128,-1,7
 169 502 169 502 253 502 c 0,8,9
 298 502 298 502 333.5 487 c 128,-1,10
 369 472 369 472 387.5 449.5 c 0,11,12
 425 403.891891892 425 403.891891892 425 360.445945946 c 128,-1,13
 425 317 425 317 388 317 c 0,14,15
 376 317 376 317 359 320 c 1,16,17
 359.380952381 325.904761905 359.380952381 325.904761905 359.380952381 341.023809524 c 128,-1,18
 359.380952381 356.142857143 359.380952381 356.142857143 351.69047619 380.571428571 c 128,-1,19
 344 405 344 405 318 426 c 128,-1,20
 292 447 292 447 251 447 c 0,21,22
 194 447 194 447 159.5 393 c 128,-1,23
 125 339 125 339 125 242.5 c 128,-1,24
 125 146 125 146 159 97 c 128,-1,25
 193 48 193 48 252 48 c 128,-1,26
 311 48 311 48 385 104 c 1,27,28
 413 86 413 86 419 60 c 1,29,30
 354 0 354 0 276 -10 c 1,31,32
 268 -23 268 -23 263 -40 c 1,33,34
 301 -43 301 -43 326 -66 c 128,-1,35
 351 -89 351 -89 351 -127.5 c 128,-1,36
 351 -166 351 -166 320 -192 c 128,-1,37
 289 -218 289 -218 243.5 -218 c 128,-1,38
 198 -218 198 -218 169 -200 c 1,39,40
 170 -179 170 -179 187 -157 c 1,41,42
 210 -171 210 -171 237 -171 c 128,-1,43
 264 -171 264 -171 276.5 -158 c 128,-1,44
 289 -145 289 -145 289 -126 c 128,-1,45
 289 -107 289 -107 276.5 -94.5 c 128,-1,46
 264 -82 264 -82 245.5 -82 c 128,-1,47
 227 -82 227 -82 215 -87 c 1,48,49
 203 -82 203 -82 200 -72 c 1,0,1
EndSplineSet
EndChar

StartChar: egrave
Encoding: 232 232 153
Width: 503
Flags: HMW
HStem: -12 61<210.5 283> 224 54<126 374 126 440 126 374> 449 53<213 296> 536 182<190 293>
VStem: 53 73<224 224 224 278 224 320> 131 194<565 665> 374 70<278 292 292 334.5>
LayerCount: 2
Fore
SplineSet
440 224 m 1,0,-1
 126 224 l 1,1,2
 131 49 131 49 258 49 c 0,3,4
 328 49 328 49 404 92 c 1,5,6
 426 73 426 73 430 44 c 1,7,8
 350 -12 350 -12 249 -12 c 0,9,10
 178 -12 178 -12 133 25 c 128,-1,11
 88 62 88 62 70.5 117.5 c 128,-1,12
 53 173 53 173 53 246 c 0,13,14
 53 359 53 359 106.5 430.5 c 128,-1,15
 160 502 160 502 252 502 c 128,-1,16
 344 502 344 502 394 441.5 c 128,-1,17
 444 381 444 381 444 288 c 0,18,19
 444 256 444 256 440 224 c 1,0,-1
344 405 m 128,-1,21
 314 449 314 449 254.5 449 c 128,-1,22
 195 449 195 449 162 402.5 c 128,-1,23
 129 356 129 356 126 278 c 1,24,-1
 374 278 l 1,25,-1
 374 292 l 2,26,20
 374 361 374 361 344 405 c 128,-1,21
190 718 m 1,27,-1
 325 565 l 1,28,29
 313 542 313 542 293 536 c 1,30,-1
 131 665 l 1,31,32
 139 682 139 682 155 697 c 128,-1,33
 171 712 171 712 190 718 c 1,27,-1
EndSplineSet
EndChar

StartChar: eacute
Encoding: 233 233 154
Width: 503
Flags: HMW
HStem: -12 61<210.5 283> 224 54<126 374 126 440 126 374> 449 53<213 296> 536 182<225 328>
VStem: 53 73<224 224 224 278 224 320> 193 194<565 665> 374 70<278 292 292 334.5>
LayerCount: 2
Fore
SplineSet
440 224 m 1,0,-1
 126 224 l 1,1,2
 131 49 131 49 258 49 c 0,3,4
 328 49 328 49 404 92 c 1,5,6
 426 73 426 73 430 44 c 1,7,8
 350 -12 350 -12 249 -12 c 0,9,10
 178 -12 178 -12 133 25 c 128,-1,11
 88 62 88 62 70.5 117.5 c 128,-1,12
 53 173 53 173 53 246 c 0,13,14
 53 359 53 359 106.5 430.5 c 128,-1,15
 160 502 160 502 252 502 c 128,-1,16
 344 502 344 502 394 441.5 c 128,-1,17
 444 381 444 381 444 288 c 0,18,19
 444 256 444 256 440 224 c 1,0,-1
344 405 m 128,-1,21
 314 449 314 449 254.5 449 c 128,-1,22
 195 449 195 449 162 402.5 c 128,-1,23
 129 356 129 356 126 278 c 1,24,-1
 374 278 l 1,25,-1
 374 292 l 2,26,20
 374 361 374 361 344 405 c 128,-1,21
193 565 m 1,27,-1
 328 718 l 1,28,29
 347 712 347 712 363 697 c 128,-1,30
 379 682 379 682 387 665 c 1,31,-1
 225 536 l 1,32,33
 202 542 202 542 193 565 c 1,27,-1
EndSplineSet
EndChar

StartChar: ecircumflex
Encoding: 234 234 155
Width: 503
Flags: HMW
HStem: -12 61<210.5 283> 224 54<126 374 126 440 126 374> 449 53<213 296> 538 167
VStem: 53 73<224 224 224 278 224 320> 119 269<570 576> 374 70<278 292 292 334.5>
LayerCount: 2
Fore
SplineSet
440 224 m 1,0,-1
 126 224 l 1,1,2
 131 49 131 49 258 49 c 0,3,4
 328 49 328 49 404 92 c 1,5,6
 426 73 426 73 430 44 c 1,7,8
 350 -12 350 -12 249 -12 c 0,9,10
 178 -12 178 -12 133 25 c 128,-1,11
 88 62 88 62 70.5 117.5 c 128,-1,12
 53 173 53 173 53 246 c 0,13,14
 53 359 53 359 106.5 430.5 c 128,-1,15
 160 502 160 502 252 502 c 128,-1,16
 344 502 344 502 394 441.5 c 128,-1,17
 444 381 444 381 444 288 c 0,18,19
 444 256 444 256 440 224 c 1,0,-1
344 405 m 128,-1,21
 314 449 314 449 254.5 449 c 128,-1,22
 195 449 195 449 162 402.5 c 128,-1,23
 129 356 129 356 126 278 c 1,24,-1
 374 278 l 1,25,-1
 374 292 l 2,26,20
 374 361 374 361 344 405 c 128,-1,21
350 543 m 1,27,-1
 255 637 l 1,28,-1
 153 538 l 1,29,30
 131 548 131 548 119 570 c 1,31,-1
 226 702 l 1,32,33
 238.266666667 706.266666667 238.266666667 706.266666667 253.5 706.266666667 c 128,-1,34
 268.733333333 706.266666667 268.733333333 706.266666667 286 703 c 1,35,-1
 388 576 l 1,36,37
 375 550 375 550 350 543 c 1,27,-1
EndSplineSet
EndChar

StartChar: edieresis
Encoding: 235 235 156
Width: 503
Flags: HMW
HStem: -12 61<210.5 283> 224 54<126 374 126 440 126 374> 449 53<213 296> 572 65<130 130 205 205 305 305 380 380>
VStem: 53 73<224 224 224 278 224 320> 123 82 298 82 374 70<278 292 292 334.5>
LayerCount: 2
Fore
SplineSet
440 224 m 1,0,-1
 126 224 l 1,1,2
 131 49 131 49 258 49 c 0,3,4
 328 49 328 49 404 92 c 1,5,6
 426 73 426 73 430 44 c 1,7,8
 350 -12 350 -12 249 -12 c 0,9,10
 178 -12 178 -12 133 25 c 128,-1,11
 88 62 88 62 70.5 117.5 c 128,-1,12
 53 173 53 173 53 246 c 0,13,14
 53 359 53 359 106.5 430.5 c 128,-1,15
 160 502 160 502 252 502 c 128,-1,16
 344 502 344 502 394 441.5 c 128,-1,17
 444 381 444 381 444 288 c 0,18,19
 444 256 444 256 440 224 c 1,0,-1
344 405 m 128,-1,21
 314 449 314 449 254.5 449 c 128,-1,22
 195 449 195 449 162 402.5 c 128,-1,23
 129 356 129 356 126 278 c 1,24,-1
 374 278 l 1,25,-1
 374 292 l 2,26,20
 374 361 374 361 344 405 c 128,-1,21
305 572 m 1,27,28
 298 588 298 588 298 605.5 c 128,-1,29
 298 623 298 623 305 637 c 1,30,31
 319 646 319 646 343 646 c 128,-1,32
 367 646 367 646 380 637 c 1,33,34
 387 623 387 623 387 604.5 c 128,-1,35
 387 586 387 586 380 572 c 1,36,37
 369 563 369 563 343.5 563 c 128,-1,38
 318 563 318 563 305 572 c 1,27,28
130 572 m 1,39,40
 123 588 123 588 123 605.5 c 128,-1,41
 123 623 123 623 130 637 c 1,42,43
 143 646 143 646 167 646 c 128,-1,44
 191 646 191 646 205 637 c 1,45,46
 212 623 212 623 212 604.5 c 128,-1,47
 212 586 212 586 205 572 c 1,48,49
 192 563 192 563 166.5 563 c 128,-1,50
 141 563 141 563 130 572 c 1,39,40
EndSplineSet
EndChar

StartChar: hbar
Encoding: 295 295 157
Width: 547
Flags: HMW
HStem: 436 62<303.5 349> 576 52<93 93>
VStem: 93 67<0 356 425 576 576 576 628 688> 395 68<76.5 92 92 320 320 343>
LayerCount: 2
Fore
SplineSet
160 688 m 2,0,-1
 160 627 l 1,1,-1
 330 629 l 1,2,3
 332 609 332 609 332 601 c 0,4,5
 332 593 332 593 330 575 c 1,6,-1
 160 577 l 1,7,-1
 160 425 l 1,8,9
 193 458 193 458 240.5 478 c 128,-1,10
 288 498 288 498 335 498 c 0,11,12
 402 498 402 498 432.5 455 c 128,-1,13
 463 412 463 412 463 343 c 2,14,-1
 463 92 l 2,15,16
 463 36 463 36 473 9 c 1,17,18
 458 -6 458 -6 430 -6 c 0,19,20
 395 -6 395 -6 395 39 c 2,21,-1
 395 320 l 2,22,23
 395 383 395 383 379 409.5 c 128,-1,24
 363 436 363 436 321 436 c 0,25,26
 279 436 279 436 234 413.5 c 128,-1,27
 189 391 189 391 160 356 c 1,28,-1
 160 0 l 1,29,30
 146.5 -3 146.5 -3 126.25 -3 c 0,31,32
 106 -3 106 -3 93 0 c 1,33,-1
 93 576 l 1,34,-1
 26 575 l 1,35,36
 23 588 23 588 23 601 c 0,37,38
 23 614 23 614 26 629 c 1,39,-1
 93 628 l 1,40,-1
 93 729 l 1,41,-1
 99 735 l 1,42,-1
 124 735 l 2,43,44
 146 735 146 735 153 724 c 128,-1,45
 160 713 160 713 160 688 c 2,0,-1
EndSplineSet
EndChar

StartChar: dotlessi
Encoding: 305 305 158
Width: 253
Flags: HMW
HStem: 438 55<47 103 47 103>
VStem: 97 68<0 390 390 408.5>
LayerCount: 2
Fore
SplineSet
165 425 m 2,0,-1
 165 0 l 1,1,2
 152 -3 152 -3 131 -3 c 0,3,4
 110 -3 110 -3 97 0 c 1,5,-1
 97 390 l 2,6,7
 97 418 97 418 88 428 c 128,-1,8
 79 438 79 438 56 438 c 2,9,-1
 47 438 l 1,10,11
 44 451 44 451 44 462.5 c 0,12,13
 44 474 44 474 47 489 c 1,14,15
 76 493 76 493 95 493 c 2,16,-1
 103 493 l 2,17,18
 132 493 132 493 148.5 475 c 128,-1,19
 165 457 165 457 165 425 c 2,0,-1
EndSplineSet
EndChar

StartChar: itilde
Encoding: 297 297 159
Width: 253
Flags: HMW
HStem: 438 55<47 103 47 103> 557 64<187 200 187 202>
VStem: -55 338<591 641> 97 68<0 390 390 408.5>
LayerCount: 2
Fore
SplineSet
165 425 m 2,0,-1
 165 0 l 1,1,2
 152 -3 152 -3 131 -3 c 0,3,4
 110 -3 110 -3 97 0 c 1,5,-1
 97 390 l 2,6,7
 97 418 97 418 88 428 c 128,-1,8
 79 438 79 438 56 438 c 2,9,-1
 47 438 l 1,10,11
 44 451 44 451 44 462.5 c 0,12,13
 44 474 44 474 47 489 c 1,14,15
 76 493 76 493 95 493 c 2,16,-1
 103 493 l 2,17,18
 132 493 132 493 148.5 475 c 128,-1,19
 165 457 165 457 165 425 c 2,0,-1
132 571 m 2,20,-1
 70 601 l 2,21,22
 50 610 50 610 32 610 c 0,23,24
 14 610 14 610 -6 584 c 2,25,-1
 -19 568 l 1,26,27
 -47 570 -47 570 -55 591 c 1,28,-1
 -46 611 l 2,29,30
 -33 640 -33 640 -9 657 c 128,-1,31
 15 674 15 674 41.5 674 c 0,32,33
 68 674 68 674 96 660 c 2,34,-1
 158 630 l 2,35,36
 176 621 176 621 194.5 621 c 0,37,38
 213 621 213 621 234 647 c 2,39,-1
 247 663 l 1,40,41
 272 661 272 661 283 641 c 1,42,-1
 274 621 l 2,43,44
 245 557 245 557 185 557 c 0,45,46
 160 557 160 557 132 571 c 2,20,-1
EndSplineSet
EndChar

StartChar: ij
Encoding: 307 307 160
Width: 514
Flags: HMW
HStem: -219 21G 438 55<47 103 47 103> 588 71<74 74 158 158 334 334 418 418>
VStem: 67 91 97 68<0 390 390 408.5> 327 91 357 68<-49 12 12 390 390 408.5>
LayerCount: 2
Fore
SplineSet
165 425 m 2,0,-1
 165 0 l 1,1,2
 152 -3 152 -3 131 -3 c 128,-1,3
 110 -3 110 -3 97 0 c 1,4,-1
 97 390 l 2,5,6
 97 418 97 418 88 428 c 128,-1,7
 79 438 79 438 56 438 c 2,8,-1
 47 438 l 1,9,10
 44 451 44 451 44 462.5 c 128,-1,11
 44 474 44 474 47 489 c 1,12,13
 76 493 76 493 95 493 c 2,14,-1
 103 493 l 2,15,16
 132 493 132 493 148.5 475 c 128,-1,17
 165 457 165 457 165 425 c 2,0,-1
74 588 m 1,18,19
 67 602 67 602 67 624.5 c 128,-1,20
 67 647 67 647 74 659 c 1,21,22
 87 669 87 669 116.5 669 c 128,-1,23
 146 669 146 669 158 659 c 1,24,25
 165 647 165 647 165 624.5 c 128,-1,26
 165 602 165 602 158 588 c 1,27,28
 148 578 148 578 117.5 578 c 128,-1,29
 87 578 87 578 74 588 c 1,18,19
425 425 m 2,30,-1
 425 12 l 2,31,32
 425 -92.8807287754 425 -92.8807287754 416.32231405 -124.442524418 c 0,33,34
 397.889473416 -191.485000085 397.889473416 -191.485000085 311 -219 c 1,35,36
 295 -202 295 -202 289 -176 c 1,37,38
 329 -154 329 -154 343 -128 c 128,-1,39
 357 -102 357 -102 357 -52 c 2,40,-1
 357 390 l 2,41,42
 357 418 357 418 348 428 c 128,-1,43
 339 438 339 438 316 438 c 2,44,-1
 298 438 l 1,45,46
 295 451 295 451 295 462.5 c 128,-1,47
 295 474 295 474 298 489 c 1,48,49
 327 493 327 493 357 493 c 2,50,-1
 365 493 l 2,51,52
 393 493 393 493 409 474.5 c 128,-1,53
 425 456 425 456 425 425 c 2,30,-1
334 588 m 1,54,55
 327 602 327 602 327 624.5 c 128,-1,56
 327 647 327 647 334 659 c 1,57,58
 347 669 347 669 376.5 669 c 128,-1,59
 406 669 406 669 418 659 c 1,60,61
 425 647 425 647 425 624.5 c 128,-1,62
 425 602 425 602 418 588 c 1,63,64
 408 578 408 578 377.5 578 c 128,-1,65
 347 578 347 578 334 588 c 1,54,55
EndSplineSet
EndChar

StartChar: igrave
Encoding: 236 236 161
Width: 253
Flags: HMW
HStem: 438 55<47 103 47 103> 536 182<49 152>
VStem: -10 194<565 665> 97 68<0 390 390 408.5>
LayerCount: 2
Fore
SplineSet
165 425 m 2,0,-1
 165 0 l 1,1,2
 152 -3 152 -3 131 -3 c 0,3,4
 110 -3 110 -3 97 0 c 1,5,-1
 97 390 l 2,6,7
 97 418 97 418 88 428 c 128,-1,8
 79 438 79 438 56 438 c 2,9,-1
 47 438 l 1,10,11
 44 451 44 451 44 462.5 c 0,12,13
 44 474 44 474 47 489 c 1,14,15
 76 493 76 493 95 493 c 2,16,-1
 103 493 l 2,17,18
 132 493 132 493 148.5 475 c 128,-1,19
 165 457 165 457 165 425 c 2,0,-1
49 718 m 1,20,-1
 184 565 l 1,21,22
 172 542 172 542 152 536 c 1,23,-1
 -10 665 l 1,24,25
 -2 682 -2 682 14 697 c 128,-1,26
 30 712 30 712 49 718 c 1,20,-1
EndSplineSet
EndChar

StartChar: iacute
Encoding: 237 237 162
Width: 253
Flags: HMW
HStem: 438 55<47 103 47 103> 536 182<84 187>
VStem: 52 194<565 665> 97 68<0 390 390 408.5>
LayerCount: 2
Fore
SplineSet
165 425 m 2,0,-1
 165 0 l 1,1,2
 152 -3 152 -3 131 -3 c 0,3,4
 110 -3 110 -3 97 0 c 1,5,-1
 97 390 l 2,6,7
 97 418 97 418 88 428 c 128,-1,8
 79 438 79 438 56 438 c 2,9,-1
 47 438 l 1,10,11
 44 451 44 451 44 462.5 c 0,12,13
 44 474 44 474 47 489 c 1,14,15
 76 493 76 493 95 493 c 2,16,-1
 103 493 l 2,17,18
 132 493 132 493 148.5 475 c 128,-1,19
 165 457 165 457 165 425 c 2,0,-1
52 565 m 1,20,-1
 187 718 l 1,21,22
 206 712 206 712 222 697 c 128,-1,23
 238 682 238 682 246 665 c 1,24,-1
 84 536 l 1,25,26
 61 542 61 542 52 565 c 1,20,-1
EndSplineSet
EndChar

StartChar: icircumflex
Encoding: 238 238 163
Width: 253
Flags: HMW
HStem: 438 55<47 103 47 103> 538 167
VStem: -22 269<570 576> 97 68<0 390 390 408.5>
LayerCount: 2
Fore
SplineSet
165 425 m 2,0,-1
 165 0 l 1,1,2
 152 -3 152 -3 131 -3 c 0,3,4
 110 -3 110 -3 97 0 c 1,5,-1
 97 390 l 2,6,7
 97 418 97 418 88 428 c 128,-1,8
 79 438 79 438 56 438 c 2,9,-1
 47 438 l 1,10,11
 44 451 44 451 44 462.5 c 0,12,13
 44 474 44 474 47 489 c 1,14,15
 76 493 76 493 95 493 c 2,16,-1
 103 493 l 2,17,18
 132 493 132 493 148.5 475 c 128,-1,19
 165 457 165 457 165 425 c 2,0,-1
209 543 m 1,20,-1
 114 637 l 1,21,-1
 12 538 l 1,22,23
 -10 548 -10 548 -22 570 c 1,24,-1
 85 702 l 1,25,26
 97.2666666667 706.266666667 97.2666666667 706.266666667 112.5 706.266666667 c 0,27,28
 127.733333333 706.266666667 127.733333333 706.266666667 145 703 c 1,29,-1
 247 576 l 1,30,31
 234 550 234 550 209 543 c 1,20,-1
EndSplineSet
EndChar

StartChar: idieresis
Encoding: 239 239 164
Width: 253
Flags: HMW
HStem: 438 55<47 103 47 103> 572 65<-11 -11 64 64 164 164 239 239>
VStem: -18 82 97 68<0 390 390 408.5> 157 82
LayerCount: 2
Fore
SplineSet
165 425 m 2,0,-1
 165 0 l 1,1,2
 152 -3 152 -3 131 -3 c 128,-1,3
 110 -3 110 -3 97 0 c 1,4,-1
 97 390 l 2,5,6
 97 418 97 418 88 428 c 128,-1,7
 79 438 79 438 56 438 c 2,8,-1
 47 438 l 1,9,10
 44 451 44 451 44 462.5 c 128,-1,11
 44 474 44 474 47 489 c 1,12,13
 76 493 76 493 95 493 c 2,14,-1
 103 493 l 2,15,16
 132 493 132 493 148.5 475 c 128,-1,17
 165 457 165 457 165 425 c 2,0,-1
164 572 m 1,18,19
 157 588 157 588 157 605.5 c 128,-1,20
 157 623 157 623 164 637 c 1,21,22
 178 646 178 646 202 646 c 128,-1,23
 226 646 226 646 239 637 c 1,24,25
 246 623 246 623 246 604.5 c 128,-1,26
 246 586 246 586 239 572 c 1,27,28
 228 563 228 563 202.5 563 c 128,-1,29
 177 563 177 563 164 572 c 1,18,19
-11 572 m 1,30,31
 -18 588 -18 588 -18 605.5 c 128,-1,32
 -18 623 -18 623 -11 637 c 1,33,34
 2 646 2 646 26 646 c 128,-1,35
 50 646 50 646 64 637 c 1,36,37
 71 623 71 623 71 604.5 c 128,-1,38
 71 586 71 586 64 572 c 1,39,40
 51 563 51 563 25.5 563 c 128,-1,41
 0 563 0 563 -11 572 c 1,30,31
EndSplineSet
EndChar

StartChar: jcircumflex
Encoding: 309 309 165
Width: 260
Flags: HMW
HStem: -219 21G 438 55<45 112> 538 167
VStem: -15 269<570 576> 104 68<-49 12 12 390 390 408.5>
LayerCount: 2
Fore
SplineSet
172 425 m 2,0,-1
 172 12 l 2,1,2
 172 -92.8807287754 172 -92.8807287754 163.32231405 -124.442524418 c 0,3,4
 144.889473416 -191.485000085 144.889473416 -191.485000085 58 -219 c 1,5,6
 42 -202 42 -202 36 -176 c 1,7,8
 76 -154 76 -154 90 -128 c 128,-1,9
 104 -102 104 -102 104 -52 c 2,10,-1
 104 390 l 2,11,12
 104 418 104 418 95 428 c 128,-1,13
 86 438 86 438 63 438 c 2,14,-1
 45 438 l 1,15,16
 42 451 42 451 42 462.5 c 128,-1,17
 42 474 42 474 45 489 c 1,18,19
 74 493 74 493 104 493 c 2,20,-1
 112 493 l 2,21,22
 140 493 140 493 156 474.5 c 128,-1,23
 172 456 172 456 172 425 c 2,0,-1
216 543 m 1,24,-1
 121 637 l 1,25,-1
 19 538 l 1,26,27
 -3 548 -3 548 -15 570 c 1,28,-1
 92 702 l 1,29,30
 104.266666667 706.266666667 104.266666667 706.266666667 119.5 706.266666667 c 128,-1,31
 134.733333333 706.266666667 134.733333333 706.266666667 152 703 c 1,32,-1
 254 576 l 1,33,34
 241 550 241 550 216 543 c 1,24,-1
EndSplineSet
EndChar

StartChar: kcommaaccent
Encoding: 311 311 166
Width: 487
Flags: HMW
HStem: -244 21G -213 21G -68 13 225 57<206.5 207.5 203 242> 484 9
VStem: 90 67<0 222 0 279 279 688> 243 73<-132.5 -111>
LayerCount: 2
Fore
SplineSet
376 178 m 2,0,-1
 416 88 l 2,1,2
 442 29 442 29 464 15 c 1,3,4
 449 -6 449 -6 423 -6 c 0,5,6
 397 -6 397 -6 386.5 6 c 128,-1,7
 376 18 376 18 364 45 c 2,8,-1
 316 150 l 2,9,10
 296 195 296 195 276 210 c 128,-1,11
 256 225 256 225 224 225 c 0,12,13
 192 225 192 225 157 222 c 1,14,-1
 157 0 l 1,15,16
 143.5 -3 143.5 -3 123.75 -3 c 0,17,18
 104 -3 104 -3 90 0 c 1,19,-1
 90 729 l 1,20,-1
 96 735 l 1,21,-1
 121 735 l 2,22,23
 143 735 143 735 150 724 c 128,-1,24
 157 713 157 713 157 688 c 2,25,-1
 157 279 l 1,26,-1
 203 282 l 2,27,28
 216 282 216 282 224 295 c 2,29,-1
 335 458 l 2,30,31
 348 477 348 477 358.5 485 c 128,-1,32
 369 493 369 493 389.5 493 c 0,33,34
 410 493 410 493 423 492 c 1,35,-1
 429 484 l 1,36,-1
 298 295 l 2,37,38
 285 277 285 277 276 270 c 1,39,40
 311 263 311 263 333.5 242 c 128,-1,41
 356 221 356 221 376 178 c 2,0,-1
309 -58 m 1,42,43
 316 -79 316 -79 316 -103 c 0,44,45
 316 -147 316 -147 288 -184 c 128,-1,46
 260 -221 260 -221 212 -244 c 1,47,48
 194 -238 194 -238 188 -213 c 1,49,50
 243 -174 243 -174 243 -120 c 0,51,52
 243 -94 243 -94 230 -68 c 1,53,54
 253 -53.3055555556 253 -53.3055555556 273.236111111 -53.3055555556 c 0,55,56
 293.472222222 -53.3055555556 293.472222222 -53.3055555556 309 -58 c 1,42,43
EndSplineSet
EndChar

StartChar: kgreenlandic
Encoding: 312 312 167
Width: 487
Flags: HMW
HStem: 225 57<206.5 207.5 203 242> 484 9
VStem: 90 67<0 222 0 279 279 446>
LayerCount: 2
Fore
SplineSet
376 178 m 2,0,-1
 416 88 l 2,1,2
 442 29 442 29 464 15 c 1,3,4
 449 -6 449 -6 423 -6 c 0,5,6
 397 -6 397 -6 386.5 6 c 128,-1,7
 376 18 376 18 364 45 c 2,8,-1
 316 150 l 2,9,10
 296 195 296 195 276 210 c 128,-1,11
 256 225 256 225 224 225 c 0,12,13
 192 225 192 225 157 222 c 1,14,-1
 157 0 l 1,15,16
 143.5 -3 143.5 -3 123.75 -3 c 0,17,18
 104 -3 104 -3 90 0 c 1,19,-1
 90 487 l 1,20,-1
 96 493 l 1,21,-1
 121 493 l 2,22,23
 143 493 143 493 150 482 c 128,-1,24
 157 471 157 471 157 446 c 2,25,-1
 157 279 l 1,26,-1
 203 282 l 2,27,28
 216 282 216 282 224 295 c 2,29,-1
 335 458 l 2,30,31
 348 477 348 477 358.5 485 c 128,-1,32
 369 493 369 493 389.5 493 c 0,33,34
 410 493 410 493 423 492 c 1,35,-1
 429 484 l 1,36,-1
 298 295 l 2,37,38
 285 277 285 277 276 270 c 1,39,40
 311 263 311 263 333.5 242 c 128,-1,41
 356 221 356 221 376 178 c 2,0,-1
EndSplineSet
EndChar

StartChar: ldot
Encoding: 320 320 168
Width: 315
Flags: HMW
HStem: -4 57<146 235> 309 79<235 235 318 318>
VStem: 88 67<81 95 95 688> 228 90
LayerCount: 2
Fore
SplineSet
192 53 m 2,0,-1
 235 53 l 1,1,2
 241 38 241 38 241 22 c 128,-1,3
 241 6 241 6 240 2 c 1,4,5
 202 -4 202 -4 167.5 -4 c 128,-1,6
 133 -4 133 -4 110.5 17 c 128,-1,7
 88 38 88 38 88 75 c 2,8,-1
 88 729 l 1,9,-1
 94 735 l 1,10,-1
 119 735 l 2,11,12
 141 735 141 735 148 724 c 128,-1,13
 155 713 155 713 155 688 c 2,14,-1
 155 95 l 2,15,16
 155 53 155 53 192 53 c 2,0,-1
235 309 m 1,17,18
 228 321 228 321 228 348.5 c 128,-1,19
 228 376 228 376 235 388 c 1,20,21
 253 397 253 397 278.5 397 c 128,-1,22
 304 397 304 397 318 388 c 1,23,24
 325 376 325 376 325 348.5 c 128,-1,25
 325 321 325 321 318 309 c 1,26,27
 306 299 306 299 278.5 299 c 128,-1,28
 251 299 251 299 235 309 c 1,17,18
EndSplineSet
EndChar

StartChar: lslash
Encoding: 322 322 169
Width: 308
Flags: HMW
HStem: -4 57<170 259>
VStem: 112 67<81 95 95 334 334 334 432 688> 261 9
LayerCount: 2
Fore
SplineSet
216 53 m 2,0,-1
 259 53 l 1,1,2
 265 38 265 38 265 22 c 0,3,4
 265 6 265 6 264 2 c 1,5,6
 226 -4 226 -4 191.5 -4 c 0,7,8
 157 -4 157 -4 134.5 17 c 128,-1,9
 112 38 112 38 112 75 c 2,10,-1
 112 334 l 1,11,-1
 41 295 l 1,12,-1
 36 298 l 1,13,14
 31.7333333333 312.4 31.7333333333 312.4 31.7333333333 326.166666667 c 0,15,16
 31.7333333333 339.933333333 31.7333333333 339.933333333 35 353 c 1,17,-1
 112 395 l 1,18,-1
 112 729 l 1,19,-1
 118 735 l 1,20,-1
 143 735 l 2,21,22
 165 735 165 735 172 724 c 128,-1,23
 179 713 179 713 179 688 c 2,24,-1
 179 432 l 1,25,-1
 261 478 l 1,26,-1
 266 475 l 1,27,28
 270.266666667 460.066666667 270.266666667 460.066666667 270.266666667 446.333333333 c 0,29,30
 270.266666667 432.6 270.266666667 432.6 267 420 c 1,31,-1
 179 371 l 1,32,-1
 179 95 l 2,33,34
 179 53 179 53 216 53 c 2,0,-1
EndSplineSet
EndChar

StartChar: nacute
Encoding: 324 324 170
Width: 545
Flags: HMW
HStem: 437 62<301.5 347> 473 20G<96 122 122 137.5> 536 182<247 350>
VStem: 90 68<0 357 426 446> 215 194<565 665> 393 68<76.5 92 92 321 321 344>
LayerCount: 2
Fore
SplineSet
461 344 m 2,0,-1
 461 92 l 2,1,2
 461 33 461 33 471 9 c 1,3,4
 456 -6 456 -6 428 -6 c 0,5,6
 393 -6 393 -6 393 39 c 2,7,-1
 393 321 l 2,8,9
 393 384 393 384 377 410.5 c 128,-1,10
 361 437 361 437 319 437 c 0,11,12
 277 437 277 437 232 414.5 c 128,-1,13
 187 392 187 392 158 357 c 1,14,-1
 158 0 l 1,15,16
 144.5 -3 144.5 -3 124.25 -3 c 0,17,18
 104 -3 104 -3 90 0 c 1,19,-1
 90 487 l 1,20,-1
 96 493 l 1,21,-1
 122 493 l 2,22,23
 144 493 144 493 151 482 c 128,-1,24
 158 471 158 471 158 446 c 2,25,-1
 158 426 l 1,26,27
 191 459 191 459 238.5 479 c 128,-1,28
 286 499 286 499 333 499 c 0,29,30
 400 499 400 499 430.5 456 c 128,-1,31
 461 413 461 413 461 344 c 2,0,-1
215 565 m 1,32,-1
 350 718 l 1,33,34
 369 712 369 712 385 697 c 128,-1,35
 401 682 401 682 409 665 c 1,36,-1
 247 536 l 1,37,38
 224 542 224 542 215 565 c 1,32,-1
EndSplineSet
EndChar

StartChar: ntilde
Encoding: 241 241 171
Width: 545
Flags: HMW
HStem: 437 62<301.5 347> 473 20G<96 122 122 137.5> 557 64<350 363 350 365>
VStem: 90 68<0 357 426 446> 108 338<591 641> 393 68<76.5 92 92 321 321 344>
LayerCount: 2
Fore
SplineSet
461 344 m 2,0,-1
 461 92 l 2,1,2
 461 33 461 33 471 9 c 1,3,4
 456 -6 456 -6 428 -6 c 0,5,6
 393 -6 393 -6 393 39 c 2,7,-1
 393 321 l 2,8,9
 393 384 393 384 377 410.5 c 128,-1,10
 361 437 361 437 319 437 c 0,11,12
 277 437 277 437 232 414.5 c 128,-1,13
 187 392 187 392 158 357 c 1,14,-1
 158 0 l 1,15,16
 144.5 -3 144.5 -3 124.25 -3 c 0,17,18
 104 -3 104 -3 90 0 c 1,19,-1
 90 487 l 1,20,-1
 96 493 l 1,21,-1
 122 493 l 2,22,23
 144 493 144 493 151 482 c 128,-1,24
 158 471 158 471 158 446 c 2,25,-1
 158 426 l 1,26,27
 191 459 191 459 238.5 479 c 128,-1,28
 286 499 286 499 333 499 c 0,29,30
 400 499 400 499 430.5 456 c 128,-1,31
 461 413 461 413 461 344 c 2,0,-1
295 571 m 2,32,-1
 233 601 l 2,33,34
 213 610 213 610 195 610 c 0,35,36
 177 610 177 610 157 584 c 2,37,-1
 144 568 l 1,38,39
 116 570 116 570 108 591 c 1,40,-1
 117 611 l 2,41,42
 130 640 130 640 154 657 c 128,-1,43
 178 674 178 674 204.5 674 c 0,44,45
 231 674 231 674 259 660 c 2,46,-1
 321 630 l 2,47,48
 339 621 339 621 357.5 621 c 0,49,50
 376 621 376 621 397 647 c 2,51,-1
 410 663 l 1,52,53
 435 661 435 661 446 641 c 1,54,-1
 437 621 l 2,55,56
 408 557 408 557 348 557 c 0,57,58
 323 557 323 557 295 571 c 2,32,-1
EndSplineSet
EndChar

StartChar: oe
Encoding: 339 339 172
Width: 848
Flags: HMW
HStem: -12 54<231 304.5> -12 61<555 627> 224 54<471 717 471 784 471 717> 449 53<231 305 231 311 558.5 640.5>
VStem: 53 71<205.5 284.5> 395 76<224 224 224 278 224 294.5> 717 71<278 290 290 333.5>
LayerCount: 2
Fore
SplineSet
784 224 m 1,0,-1
 471 224 l 1,1,2
 476 49 476 49 602 49 c 0,3,4
 672 49 672 49 749 92 c 1,5,6
 770 73 770 73 774 44 c 1,7,8
 694 -12 694 -12 593 -12 c 0,9,10
 474 -12 474 -12 430 92 c 1,11,12
 382 -12 382 -12 259 -12 c 0,13,14
 176 -12 176 -12 123 41 c 0,15,16
 53 111 53 111 53 245 c 128,-1,17
 53 379 53 379 123 449 c 0,18,19
 176 502 176 502 259 502 c 0,20,21
 385 502 385 502 432 393 c 1,22,23
 481 502 481 502 597 502 c 0,24,25
 689 502 689 502 738.5 441.5 c 128,-1,26
 788 381 788 381 788 288 c 0,27,28
 788 256 788 256 784 224 c 1,0,-1
124 245 m 128,-1,30
 124 160 124 160 156.5 101 c 128,-1,31
 189 42 189 42 260 42 c 0,32,33
 308 42 308 42 339.5 73 c 0,34,35
 395 127.619047619 395 127.619047619 395 245 c 0,36,37
 395 330 395 330 362.5 389.5 c 128,-1,38
 330 449 330 449 259.5 449 c 128,-1,39
 189 449 189 449 156.5 389.5 c 128,-1,29
 124 330 124 330 124 245 c 128,-1,30
688 405 m 128,-1,41
 659 449 659 449 599.5 449 c 128,-1,42
 540 449 540 449 507.5 403 c 128,-1,43
 475 357 475 357 471 278 c 1,44,-1
 717 278 l 1,45,-1
 717 290 l 2,46,40
 717 361 717 361 688 405 c 128,-1,41
EndSplineSet
EndChar

StartChar: ograve
Encoding: 242 242 173
Width: 519
Flags: HMW
HStem: -12 54<231 287.5> 449 53<231 287.5 231 311> 536 182<194 297>
VStem: 53 71<205 284.5> 135 194<565 665> 395 71<205 284.5 205 294.5>
LayerCount: 2
Fore
SplineSet
466 245 m 128,-1,1
 466 112 466 112 396 41 c 0,2,3
 343 -12 343 -12 259.5 -12 c 128,-1,4
 176 -12 176 -12 123 41 c 0,5,6
 53 112 53 112 53 245 c 128,-1,7
 53 378 53 378 123 449 c 0,8,9
 176 502 176 502 259.5 502 c 128,-1,10
 343 502 343 502 396 449 c 0,11,0
 466 378 466 378 466 245 c 128,-1,1
156.5 389.5 m 128,-1,13
 124 330 124 330 124 244.5 c 128,-1,14
 124 159 124 159 156.5 100.5 c 128,-1,15
 189 42 189 42 260 42 c 0,16,17
 308 42 308 42 339.5 73 c 0,18,19
 395 127.619047619 395 127.619047619 395 245 c 0,20,21
 395 330 395 330 362.5 389.5 c 128,-1,22
 330 449 330 449 259.5 449 c 128,-1,12
 189 449 189 449 156.5 389.5 c 128,-1,13
194 718 m 1,23,-1
 329 565 l 1,24,25
 317 542 317 542 297 536 c 1,26,-1
 135 665 l 1,27,28
 143 682 143 682 159 697 c 128,-1,29
 175 712 175 712 194 718 c 1,23,-1
EndSplineSet
EndChar

StartChar: oacute
Encoding: 243 243 174
Width: 519
Flags: HMW
HStem: -12 54<231 287.5> 449 53<231 287.5 231 311> 536 182<229 332>
VStem: 53 71<205 284.5> 197 194<565 665> 395 71<205 284.5 205 294.5>
LayerCount: 2
Fore
SplineSet
466 245 m 128,-1,1
 466 112 466 112 396 41 c 0,2,3
 343 -12 343 -12 259.5 -12 c 128,-1,4
 176 -12 176 -12 123 41 c 0,5,6
 53 112 53 112 53 245 c 128,-1,7
 53 378 53 378 123 449 c 0,8,9
 176 502 176 502 259.5 502 c 128,-1,10
 343 502 343 502 396 449 c 0,11,0
 466 378 466 378 466 245 c 128,-1,1
156.5 389.5 m 128,-1,13
 124 330 124 330 124 244.5 c 128,-1,14
 124 159 124 159 156.5 100.5 c 128,-1,15
 189 42 189 42 260 42 c 0,16,17
 308 42 308 42 339.5 73 c 0,18,19
 395 127.619047619 395 127.619047619 395 245 c 0,20,21
 395 330 395 330 362.5 389.5 c 128,-1,22
 330 449 330 449 259.5 449 c 128,-1,12
 189 449 189 449 156.5 389.5 c 128,-1,13
197 565 m 1,23,-1
 332 718 l 1,24,25
 351 712 351 712 367 697 c 128,-1,26
 383 682 383 682 391 665 c 1,27,-1
 229 536 l 1,28,29
 206 542 206 542 197 565 c 1,23,-1
EndSplineSet
EndChar

StartChar: ocircumflex
Encoding: 244 244 175
Width: 519
Flags: HMW
HStem: -12 54<231 287.5> 449 53<231 287.5 231 311> 538 167
VStem: 53 71<205 284.5> 123 269<570 576> 395 71<205 284.5 205 294.5>
LayerCount: 2
Fore
SplineSet
466 245 m 128,-1,1
 466 112 466 112 396 41 c 0,2,3
 343 -12 343 -12 259.5 -12 c 128,-1,4
 176 -12 176 -12 123 41 c 0,5,6
 53 112 53 112 53 245 c 128,-1,7
 53 378 53 378 123 449 c 0,8,9
 176 502 176 502 259.5 502 c 128,-1,10
 343 502 343 502 396 449 c 0,11,0
 466 378 466 378 466 245 c 128,-1,1
156.5 389.5 m 128,-1,13
 124 330 124 330 124 244.5 c 128,-1,14
 124 159 124 159 156.5 100.5 c 128,-1,15
 189 42 189 42 260 42 c 0,16,17
 308 42 308 42 339.5 73 c 0,18,19
 395 127.619047619 395 127.619047619 395 245 c 0,20,21
 395 330 395 330 362.5 389.5 c 128,-1,22
 330 449 330 449 259.5 449 c 128,-1,12
 189 449 189 449 156.5 389.5 c 128,-1,13
354 543 m 1,23,-1
 259 637 l 1,24,-1
 157 538 l 1,25,26
 135 548 135 548 123 570 c 1,27,-1
 230 702 l 1,28,29
 242.266666667 706.266666667 242.266666667 706.266666667 257.5 706.266666667 c 128,-1,30
 272.733333333 706.266666667 272.733333333 706.266666667 290 703 c 1,31,-1
 392 576 l 1,32,33
 379 550 379 550 354 543 c 1,23,-1
EndSplineSet
EndChar

StartChar: otilde
Encoding: 245 245 176
Width: 519
Flags: HMW
HStem: -12 54<231 287.5> 449 53<231 287.5 231 311> 557 64<332 345 332 347>
VStem: 53 71<205 284.5> 90 338<591 641> 395 71<205 284.5 205 294.5>
LayerCount: 2
Fore
SplineSet
466 245 m 128,-1,1
 466 112 466 112 396 41 c 0,2,3
 343 -12 343 -12 259.5 -12 c 128,-1,4
 176 -12 176 -12 123 41 c 0,5,6
 53 112 53 112 53 245 c 128,-1,7
 53 378 53 378 123 449 c 0,8,9
 176 502 176 502 259.5 502 c 128,-1,10
 343 502 343 502 396 449 c 0,11,0
 466 378 466 378 466 245 c 128,-1,1
156.5 389.5 m 128,-1,13
 124 330 124 330 124 244.5 c 128,-1,14
 124 159 124 159 156.5 100.5 c 128,-1,15
 189 42 189 42 260 42 c 0,16,17
 308 42 308 42 339.5 73 c 0,18,19
 395 127.619047619 395 127.619047619 395 245 c 0,20,21
 395 330 395 330 362.5 389.5 c 128,-1,22
 330 449 330 449 259.5 449 c 128,-1,12
 189 449 189 449 156.5 389.5 c 128,-1,13
277 571 m 2,23,-1
 215 601 l 2,24,25
 195 610 195 610 177 610 c 128,-1,26
 159 610 159 610 139 584 c 2,27,-1
 126 568 l 1,28,29
 98 570 98 570 90 591 c 1,30,-1
 99 611 l 2,31,32
 112 640 112 640 136 657 c 128,-1,33
 160 674 160 674 186.5 674 c 128,-1,34
 213 674 213 674 241 660 c 2,35,-1
 303 630 l 2,36,37
 321 621 321 621 339.5 621 c 128,-1,38
 358 621 358 621 379 647 c 2,39,-1
 392 663 l 1,40,41
 417 661 417 661 428 641 c 1,42,-1
 419 621 l 2,43,44
 390 557 390 557 330 557 c 0,45,46
 305 557 305 557 277 571 c 2,23,-1
EndSplineSet
EndChar

StartChar: odieresis
Encoding: 246 246 177
Width: 519
Flags: HMW
HStem: -12 54<231 287.5> 449 53<231 287.5 231 311> 572 65<134 134 209 209 309 309 384 384>
VStem: 53 71<205 284.5> 127 82 302 82 395 71<205 284.5 205 294.5>
LayerCount: 2
Fore
SplineSet
466 245 m 128,-1,1
 466 112 466 112 396 41 c 0,2,3
 343 -12 343 -12 259.5 -12 c 128,-1,4
 176 -12 176 -12 123 41 c 0,5,6
 53 112 53 112 53 245 c 128,-1,7
 53 378 53 378 123 449 c 0,8,9
 176 502 176 502 259.5 502 c 128,-1,10
 343 502 343 502 396 449 c 0,11,0
 466 378 466 378 466 245 c 128,-1,1
156.5 389.5 m 128,-1,13
 124 330 124 330 124 244.5 c 128,-1,14
 124 159 124 159 156.5 100.5 c 128,-1,15
 189 42 189 42 260 42 c 0,16,17
 308 42 308 42 339.5 73 c 0,18,19
 395 127.619047619 395 127.619047619 395 245 c 0,20,21
 395 330 395 330 362.5 389.5 c 128,-1,22
 330 449 330 449 259.5 449 c 128,-1,12
 189 449 189 449 156.5 389.5 c 128,-1,13
309 572 m 1,23,24
 302 588 302 588 302 605.5 c 128,-1,25
 302 623 302 623 309 637 c 1,26,27
 323 646 323 646 347 646 c 128,-1,28
 371 646 371 646 384 637 c 1,29,30
 391 623 391 623 391 604.5 c 128,-1,31
 391 586 391 586 384 572 c 1,32,33
 373 563 373 563 347.5 563 c 128,-1,34
 322 563 322 563 309 572 c 1,23,24
134 572 m 1,35,36
 127 588 127 588 127 605.5 c 128,-1,37
 127 623 127 623 134 637 c 1,38,39
 147 646 147 646 171 646 c 128,-1,40
 195 646 195 646 209 637 c 1,41,42
 216 623 216 623 216 604.5 c 128,-1,43
 216 586 216 586 209 572 c 1,44,45
 196 563 196 563 170.5 563 c 128,-1,46
 145 563 145 563 134 572 c 1,35,36
EndSplineSet
EndChar

StartChar: oslash
Encoding: 248 248 178
Width: 519
Flags: HMW
HStem: -12 53<246 287.5> 450 52<231 272.5> 524 20G<389 389>
VStem: 53 68<219.5 284.5> 398 68<205.5 270.5>
LayerCount: 2
Fore
SplineSet
397 447 m 1,0,1
 466 377 466 377 466 244 c 128,-1,2
 466 111 466 111 396 41 c 0,3,4
 343 -12 343 -12 259 -12 c 0,5,6
 207 -12 207 -12 163 10 c 1,7,-1
 127 -53 l 1,8,9
 115 -52 115 -52 100 -44 c 128,-1,10
 85 -36 85 -36 79 -26 c 1,11,-1
 119 44 l 1,12,13
 53 114 53 114 53 246.5 c 128,-1,14
 53 379 53 379 123 449 c 0,15,16
 176 502 176 502 259 502 c 0,17,18
 312 502 312 502 352 481 c 1,19,-1
 389 544 l 1,20,21
 401 543 401 543 416 535 c 128,-1,22
 431 527 431 527 437 517 c 1,23,-1
 397 447 l 1,0,1
364.5 100.5 m 128,-1,25
 398 160 398 160 398 246.5 c 128,-1,26
 398 333 398 333 365 389 c 1,27,-1
 191 60 l 1,28,29
 221 41 221 41 260 41 c 0,30,24
 331 41 331 41 364.5 100.5 c 128,-1,25
121 245 m 0,31,32
 121 159 121 159 152 104 c 1,33,-1
 325 432 l 1,34,35
 296 450 296 450 253 450 c 128,-1,36
 210 450 210 450 177.5 418.5 c 0,37,38
 121 363.738461538 121 363.738461538 121 245 c 0,31,32
EndSplineSet
EndChar

StartChar: rcaron
Encoding: 345 345 179
Width: 349
Flags: HMW
HStem: 429 68<262.5 297.5> 547 168
VStem: 67 268<677 683> 100 67<0 334 0 357 0 381>
LayerCount: 2
Fore
SplineSet
64 459 m 1,0,1
 73 485 73 485 94 497 c 1,2,3
 148 476 148 476 162 408 c 1,4,5
 206 497 206 497 296 497 c 0,6,7
 316 497 316 497 341 493 c 1,8,9
 341 452 341 452 325 428 c 1,10,11
 315 429 315 429 292 429 c 0,12,13
 207 429 207 429 167 334 c 1,14,-1
 167 0 l 1,15,16
 153.5 -3 153.5 -3 132.75 -3 c 0,17,18
 112 -3 112 -3 100 0 c 1,19,-1
 100 357 l 2,20,21
 100 421 100 421 64 459 c 1,0,1
104 710 m 1,22,-1
 199 616 l 1,23,-1
 301 715 l 1,24,25
 322 707 322 707 335 683 c 1,26,-1
 228 551 l 1,27,28
 215.733333333 546.733333333 215.733333333 546.733333333 200.5 546.733333333 c 0,29,30
 185.266666667 546.733333333 185.266666667 546.733333333 168 550 c 1,31,-1
 67 677 l 1,32,33
 78 703 78 703 104 710 c 1,22,-1
EndSplineSet
EndChar

StartChar: rcommaaccent
Encoding: 343 343 180
Width: 349
Flags: HMW
HStem: -244 21G -213 21G -68 13 429 68<262.5 297.5>
VStem: 100 67<0 334 0 357 0 381> 112 73<-132.5 -111>
LayerCount: 2
Fore
SplineSet
64 459 m 1,0,1
 73 485 73 485 94 497 c 1,2,3
 148 476 148 476 162 408 c 1,4,5
 206 497 206 497 296 497 c 0,6,7
 316 497 316 497 341 493 c 1,8,9
 341 452 341 452 325 428 c 1,10,11
 315 429 315 429 292 429 c 0,12,13
 207 429 207 429 167 334 c 1,14,-1
 167 0 l 1,15,16
 153.5 -3 153.5 -3 132.75 -3 c 0,17,18
 112 -3 112 -3 100 0 c 1,19,-1
 100 357 l 2,20,21
 100 421 100 421 64 459 c 1,0,1
178 -58 m 1,22,23
 185 -79 185 -79 185 -103 c 0,24,25
 185 -147 185 -147 157 -184 c 128,-1,26
 129 -221 129 -221 81 -244 c 1,27,28
 63 -238 63 -238 57 -213 c 1,29,30
 112 -174 112 -174 112 -120 c 0,31,32
 112 -94 112 -94 99 -68 c 1,33,34
 122 -53.3055555556 122 -53.3055555556 142.236111111 -53.3055555556 c 0,35,36
 162.472222222 -53.3055555556 162.472222222 -53.3055555556 178 -58 c 1,22,23
EndSplineSet
EndChar

StartChar: germandbls
Encoding: 223 223 181
Width: 607
Flags: HMW
HStem: -12 56<383.5 425.5 383.5 450> 410 58 645 53<267.5 360>
VStem: 111 69<0 411 411 411 468 503 0 511 0 571> 338 70<332.5 357 332.5 364> 448 68<494 539>
LayerCount: 2
Fore
SplineSet
111 0 m 1,0,-1
 111 411 l 1,1,-1
 25 410 l 1,2,3
 22 424 22 424 22 439.5 c 0,4,5
 22 455 22 455 25 470 c 1,6,-1
 111 468 l 1,7,-1
 111 511 l 2,8,9
 111 599 111 599 167.5 648.5 c 128,-1,10
 224 698 224 698 315.5 698 c 0,11,12
 407 698 407 698 461.5 645.5 c 128,-1,13
 516 593 516 593 516 505 c 0,14,15
 516 471 516 471 502 427 c 1,16,-1
 500 427 l 1,17,-1
 502 426 l 1,18,19
 454 414 454 414 431 390.5 c 128,-1,20
 408 367 408 367 408 340 c 0,21,22
 408 313 408 313 455 273 c 1,23,-1
 492 243 l 2,24,25
 568 181 568 181 568 122 c 0,26,27
 568 63 568 63 521 25.5 c 128,-1,28
 474 -12 474 -12 402 -12 c 0,29,30
 330 -12 330 -12 275 17 c 1,31,32
 277 49 277 49 303 68 c 1,33,34
 348 44 348 44 394 44 c 0,35,36
 440 44 440 44 467 64.5 c 128,-1,37
 494 85 494 85 494 120 c 0,38,39
 494 155 494 155 447 194 c 2,40,-1
 407 228 l 1,41,42
 338 285 338 285 338 338 c 0,43,44
 338 376 338 376 366.5 408 c 128,-1,45
 395 440 395 440 442 457 c 1,46,47
 448 478 448 478 448 499 c 0,48,49
 448 563 448 563 414 604 c 128,-1,50
 380 645 380 645 313 645 c 0,51,52
 246 645 246 645 213 607.5 c 128,-1,53
 180 570 180 570 180 503 c 2,54,-1
 180 0 l 1,55,56
 165 -3 165 -3 145.5 -3 c 0,57,58
 126 -3 126 -3 111 0 c 1,0,-1
EndSplineSet
EndChar

StartChar: ugrave
Encoding: 249 249 182
Width: 546
Flags: HMW
HStem: -9 62<198 244.5> 470 20G<387 387 454 454> 476 20G<109 129.5> 536 182<204 307>
VStem: 84 68<146 169 169 397 397 413> 145 194<565 665> 387 67<132 138 138 490>
LayerCount: 2
Fore
SplineSet
84 146 m 2,0,-1
 84 397 l 2,1,2
 84 457 84 457 74 481 c 1,3,4
 89 496 89 496 117 496 c 0,5,6
 152 496 152 496 152 451 c 2,7,-1
 152 169 l 2,8,9
 152 106 152 106 168 79.5 c 128,-1,10
 184 53 184 53 225.5 53 c 0,11,12
 267 53 267 53 312 75.5 c 128,-1,13
 357 98 357 98 387 132 c 1,14,-1
 387 490 l 1,15,16
 400.5 493 400.5 493 421.25 493 c 0,17,18
 442 493 442 493 454 490 c 1,19,-1
 454 138 l 2,20,21
 454 56 454 56 482 28 c 1,22,23
 472 3 472 3 450 -7 c 1,24,25
 401 12 401 12 391 67 c 1,26,27
 357 33 357 33 308.5 12 c 128,-1,28
 260 -9 260 -9 212 -9 c 0,29,30
 145 -9 145 -9 114.5 34 c 128,-1,31
 84 77 84 77 84 146 c 2,0,-1
204 718 m 1,32,-1
 339 565 l 1,33,34
 327 542 327 542 307 536 c 1,35,-1
 145 665 l 1,36,37
 153 682 153 682 169 697 c 128,-1,38
 185 712 185 712 204 718 c 1,32,-1
EndSplineSet
EndChar

StartChar: uacute
Encoding: 250 250 183
Width: 546
Flags: HMW
HStem: -9 62<198 244.5> 470 20G<387 387 454 454> 476 20G<109 129.5> 536 182<239 342>
VStem: 84 68<146 169 169 397 397 413> 207 194<565 665> 387 67<132 138 138 490>
LayerCount: 2
Fore
SplineSet
84 146 m 2,0,-1
 84 397 l 2,1,2
 84 457 84 457 74 481 c 1,3,4
 89 496 89 496 117 496 c 0,5,6
 152 496 152 496 152 451 c 2,7,-1
 152 169 l 2,8,9
 152 106 152 106 168 79.5 c 128,-1,10
 184 53 184 53 225.5 53 c 0,11,12
 267 53 267 53 312 75.5 c 128,-1,13
 357 98 357 98 387 132 c 1,14,-1
 387 490 l 1,15,16
 400.5 493 400.5 493 421.25 493 c 0,17,18
 442 493 442 493 454 490 c 1,19,-1
 454 138 l 2,20,21
 454 56 454 56 482 28 c 1,22,23
 472 3 472 3 450 -7 c 1,24,25
 401 12 401 12 391 67 c 1,26,27
 357 33 357 33 308.5 12 c 128,-1,28
 260 -9 260 -9 212 -9 c 0,29,30
 145 -9 145 -9 114.5 34 c 128,-1,31
 84 77 84 77 84 146 c 2,0,-1
207 565 m 1,32,-1
 342 718 l 1,33,34
 361 712 361 712 377 697 c 128,-1,35
 393 682 393 682 401 665 c 1,36,-1
 239 536 l 1,37,38
 216 542 216 542 207 565 c 1,32,-1
EndSplineSet
EndChar

StartChar: ucircumflex
Encoding: 251 251 184
Width: 546
Flags: HMW
HStem: -9 62<198 244.5> 470 20G<387 387 454 454> 476 20G<109 129.5> 538 167
VStem: 84 68<146 169 169 397 397 413> 133 269<570 576> 387 67<132 138 138 490>
LayerCount: 2
Fore
SplineSet
84 146 m 2,0,-1
 84 397 l 2,1,2
 84 457 84 457 74 481 c 1,3,4
 89 496 89 496 117 496 c 0,5,6
 152 496 152 496 152 451 c 2,7,-1
 152 169 l 2,8,9
 152 106 152 106 168 79.5 c 128,-1,10
 184 53 184 53 225.5 53 c 0,11,12
 267 53 267 53 312 75.5 c 128,-1,13
 357 98 357 98 387 132 c 1,14,-1
 387 490 l 1,15,16
 400.5 493 400.5 493 421.25 493 c 0,17,18
 442 493 442 493 454 490 c 1,19,-1
 454 138 l 2,20,21
 454 56 454 56 482 28 c 1,22,23
 472 3 472 3 450 -7 c 1,24,25
 401 12 401 12 391 67 c 1,26,27
 357 33 357 33 308.5 12 c 128,-1,28
 260 -9 260 -9 212 -9 c 0,29,30
 145 -9 145 -9 114.5 34 c 128,-1,31
 84 77 84 77 84 146 c 2,0,-1
364 543 m 1,32,-1
 269 637 l 1,33,-1
 167 538 l 1,34,35
 145 548 145 548 133 570 c 1,36,-1
 240 702 l 1,37,38
 252.266666667 706.266666667 252.266666667 706.266666667 267.5 706.266666667 c 0,39,40
 282.733333333 706.266666667 282.733333333 706.266666667 300 703 c 1,41,-1
 402 576 l 1,42,43
 389 550 389 550 364 543 c 1,32,-1
EndSplineSet
EndChar

StartChar: udieresis
Encoding: 252 252 185
Width: 546
Flags: HMW
HStem: -9 62<198 244.5> 470 20G<387 387 454 454> 476 20G<109 129.5> 572 65<144 144 219 219 319 319 394 394>
VStem: 84 68<146 169 169 397 397 413> 137 82 312 82 387 67<132 138 138 490>
LayerCount: 2
Fore
SplineSet
84 146 m 2,0,-1
 84 397 l 2,1,2
 84 457 84 457 74 481 c 1,3,4
 89 496 89 496 117 496 c 0,5,6
 152 496 152 496 152 451 c 2,7,-1
 152 169 l 2,8,9
 152 106 152 106 168 79.5 c 128,-1,10
 184 53 184 53 225.5 53 c 128,-1,11
 267 53 267 53 312 75.5 c 128,-1,12
 357 98 357 98 387 132 c 1,13,-1
 387 490 l 1,14,15
 400.5 493 400.5 493 421.25 493 c 128,-1,16
 442 493 442 493 454 490 c 1,17,-1
 454 138 l 2,18,19
 454 56 454 56 482 28 c 1,20,21
 472 3 472 3 450 -7 c 1,22,23
 401 12 401 12 391 67 c 1,24,25
 357 33 357 33 308.5 12 c 128,-1,26
 260 -9 260 -9 212 -9 c 0,27,28
 145 -9 145 -9 114.5 34 c 128,-1,29
 84 77 84 77 84 146 c 2,0,-1
319 572 m 1,30,31
 312 588 312 588 312 605.5 c 128,-1,32
 312 623 312 623 319 637 c 1,33,34
 333 646 333 646 357 646 c 128,-1,35
 381 646 381 646 394 637 c 1,36,37
 401 623 401 623 401 604.5 c 128,-1,38
 401 586 401 586 394 572 c 1,39,40
 383 563 383 563 357.5 563 c 128,-1,41
 332 563 332 563 319 572 c 1,30,31
144 572 m 1,42,43
 137 588 137 588 137 605.5 c 128,-1,44
 137 623 137 623 144 637 c 1,45,46
 157 646 157 646 181 646 c 128,-1,47
 205 646 205 646 219 637 c 1,48,49
 226 623 226 623 226 604.5 c 128,-1,50
 226 586 226 586 219 572 c 1,51,52
 206 563 206 563 180.5 563 c 128,-1,53
 155 563 155 563 144 572 c 1,42,43
EndSplineSet
EndChar

StartChar: yacute
Encoding: 253 253 186
Width: 448
Flags: HMW
HStem: -218 52<76.5 126.5 76.5 145> -4 49<225 240> 477 20G<59 72> 486 8 536 182<194 297>
VStem: 8 424 162 194<565 665>
LayerCount: 2
Fore
SplineSet
432 486 m 1,0,-1
 294 17 l 2,1,2
 256 -113 256 -113 213 -165.5 c 128,-1,3
 170 -218 170 -218 86 -218 c 0,4,5
 45 -218 45 -218 8 -205 c 1,6,7
 7.8 -202.3 7.8 -202.3 7.8 -199.65 c 0,8,9
 7.8 -175.8 7.8 -175.8 24 -156 c 1,10,11
 50 -166 50 -166 87 -166 c 0,12,13
 142 -166 142 -166 170 -129.5 c 128,-1,14
 198 -93 198 -93 222 -14 c 2,15,-1
 225 -4 l 1,16,17
 200 -2 200 -2 187.5 7.5 c 128,-1,18
 175 17 175 17 166 44 c 2,19,-1
 24 485 l 1,20,21
 51 497 51 497 64 497 c 0,22,23
 91 497 91 497 101 464 c 2,24,-1
 182 209 l 2,25,26
 211 116 211 116 230 52 c 0,27,28
 232 45 232 45 240 45 c 1,29,-1
 364 491 l 1,30,31
 379 494 379 494 397 494 c 128,-1,32
 415 494 415 494 430 489 c 1,33,-1
 432 486 l 1,0,-1
162 565 m 1,34,-1
 297 718 l 1,35,36
 316 712 316 712 332 697 c 128,-1,37
 348 682 348 682 356 665 c 1,38,-1
 194 536 l 1,39,40
 171 542 171 542 162 565 c 1,34,-1
EndSplineSet
EndChar

StartChar: ydieresis
Encoding: 255 255 187
Width: 448
Flags: HMW
HStem: -218 52<76.5 126.5 76.5 145> -4 49<225 240> 477 20G<59 72> 486 8 572 65<99 99 174 174 274 274 349 349>
VStem: 8 424 92 82 267 82
LayerCount: 2
Fore
SplineSet
432 486 m 1,0,-1
 294 17 l 2,1,2
 256 -113 256 -113 213 -165.5 c 128,-1,3
 170 -218 170 -218 86 -218 c 0,4,5
 45 -218 45 -218 8 -205 c 1,6,7
 7.8 -202.3 7.8 -202.3 7.8 -199.65 c 0,8,9
 7.8 -175.8 7.8 -175.8 24 -156 c 1,10,11
 50 -166 50 -166 87 -166 c 0,12,13
 142 -166 142 -166 170 -129.5 c 128,-1,14
 198 -93 198 -93 222 -14 c 2,15,-1
 225 -4 l 1,16,17
 200 -2 200 -2 187.5 7.5 c 128,-1,18
 175 17 175 17 166 44 c 2,19,-1
 24 485 l 1,20,21
 51 497 51 497 64 497 c 0,22,23
 91 497 91 497 101 464 c 2,24,-1
 182 209 l 2,25,26
 211 116 211 116 230 52 c 0,27,28
 232 45 232 45 240 45 c 1,29,-1
 364 491 l 1,30,31
 379 494 379 494 397 494 c 128,-1,32
 415 494 415 494 430 489 c 1,33,-1
 432 486 l 1,0,-1
274 572 m 1,34,35
 267 588 267 588 267 605.5 c 128,-1,36
 267 623 267 623 274 637 c 1,37,38
 288 646 288 646 312 646 c 128,-1,39
 336 646 336 646 349 637 c 1,40,41
 356 623 356 623 356 604.5 c 128,-1,42
 356 586 356 586 349 572 c 1,43,44
 338 563 338 563 312.5 563 c 128,-1,45
 287 563 287 563 274 572 c 1,34,35
99 572 m 1,46,47
 92 588 92 588 92 605.5 c 128,-1,48
 92 623 92 623 99 637 c 1,49,50
 112 646 112 646 136 646 c 128,-1,51
 160 646 160 646 174 637 c 1,52,53
 181 623 181 623 181 604.5 c 128,-1,54
 181 586 181 586 174 572 c 1,55,56
 161 563 161 563 135.5 563 c 128,-1,57
 110 563 110 563 99 572 c 1,46,47
EndSplineSet
EndChar

StartChar: eth
Encoding: 240 240 188
Width: 516
Flags: HMW
HStem: -12 54<229 285.5> 432 55<229 273.5 229 281>
VStem: 51 71<200 279.5> 393 71<203 274.5>
LayerCount: 2
Fore
SplineSet
130 572 m 1,0,-1
 226 639 l 1,1,2
 181 676 181 676 133 698 c 1,3,4
 141 733 141 733 161 744 c 1,5,6
 226 715 226 715 276 674 c 1,7,-1
 365 735 l 1,8,9
 374 729 374 729 384 715.5 c 128,-1,10
 394 702 394 702 395 692 c 1,11,-1
 316 638 l 1,12,13
 464 485 464 485 464 242 c 0,14,15
 464 112 464 112 394 41 c 0,16,17
 341 -12 341 -12 257.5 -12 c 128,-1,18
 174 -12 174 -12 121 41 c 0,19,20
 51 112 51 112 51 237.5 c 128,-1,21
 51 363 51 363 121 434 c 0,22,23
 174 487 174 487 257 487 c 0,24,25
 305 487 305 487 353 462 c 1,26,27
 329 535 329 535 265 602 c 1,28,-1
 159 529 l 1,29,30
 150 535 150 535 140.5 548.5 c 128,-1,31
 131 562 131 562 130 572 c 1,0,-1
381 146 m 128,-1,33
 393 189 393 189 393 255 c 128,-1,34
 393 321 393 321 374 393 c 1,35,36
 323 432 323 432 254.5 432 c 128,-1,37
 186 432 186 432 154 378 c 128,-1,38
 122 324 122 324 122 240 c 128,-1,39
 122 156 122 156 154.5 99 c 128,-1,40
 187 42 187 42 258 42 c 0,41,42
 306 42 306 42 337.5 72.5 c 128,-1,32
 369 103 369 103 381 146 c 128,-1,33
EndSplineSet
EndChar

StartChar: thorn
Encoding: 254 254 189
Width: 524
Flags: HMW
HStem: -215 21G<96 120 96 96> -209 21G<90 90> -8 60<262 310.5 256.5 328.5> 438 60<273 321>
VStem: 90 66<-183 -168 -168 35 98 355 428 688> 403 69<179 317.5>
LayerCount: 2
Fore
SplineSet
428.5 430.5 m 128,-1,1
 472 363 472 363 472 243 c 128,-1,2
 472 123 472 123 415.5 57.5 c 128,-1,3
 359 -8 359 -8 289.5 -8 c 128,-1,4
 220 -8 220 -8 156 35 c 1,5,-1
 156 -168 l 2,6,7
 156 -193 156 -193 149 -204 c 128,-1,8
 142 -215 142 -215 120 -215 c 2,9,-1
 96 -215 l 1,10,-1
 90 -209 l 1,11,-1
 90 729 l 1,12,-1
 96 735 l 1,13,-1
 120 735 l 2,14,15
 142 735 142 735 149 724 c 128,-1,16
 156 713 156 713 156 688 c 2,17,-1
 156 428 l 1,18,19
 217 498 217 498 301 498 c 128,-1,0
 385 498 385 498 428.5 430.5 c 128,-1,1
292 438 m 0,20,21
 256 438 256 438 218 415.5 c 128,-1,22
 180 393 180 393 156 355 c 1,23,-1
 156 98 l 1,24,25
 221 52 221 52 276 52 c 128,-1,26
 331 52 331 52 367 101.5 c 128,-1,27
 403 151 403 151 403 248 c 128,-1,28
 403 345 403 345 371.5 391.5 c 128,-1,29
 340 438 340 438 292 438 c 0,20,21
EndSplineSet
EndChar

StartChar: AE
Encoding: 198 198 190
Width: 870
Flags: HMW
HStem: 0 62<537 766> 180 63<248 342 268 341> 316 60<528 747 536 747> 622 61<476 536 536 795>
VStem: 408 69<88.5 95 95 181 181 181 242 317 375 561>
LayerCount: 2
Fore
SplineSet
408 181 m 1,0,-1
 341 180 l 1,1,-1
 251 180 l 1,2,-1
 189 181 l 1,3,-1
 95 -1 l 1,4,5
 80 -4 80 -4 61 -4 c 128,-1,6
 42 -4 42 -4 24 1 c 1,7,-1
 22 4 l 1,8,-1
 372 675 l 1,9,10
 388 683 388 683 414 683 c 2,11,-1
 798 683 l 1,12,13
 799 672 799 672 799 652.5 c 128,-1,14
 799 633 799 633 795 622 c 1,15,16
 635.5 622 635.5 622 476 622 c 1,17,-1
 477 561 l 1,18,-1
 477 375 l 1,19,-1
 536 376 l 1,20,-1
 747 376 l 1,21,22
 750 361 750 361 750 346 c 128,-1,23
 750 331 750 331 747 316 c 1,24,-1
 536 316 l 2,25,26
 498 316 498 316 477 317 c 1,27,-1
 477 95 l 1,28,-1
 476 60 l 1,29,30
 510 62 510 62 537 62 c 2,31,-1
 813 62 l 1,32,33
 813 42 813 42 811 32 c 0,34,35
 805 0 805 0 766 0 c 2,36,-1
 448 0 l 2,37,38
 430 0 430 0 419 12.5 c 128,-1,39
 408 25 408 25 408 47 c 2,40,-1
 408 181 l 1,0,-1
342 243 m 1,41,-1
 408 242 l 1,42,-1
 408 606 l 1,43,-1
 407 605 l 1,44,-1
 402 605 l 1,45,46
 398 596 398 596 349 491 c 1,47,-1
 220 242 l 1,48,-1
 268 243 l 1,49,-1
 342 243 l 1,41,-1
EndSplineSet
EndChar

StartChar: Agrave
Encoding: 192 192 191
Width: 593
Flags: HMW
HStem: -4 8 180 63<223 352 234 352 352 354.5 234 360> 605 78<256 295 256 290> 729 149
VStem: 27 539<4 4> 172 225<768 815>
LayerCount: 2
Fore
SplineSet
432 181 m 1,0,-1
 360 180 l 1,1,-1
 226 180 l 1,2,-1
 155 181 l 1,3,-1
 95 -1 l 1,4,5
 82 -4 82 -4 64.5 -4 c 128,-1,6
 47 -4 47 -4 29 1 c 1,7,-1
 27 4 l 1,8,-1
 256 683 l 1,9,10
 272 686 272 686 298 686 c 128,-1,11
 324 686 324 686 336 683 c 1,12,-1
 566 4 l 1,13,14
 550 -6 550 -6 528.5 -6 c 128,-1,15
 507 -6 507 -6 498 1.5 c 128,-1,16
 489 9 489 9 482 30 c 2,17,-1
 432 181 l 1,0,-1
175 242 m 1,18,-1
 234 243 l 1,19,-1
 352 243 l 2,20,21
 353 243 353 243 378 242.5 c 128,-1,22
 403 242 403 242 412 242 c 1,23,-1
 346 441 l 2,24,25
 314 536 314 536 295 605 c 1,26,-1
 290 605 l 1,27,28
 274 544 274 544 257 491 c 2,29,-1
 175 242 l 1,18,-1
209 878 m 1,30,-1
 397 768 l 1,31,32
 390 739 390 739 375 729 c 1,33,-1
 172 815 l 1,34,35
 181 861 181 861 209 878 c 1,30,-1
EndSplineSet
EndChar

StartChar: Aacute
Encoding: 193 193 192
Width: 593
Flags: HMW
HStem: -4 8 180 63<223 352 234 352 352 354.5 234 360> 605 78<256 295 256 290> 729 149
VStem: 27 539<4 4> 212 225<768 815>
LayerCount: 2
Fore
SplineSet
432 181 m 1,0,-1
 360 180 l 1,1,-1
 226 180 l 1,2,-1
 155 181 l 1,3,-1
 95 -1 l 1,4,5
 82 -4 82 -4 64.5 -4 c 128,-1,6
 47 -4 47 -4 29 1 c 1,7,-1
 27 4 l 1,8,-1
 256 683 l 1,9,10
 272 686 272 686 298 686 c 128,-1,11
 324 686 324 686 336 683 c 1,12,-1
 566 4 l 1,13,14
 550 -6 550 -6 528.5 -6 c 128,-1,15
 507 -6 507 -6 498 1.5 c 128,-1,16
 489 9 489 9 482 30 c 2,17,-1
 432 181 l 1,0,-1
175 242 m 1,18,-1
 234 243 l 1,19,-1
 352 243 l 2,20,21
 353 243 353 243 378 242.5 c 128,-1,22
 403 242 403 242 412 242 c 1,23,-1
 346 441 l 2,24,25
 314 536 314 536 295 605 c 1,26,-1
 290 605 l 1,27,28
 274 544 274 544 257 491 c 2,29,-1
 175 242 l 1,18,-1
212 768 m 1,30,-1
 400 878 l 1,31,32
 428 861 428 861 437 815 c 1,33,-1
 234 729 l 1,34,35
 216 741 216 741 212 768 c 1,30,-1
EndSplineSet
EndChar

StartChar: Acircumflex
Encoding: 194 194 193
Width: 593
Flags: HMW
HStem: -4 8 180 63<223 352 234 352 352 354.5 234 360> 605 78<256 295 256 290> 733 142
VStem: 27 539<4 4> 153 287<767 771>
LayerCount: 2
Fore
SplineSet
432 181 m 1,0,-1
 360 180 l 1,1,-1
 226 180 l 1,2,-1
 155 181 l 1,3,-1
 95 -1 l 1,4,5
 82 -4 82 -4 64.5 -4 c 128,-1,6
 47 -4 47 -4 29 1 c 1,7,-1
 27 4 l 1,8,-1
 256 683 l 1,9,10
 272 686 272 686 298 686 c 128,-1,11
 324 686 324 686 336 683 c 1,12,-1
 566 4 l 1,13,14
 550 -6 550 -6 528.5 -6 c 128,-1,15
 507 -6 507 -6 498 1.5 c 128,-1,16
 489 9 489 9 482 30 c 2,17,-1
 432 181 l 1,0,-1
175 242 m 1,18,-1
 234 243 l 1,19,-1
 352 243 l 2,20,21
 353 243 353 243 378 242.5 c 128,-1,22
 403 242 403 242 412 242 c 1,23,-1
 346 441 l 2,24,25
 314 536 314 536 295 605 c 1,26,-1
 290 605 l 1,27,28
 274 544 274 544 257 491 c 2,29,-1
 175 242 l 1,18,-1
406 738 m 1,30,-1
 297 813 l 1,31,-1
 185 733 l 1,32,33
 160 742 160 742 153 767 c 1,34,-1
 264 873 l 1,35,36
 280 876 280 876 296.5 876 c 128,-1,37
 313 876 313 876 330 873 c 1,38,-1
 440 771 l 1,39,40
 433 746 433 746 406 738 c 1,30,-1
EndSplineSet
EndChar

StartChar: Atilde
Encoding: 195 195 194
Width: 593
Flags: HMW
HStem: -4 8 180 63<223 352 234 352 352 354.5 234 360> 605 78<256 295 256 290> 741 63<370 383 370 385>
VStem: 27 539<4 4> 130 334<774 823>
LayerCount: 2
Fore
SplineSet
432 181 m 1,0,-1
 360 180 l 1,1,-1
 226 180 l 1,2,-1
 155 181 l 1,3,-1
 95 -1 l 1,4,5
 82 -4 82 -4 64.5 -4 c 128,-1,6
 47 -4 47 -4 29 1 c 1,7,-1
 27 4 l 1,8,-1
 256 683 l 1,9,10
 272 686 272 686 298 686 c 128,-1,11
 324 686 324 686 336 683 c 1,12,-1
 566 4 l 1,13,14
 550 -6 550 -6 528.5 -6 c 128,-1,15
 507 -6 507 -6 498 1.5 c 128,-1,16
 489 9 489 9 482 30 c 2,17,-1
 432 181 l 1,0,-1
175 242 m 1,18,-1
 234 243 l 1,19,-1
 352 243 l 2,20,21
 353 243 353 243 378 242.5 c 128,-1,22
 403 242 403 242 412 242 c 1,23,-1
 346 441 l 2,24,25
 314 536 314 536 295 605 c 1,26,-1
 290 605 l 1,27,28
 274 544 274 544 257 491 c 2,29,-1
 175 242 l 1,18,-1
315 755 m 2,30,-1
 253 784 l 2,31,32
 233 793 233 793 215.5 793 c 128,-1,33
 198 793 198 793 177 768 c 2,34,-1
 164 752 l 1,35,36
 137 754 137 754 130 774 c 1,37,-1
 138 794 l 2,38,39
 149 823 149 823 173.5 839.5 c 128,-1,40
 198 856 198 856 224.5 856 c 128,-1,41
 251 856 251 856 279 842 c 2,42,-1
 341 813 l 2,43,44
 359 804 359 804 377.5 804 c 128,-1,45
 396 804 396 804 417 829 c 2,46,-1
 430 845 l 1,47,48
 455 843 455 843 464 823 c 1,49,-1
 456 804 l 2,50,51
 430 741 430 741 368 741 c 0,52,53
 343 741 343 741 315 755 c 2,30,-1
EndSplineSet
EndChar

StartChar: Adieresis
Encoding: 196 196 195
Width: 593
Flags: HMW
HStem: -4 8 180 63<223 352 234 352 352 354.5 234 360> 605 78<256 295 256 290> 745 78
VStem: 27 539<4 4> 159 80<745 745 815 815> 355 80<745 745 815 815>
LayerCount: 2
Fore
SplineSet
432 181 m 1,0,-1
 360 180 l 1,1,-1
 226 180 l 1,2,-1
 155 181 l 1,3,-1
 95 -1 l 1,4,5
 82 -4 82 -4 64.5 -4 c 128,-1,6
 47 -4 47 -4 29 1 c 1,7,-1
 27 4 l 1,8,-1
 256 683 l 1,9,10
 272 686 272 686 298 686 c 128,-1,11
 324 686 324 686 336 683 c 1,12,-1
 566 4 l 1,13,14
 550 -6 550 -6 528.5 -6 c 128,-1,15
 507 -6 507 -6 498 1.5 c 128,-1,16
 489 9 489 9 482 30 c 2,17,-1
 432 181 l 1,0,-1
175 242 m 1,18,-1
 234 243 l 1,19,-1
 352 243 l 2,20,21
 353 243 353 243 378 242.5 c 128,-1,22
 403 242 403 242 412 242 c 1,23,-1
 346 441 l 2,24,25
 314 536 314 536 295 605 c 1,26,-1
 290 605 l 1,27,28
 274 544 274 544 257 491 c 2,29,-1
 175 242 l 1,18,-1
355 815 m 1,30,31
 368 823 368 823 393.5 823 c 128,-1,32
 419 823 419 823 435 815 c 1,33,34
 441 795 441 795 441 779.75 c 128,-1,35
 441 764.5 441 764.5 435 745 c 1,36,37
 422 737 422 737 394 737 c 128,-1,38
 366 737 366 737 355 745 c 1,39,40
 348 763 348 763 348 780 c 128,-1,41
 348 797 348 797 355 815 c 1,30,31
159 815 m 1,42,43
 175 823 175 823 200.5 823 c 128,-1,44
 226 823 226 823 239 815 c 1,45,46
 246 797 246 797 246 780 c 128,-1,47
 246 763 246 763 239 745 c 1,48,49
 228 737 228 737 200 737 c 128,-1,50
 172 737 172 737 159 745 c 1,51,52
 153 764.5 153 764.5 153 780.25 c 128,-1,53
 153 796 153 796 159 815 c 1,42,43
EndSplineSet
EndChar

StartChar: Aring
Encoding: 197 197 196
Width: 593
Flags: HMW
HStem: -4 8 180 63<223 352 234 352 352 354.5 234 360> 833 46<282.5 311.5>
VStem: 189 57<759.5 792.5 759.5 804.5> 348 56<759.5 792.5>
LayerCount: 2
Fore
SplineSet
432 181 m 1,0,-1
 360 180 l 1,1,-1
 226 180 l 1,2,-1
 155 181 l 1,3,-1
 95 -1 l 1,4,5
 82 -4 82 -4 64.5 -4 c 128,-1,6
 47 -4 47 -4 29 1 c 1,7,-1
 27 4 l 1,8,-1
 255 679 l 1,9,10
 225 691 225 691 207 717.5 c 128,-1,11
 189 744 189 744 189 781.5 c 128,-1,12
 189 819 189 819 220 849 c 128,-1,13
 251 879 251 879 296.5 879 c 128,-1,14
 342 879 342 879 373 849 c 128,-1,15
 404 819 404 819 404 781 c 128,-1,16
 404 743 404 743 385.5 716.5 c 128,-1,17
 367 690 367 690 337 679 c 1,18,-1
 566 4 l 1,19,20
 550 -6 550 -6 528.5 -6 c 128,-1,21
 507 -6 507 -6 498 1.5 c 128,-1,22
 489 9 489 9 482 30 c 2,23,-1
 432 181 l 1,0,-1
175 242 m 1,24,-1
 234 243 l 1,25,-1
 352 243 l 2,26,27
 353 243 353 243 378 242.5 c 128,-1,28
 403 242 403 242 412 242 c 1,29,-1
 346 441 l 2,30,31
 314 536 314 536 295 605 c 1,32,-1
 290 605 l 1,33,34
 274 544 274 544 257 491 c 2,35,-1
 175 242 l 1,24,-1
246 776 m 128,-1,37
 246 751 246 751 260.5 735 c 128,-1,38
 275 719 275 719 297 719 c 128,-1,39
 319 719 319 719 333.5 735 c 128,-1,40
 348 751 348 751 348 776 c 128,-1,41
 348 801 348 801 333.5 817 c 128,-1,42
 319 833 319 833 297 833 c 128,-1,43
 275 833 275 833 260.5 817 c 128,-1,36
 246 801 246 801 246 776 c 128,-1,37
EndSplineSet
EndChar

StartChar: Ccedilla
Encoding: 199 199 197
Width: 600
Flags: HMW
HStem: -218 21G<295 340.5> -218 47<297 324 297 340.5> -82 42 -11 61 635 60<260.5 380>
VStem: 58 75<251 435.5 247.5 461.5> 356 62<-137.5 -114>
LayerCount: 2
Fore
SplineSet
267 -72 m 1,0,1
 277 -35 277 -35 288 -11 c 1,2,3
 209 -5 209 -5 155.5 46.5 c 0,4,5
 58 140.355140187 58 140.355140187 58 327.177570093 c 128,-1,6
 58 514 58 514 132.5 604.5 c 128,-1,7
 207 695 207 695 315 695 c 128,-1,8
 423 695 423 695 486.5 637.5 c 128,-1,9
 550 580 550 580 550 508 c 0,10,11
 550 466 550 466 511 466 c 0,12,13
 497 466 497 466 479 471 c 1,14,15
 479.096385542 474.036144578 479.096385542 474.036144578 479.096385542 477.043257367 c 0,16,17
 479.096385542 536.43373494 479.096385542 536.43373494 440.548192771 585.71686747 c 128,-1,18
 402 635 402 635 316 635 c 128,-1,19
 230 635 230 635 181.5 559 c 128,-1,20
 133 483 133 483 133 343 c 128,-1,21
 133 203 133 203 182.5 126.5 c 128,-1,22
 232 50 232 50 321.5 50 c 128,-1,23
 411 50 411 50 502 130 c 1,24,25
 531 112 531 112 541 84 c 1,26,27
 460 1 460 1 343 -10 c 1,28,29
 334 -28 334 -28 330 -40 c 1,30,31
 368 -43 368 -43 393 -66 c 128,-1,32
 418 -89 418 -89 418 -127.5 c 128,-1,33
 418 -166 418 -166 387 -192 c 128,-1,34
 356 -218 356 -218 310.5 -218 c 128,-1,35
 265 -218 265 -218 236 -200 c 1,36,37
 237 -179 237 -179 254 -157 c 1,38,39
 277 -171 277 -171 304 -171 c 128,-1,40
 331 -171 331 -171 343.5 -158 c 128,-1,41
 356 -145 356 -145 356 -126 c 128,-1,42
 356 -107 356 -107 343.5 -94.5 c 128,-1,43
 331 -82 331 -82 312.5 -82 c 128,-1,44
 294 -82 294 -82 282 -87 c 1,45,46
 270 -82 270 -82 267 -72 c 1,0,1
EndSplineSet
EndChar

StartChar: Egrave
Encoding: 200 200 198
Width: 562
Flags: HMW
HStem: 0 62<229 458> 316 60<220 439 228 439> 622 61<168 228 228 487> 729 149
VStem: 100 69<88.5 95 95 317 375 561> 174 225<768 815>
LayerCount: 2
Fore
SplineSet
169 95 m 1,0,-1
 168 60 l 1,1,2
 202 62 202 62 229 62 c 2,3,-1
 505 62 l 1,4,5
 505 42 505 42 503 32 c 0,6,7
 499 0 499 0 458 0 c 2,8,-1
 141 0 l 2,9,10
 122 0 122 0 111 12.5 c 128,-1,11
 100 25 100 25 100 47 c 2,12,-1
 100 677 l 1,13,-1
 106 683 l 1,14,-1
 490 683 l 1,15,16
 492 672 492 672 492 654 c 128,-1,17
 492 636 492 636 487 622 c 1,18,19
 327.5 622 327.5 622 168 622 c 1,20,21
 169 561 l 1,22,-1
 169 375 l 1,23,-1
 228 376 l 1,24,-1
 439 376 l 1,25,26
 442 361 442 361 442 346 c 128,-1,27
 442 331 442 331 439 316 c 1,28,-1
 228 316 l 2,29,30
 190 316 190 316 169 317 c 1,31,-1
 169 95 l 1,0,-1
211 878 m 1,32,-1
 399 768 l 1,33,34
 392 739 392 739 377 729 c 1,35,-1
 174 815 l 1,36,37
 183 861 183 861 211 878 c 1,32,-1
EndSplineSet
EndChar

StartChar: Eacute
Encoding: 201 201 199
Width: 562
Flags: HMW
HStem: 0 62<229 458> 316 60<220 439 228 439> 622 61<168 228 228 487> 729 149
VStem: 100 69<88.5 95 95 317 375 561> 214 225
LayerCount: 2
Fore
SplineSet
169 95 m 1,0,-1
 168 60 l 1,1,2
 202 62 202 62 229 62 c 2,3,-1
 505 62 l 1,4,5
 505 42 505 42 503 32 c 0,6,7
 499 0 499 0 458 0 c 2,8,-1
 141 0 l 2,9,10
 122 0 122 0 111 12.5 c 128,-1,11
 100 25 100 25 100 47 c 2,12,-1
 100 677 l 1,13,-1
 106 683 l 1,14,-1
 490 683 l 1,15,16
 492 672 492 672 492 654 c 128,-1,17
 492 636 492 636 487 622 c 1,18,19
 327.5 622 327.5 622 168 622 c 1,20,21
 169 561 l 1,22,-1
 169 375 l 1,23,-1
 228 376 l 1,24,-1
 439 376 l 1,25,26
 442 361 442 361 442 346 c 128,-1,27
 442 331 442 331 439 316 c 1,28,-1
 228 316 l 2,29,30
 190 316 190 316 169 317 c 1,31,-1
 169 95 l 1,0,-1
214 768 m 1,32,-1
 402 878 l 1,33,34
 430 861 430 861 439 815 c 1,35,-1
 236 729 l 1,36,37
 218 741 218 741 214 768 c 1,32,-1
EndSplineSet
EndChar

StartChar: Ecircumflex
Encoding: 202 202 200
Width: 562
Flags: HMW
HStem: 0 62<229 458> 316 60<220 439 228 439> 622 61<168 228 228 487> 733 142
VStem: 100 69<88.5 95 95 317 375 561> 155 287
LayerCount: 2
Fore
SplineSet
169 95 m 1,0,-1
 168 60 l 1,1,2
 202 62 202 62 229 62 c 2,3,-1
 505 62 l 1,4,5
 505 42 505 42 503 32 c 0,6,7
 499 0 499 0 458 0 c 2,8,-1
 141 0 l 2,9,10
 122 0 122 0 111 12.5 c 128,-1,11
 100 25 100 25 100 47 c 2,12,-1
 100 677 l 1,13,-1
 106 683 l 1,14,-1
 490 683 l 1,15,16
 492 672 492 672 492 654 c 128,-1,17
 492 636 492 636 487 622 c 1,18,19
 327.5 622 327.5 622 168 622 c 1,20,21
 169 561 l 1,22,-1
 169 375 l 1,23,-1
 228 376 l 1,24,-1
 439 376 l 1,25,26
 442 361 442 361 442 346 c 128,-1,27
 442 331 442 331 439 316 c 1,28,-1
 228 316 l 2,29,30
 190 316 190 316 169 317 c 1,31,-1
 169 95 l 1,0,-1
408 738 m 1,32,-1
 299 813 l 1,33,-1
 187 733 l 1,34,35
 162 742 162 742 155 767 c 1,36,-1
 266 873 l 1,37,38
 282 876 282 876 298.5 876 c 128,-1,39
 315 876 315 876 332 873 c 1,40,-1
 442 771 l 1,41,42
 435 746 435 746 408 738 c 1,32,-1
EndSplineSet
EndChar

StartChar: Edieresis
Encoding: 203 203 201
Width: 562
Flags: HMW
HStem: 0 62<229 458> 316 60<220 439 228 439> 622 61<168 228 228 487> 745 78
VStem: 100 69<88.5 95 95 317 375 561> 161 80<745 745 815 815> 357 80<745 745 815 815>
LayerCount: 2
Fore
SplineSet
169 95 m 1,0,-1
 168 60 l 1,1,2
 202 62 202 62 229 62 c 2,3,-1
 505 62 l 1,4,5
 505 42 505 42 503 32 c 0,6,7
 499 0 499 0 458 0 c 2,8,-1
 141 0 l 2,9,10
 122 0 122 0 111 12.5 c 128,-1,11
 100 25 100 25 100 47 c 2,12,-1
 100 677 l 1,13,-1
 106 683 l 1,14,-1
 490 683 l 1,15,16
 492 672 492 672 492 654 c 128,-1,17
 492 636 492 636 487 622 c 1,18,19
 327.5 622 327.5 622 168 622 c 1,20,21
 169 561 l 1,22,-1
 169 375 l 1,23,-1
 228 376 l 1,24,-1
 439 376 l 1,25,26
 442 361 442 361 442 346 c 128,-1,27
 442 331 442 331 439 316 c 1,28,-1
 228 316 l 2,29,30
 190 316 190 316 169 317 c 1,31,-1
 169 95 l 1,0,-1
357 815 m 1,32,33
 370 823 370 823 395.5 823 c 128,-1,34
 421 823 421 823 437 815 c 1,35,36
 443 795 443 795 443 779.75 c 128,-1,37
 443 764.5 443 764.5 437 745 c 1,38,39
 424 737 424 737 396 737 c 128,-1,40
 368 737 368 737 357 745 c 1,41,42
 350 763 350 763 350 780 c 128,-1,43
 350 797 350 797 357 815 c 1,32,33
161 815 m 1,44,45
 177 823 177 823 202.5 823 c 128,-1,46
 228 823 228 823 241 815 c 1,47,48
 248 797 248 797 248 780 c 128,-1,49
 248 763 248 763 241 745 c 1,50,51
 230 737 230 737 202 737 c 128,-1,52
 174 737 174 737 161 745 c 1,53,54
 155 764.5 155 764.5 155 780.25 c 128,-1,55
 155 796 155 796 161 815 c 1,44,45
EndSplineSet
EndChar

StartChar: Igrave
Encoding: 204 204 202
Width: 279
Flags: HMW
HStem: -3 689<132.5 146> 729 149
VStem: 15 225<768 815> 104 71<0 683 0 683>
LayerCount: 2
Fore
SplineSet
104 0 m 1,0,-1
 104 683 l 1,1,2
 117 686 117 686 138.5 686 c 0,3,4
 160 686 160 686 175 683 c 1,5,-1
 175 0 l 1,6,7
 160 -3 160 -3 139 -3 c 128,-1,8
 118 -3 118 -3 104 0 c 1,0,-1
52 878 m 1,9,-1
 240 768 l 1,10,11
 233 739 233 739 218 729 c 1,12,-1
 15 815 l 1,13,14
 24 861 24 861 52 878 c 1,9,-1
EndSplineSet
EndChar

StartChar: Iacute
Encoding: 205 205 203
Width: 279
Flags: HMW
HStem: -3 689<132.5 146> 729 149
VStem: 55 225<768 815> 104 71<0 683 0 683>
LayerCount: 2
Fore
SplineSet
104 0 m 1,0,-1
 104 683 l 1,1,2
 117 686 117 686 138.5 686 c 0,3,4
 160 686 160 686 175 683 c 1,5,-1
 175 0 l 1,6,7
 160 -3 160 -3 139 -3 c 128,-1,8
 118 -3 118 -3 104 0 c 1,0,-1
55 768 m 1,9,-1
 243 878 l 1,10,11
 271 861 271 861 280 815 c 1,12,-1
 77 729 l 1,13,14
 59 741 59 741 55 768 c 1,9,-1
EndSplineSet
EndChar

StartChar: Itilde
Encoding: 296 296 204
Width: 279
Flags: HMW
HStem: -3 689<132.5 146> 741 63<213 226 213 228>
VStem: -27 334<774 823> 104 71<0 683 0 683>
LayerCount: 2
Fore
SplineSet
104 0 m 1,0,-1
 104 683 l 1,1,2
 117 686 117 686 138.5 686 c 0,3,4
 160 686 160 686 175 683 c 1,5,-1
 175 0 l 1,6,7
 160 -3 160 -3 139 -3 c 128,-1,8
 118 -3 118 -3 104 0 c 1,0,-1
158 755 m 2,9,-1
 96 784 l 2,10,11
 76 793 76 793 58.5 793 c 0,12,13
 41 793 41 793 20 768 c 2,14,-1
 7 752 l 1,15,16
 -20 754 -20 754 -27 774 c 1,17,-1
 -19 794 l 2,18,19
 -8 823 -8 823 16.5 839.5 c 128,-1,20
 41 856 41 856 67.5 856 c 0,21,22
 94 856 94 856 122 842 c 2,23,-1
 184 813 l 2,24,25
 202 804 202 804 220.5 804 c 0,26,27
 239 804 239 804 260 829 c 2,28,-1
 273 845 l 1,29,30
 298 843 298 843 307 823 c 1,31,-1
 299 804 l 2,32,33
 273 741 273 741 211 741 c 0,34,35
 186 741 186 741 158 755 c 2,9,-1
EndSplineSet
EndChar

StartChar: Icircumflex
Encoding: 206 206 205
Width: 279
Flags: HMW
HStem: -3 689<132.5 146> 733 142
VStem: -4 287<767 771> 104 71<0 683 0 683>
LayerCount: 2
Fore
SplineSet
104 0 m 1,0,-1
 104 683 l 1,1,2
 117 686 117 686 138.5 686 c 0,3,4
 160 686 160 686 175 683 c 1,5,-1
 175 0 l 1,6,7
 160 -3 160 -3 139 -3 c 128,-1,8
 118 -3 118 -3 104 0 c 1,0,-1
249 738 m 1,9,-1
 140 813 l 1,10,-1
 28 733 l 1,11,12
 3 742 3 742 -4 767 c 1,13,-1
 107 873 l 1,14,15
 123 876 123 876 139.5 876 c 128,-1,16
 156 876 156 876 173 873 c 1,17,-1
 283 771 l 1,18,19
 276 746 276 746 249 738 c 1,9,-1
EndSplineSet
EndChar

StartChar: Idieresis
Encoding: 207 207 206
Width: 279
Flags: HMW
HStem: -3 689<132.5 146> 745 78
VStem: 2 80<745 745 815 815> 104 71<0 683 0 683> 198 80<745 745 815 815>
LayerCount: 2
Fore
SplineSet
104 0 m 1,0,-1
 104 683 l 1,1,2
 117 686 117 686 138.5 686 c 128,-1,3
 160 686 160 686 175 683 c 1,4,-1
 175 0 l 1,5,6
 160 -3 160 -3 139 -3 c 128,-1,7
 118 -3 118 -3 104 0 c 1,0,-1
198 815 m 1,8,9
 211 823 211 823 236.5 823 c 128,-1,10
 262 823 262 823 278 815 c 1,11,12
 284 795 284 795 284 779.75 c 128,-1,13
 284 764.5 284 764.5 278 745 c 1,14,15
 265 737 265 737 237 737 c 128,-1,16
 209 737 209 737 198 745 c 1,17,18
 191 763 191 763 191 780 c 128,-1,19
 191 797 191 797 198 815 c 1,8,9
2 815 m 1,20,21
 18 823 18 823 43.5 823 c 128,-1,22
 69 823 69 823 82 815 c 1,23,24
 89 797 89 797 89 780 c 128,-1,25
 89 763 89 763 82 745 c 1,26,27
 71 737 71 737 43 737 c 128,-1,28
 15 737 15 737 2 745 c 1,29,30
 -4 764.5 -4 764.5 -4 780.25 c 128,-1,31
 -4 796 -4 796 2 815 c 1,20,21
EndSplineSet
EndChar

StartChar: IJ
Encoding: 306 306 207
Width: 713
Flags: HMW
HStem: -10 61<418 482 418 522.5> -3 689<132.5 146>
VStem: 104 71<0 683 0 683> 557 70<225 240 240 683>
LayerCount: 2
Fore
SplineSet
104 0 m 1,0,-1
 104 683 l 1,1,2
 117 686 117 686 138.5 686 c 128,-1,3
 160 686 160 686 175 683 c 1,4,-1
 175 0 l 1,5,6
 160 -3 160 -3 139 -3 c 128,-1,7
 118 -3 118 -3 104 0 c 1,0,-1
320 85 m 1,8,9
 375 51 375 51 439.5 51 c 128,-1,10
 504 51 504 51 530.5 90.5 c 128,-1,11
 557 130 557 130 557 225 c 2,12,-1
 557 683 l 1,13,14
 571 686 571 686 592.5 686 c 128,-1,15
 614 686 614 686 627 683 c 1,16,-1
 627 240 l 2,17,18
 627 181 627 181 620.5 141 c 128,-1,19
 614 101 614 101 595.5 64 c 0,20,21
 558.5 -10 558.5 -10 441 -10 c 0,22,23
 357 -10 357 -10 290 31 c 1,24,25
 297 62 297 62 320 85 c 1,8,9
EndSplineSet
EndChar

StartChar: Jcircumflex
Encoding: 308 308 208
Width: 433
Flags: HMW
HStem: -10 61<138 202 138 242.5> 733 142
VStem: 169 287<767 771> 277 70<225 240 240 683>
LayerCount: 2
Fore
SplineSet
40 85 m 1,0,1
 95 51 95 51 159.5 51 c 128,-1,2
 224 51 224 51 250.5 90.5 c 128,-1,3
 277 130 277 130 277 225 c 2,4,-1
 277 683 l 1,5,6
 290 686 290 686 311.5 686 c 128,-1,7
 333 686 333 686 347 683 c 1,8,-1
 347 240 l 2,9,10
 347 181 347 181 340.5 141 c 128,-1,11
 334 101 334 101 315.5 64 c 0,12,13
 278.5 -10 278.5 -10 161 -10 c 0,14,15
 77 -10 77 -10 10 31 c 1,16,17
 17 62 17 62 40 85 c 1,0,1
422 738 m 1,18,-1
 313 813 l 1,19,-1
 201 733 l 1,20,21
 176 742 176 742 169 767 c 1,22,-1
 280 873 l 1,23,24
 296 876 296 876 312.5 876 c 128,-1,25
 329 876 329 876 346 873 c 1,26,-1
 456 771 l 1,27,28
 449 746 449 746 422 738 c 1,18,-1
EndSplineSet
EndChar

StartChar: Lslash
Encoding: 321 321 209
Width: 509
Flags: HMW
HStem: 0 63<261 429>
VStem: 104 71<60 300 300 300 381 640> 365 9
LayerCount: 2
Fore
SplineSet
175 640 m 2,0,-1
 175 381 l 1,1,-1
 365 443 l 1,2,-1
 370 440 l 1,3,4
 374.266666667 425.066666667 374.266666667 425.066666667 374.266666667 410.8 c 0,5,6
 374.266666667 396.533333333 374.266666667 396.533333333 371 383 c 1,7,-1
 175 320 l 1,8,-1
 175 60 l 1,9,10
 220 63 220 63 261 63 c 2,11,-1
 476 63 l 1,12,13
 476 42 476 42 474 32 c 0,14,15
 470 0 470 0 429 0 c 2,16,-1
 145 0 l 2,17,18
 128 0 128 0 116 12.5 c 128,-1,19
 104 25 104 25 104 48 c 2,20,-1
 104 300 l 1,21,-1
 36 277 l 1,22,-1
 31 280 l 1,23,24
 27.7272727273 294.727272727 27.7272727273 294.727272727 27.7272727273 309.045454545 c 0,25,26
 27.7272727273 323.363636364 27.7272727273 323.363636364 30 337 c 1,27,-1
 104 360 l 1,28,-1
 104 680 l 1,29,-1
 110 686 l 1,30,-1
 139 686 l 2,31,32
 161 686 161 686 168 675.5 c 128,-1,33
 175 665 175 665 175 640 c 2,0,-1
EndSplineSet
EndChar

